SplineFontDB: 3.0
FontName: Copse
FullName: Copse
FamilyName: Copse
Weight: Regular
Copyright: Copyright (c) 2010 by Daniel Rhatigan. All rights reserved.
Version: 001.001
ItalicAngle: 0
UnderlinePosition: -205
UnderlineWidth: 102
Ascent: 1638
Descent: 410
sfntRevision: 0x00010000
LayerCount: 2
Layer: 0 1 "Back"  1
Layer: 1 1 "Fore"  0
XUID: [1021 496 529952750 10489938]
FSType: 0
OS2Version: 2
OS2_WeightWidthSlopeOnly: 0
OS2_UseTypoMetrics: 1
CreationTime: 1291993328
ModificationTime: 1291993124
PfmFamily: 17
TTFWeight: 400
TTFWidth: 5
LineGap: 57
VLineGap: 0
Panose: 2 0 5 3 8 0 0 2 0 4
OS2TypoAscent: -55
OS2TypoAOffset: 1
OS2TypoDescent: -29
OS2TypoDOffset: 1
OS2TypoLinegap: 113
OS2WinAscent: 0
OS2WinAOffset: 1
OS2WinDescent: 0
OS2WinDOffset: 1
HheadAscent: 0
HheadAOffset: 1
HheadDescent: 0
HheadDOffset: 1
OS2SubXSize: 1475
OS2SubYSize: 1229
OS2SubXOff: 0
OS2SubYOff: 0
OS2SupXSize: 1475
OS2SupYSize: 1229
OS2SupXOff: 0
OS2SupYOff: 731
OS2StrikeYSize: 102
OS2StrikeYPos: 512
OS2Vendor: 'PfEd'
OS2CodePages: 20000093.00000000
OS2UnicodeRanges: a00000bf.4000206b.00000000.00000000
Lookup: 258 0 0 "'kern' Horizontal Kerning in Latin lookup 0"  {"'kern' Horizontal Kerning in Latin lookup 0 per glyph data 0"  "'kern' Horizontal Kerning in Latin lookup 0 per glyph data 1"  "'kern' Horizontal Kerning in Latin lookup 0 kerning class 2"  } ['kern' ('latn' <'dflt' > ) ]
MarkAttachClasses: 1
DEI: 91125
KernClass2: 14+ 15 "'kern' Horizontal Kerning in Latin lookup 0 kerning class 2" 
 12 B germandbls
 5 K X Z
 1 L
 59 D O Q Eth Ograve Oacute Ocircumflex Otilde Odieresis Oslash
 1 R
 9 S section
 3 T Y
 3 V W
 4 a ae
 5 v w y
 87 b e o p ocircumflex otilde oslash thorn egrave eacute edieresis ograve oacute odieresis
 1 r
 61 quotedbl quotesingle asterisk degree quoteright quotedblright
 1 x
 3 V W
 5 v w y
 1 u
 37 U Ugrave Uacute Ucircumflex Udieresis
 3 X Z
 66 C G O Q Ograve Oacute Ocircumflex Otilde Odieresis Oslash Ccedilla
 40 comma period quotesinglbase quotedblbase
 4 a ae

StartChar: .notdef
Encoding: 65536 -1 0
Width: 1333
Flags: MW
HStem: 0 115<72 1147 186 1147 186 1262> 1294 115<186 1147 186 186>
VStem: 72 114<115 115 115 1294> 1147 115<115 1294 1294 1294>
LayerCount: 2
Fore
SplineSet
72 0 m 1,0,-1
 72 1409 l 1,1,-1
 1262 1409 l 1,2,-1
 1262 0 l 1,3,-1
 72 0 l 1,0,-1
186 115 m 1,4,-1
 1147 115 l 1,5,-1
 1147 1294 l 1,6,-1
 186 1294 l 1,7,-1
 186 115 l 1,4,-1
EndSplineSet
EndChar

StartChar: exclam
Encoding: 33 33 4
Width: 602
Flags: MW
HStem: -20 21G<278.5 356> 1505 20G<301.5 349.5>
VStem: 184 275<79 159>
LayerCount: 2
Fore
SplineSet
184 120 m 0,0,1
 184 179 184 179 222 219 c 128,-1,2
 260 259 260 259 317 259 c 0,3,4
 376 259 376 259 417.5 218.5 c 128,-1,5
 459 178 459 178 459 120 c 0,6,7
 459 59 459 59 417.5 19.5 c 128,-1,8
 376 -20 376 -20 317 -20 c 0,9,10
 259 -20 259 -20 221.5 19.5 c 128,-1,11
 184 59 184 59 184 120 c 0,0,1
234 435 m 1,12,-1
 186 1494 l 2,13,14
 185 1525 185 1525 323 1525 c 0,15,16
 452 1525 452 1525 453 1492 c 1,17,-1
 403 432 l 2,18,19
 402 414 402 414 375.5 402.5 c 128,-1,20
 349 391 349 391 320 391 c 0,21,22
 234 391 234 391 234 435 c 1,12,-1
EndSplineSet
EndChar

StartChar: quotedbl
Encoding: 34 34 5
Width: 840
Flags: MW
HStem: 1563 20G<209 247.5 587.5 626>
VStem: 105 625<1534 1558.5>
LayerCount: 2
Fore
SplineSet
532 1140 m 2,0,-1
 497 1538 l 1,1,2
 497 1559 497 1559 533.5 1571 c 128,-1,3
 570 1583 570 1583 606 1583 c 0,4,5
 730 1583 730 1583 730 1534 c 1,6,-1
 678 1140 l 2,7,8
 676 1126 676 1126 651 1118 c 128,-1,9
 626 1110 626 1110 601 1110 c 128,-1,10
 576 1110 576 1110 554.5 1117 c 128,-1,11
 533 1124 533 1124 532 1140 c 2,0,-1
338 1538 m 1,12,-1
 303 1140 l 2,13,14
 302 1124 302 1124 280.5 1117 c 128,-1,15
 259 1110 259 1110 234 1110 c 128,-1,16
 209 1110 209 1110 184 1118 c 128,-1,17
 159 1126 159 1126 157 1140 c 2,18,-1
 105 1534 l 1,19,20
 105 1583 105 1583 229 1583 c 0,21,22
 265 1583 265 1583 301.5 1571 c 128,-1,23
 338 1559 338 1559 338 1538 c 1,12,-1
EndSplineSet
EndChar

StartChar: percent
Encoding: 37 37 6
Width: 1200
Flags: MW
HStem: -20 112<825 916 825 943> 494 108<825 916> 883 109<278 369 278 397> 1394 111<278 369>
VStem: 39 157<1146.5 1258.5 1146.5 1275> 453 159<1127 1239.5> 585 158<246.5 358.5 246.5 372> 1000 158<227 339.5>
LayerCount: 2
Fore
SplineSet
870 92 m 0,0,1
 936 92 936 92 968 143.5 c 128,-1,2
 1000 195 1000 195 1000 281 c 0,3,4
 1000 375 1000 375 967.5 434.5 c 128,-1,5
 935 494 935 494 870 494 c 0,6,7
 806 494 806 494 774.5 442 c 128,-1,8
 743 390 743 390 743 305 c 0,9,10
 743 211 743 211 774.5 151.5 c 128,-1,11
 806 92 806 92 870 92 c 0,0,1
307 883 m 0,12,13
 179 883 179 883 109 970 c 128,-1,14
 39 1057 39 1057 39 1182 c 0,15,16
 39 1322 39 1322 124.5 1413.5 c 128,-1,17
 210 1505 210 1505 344 1505 c 0,18,19
 473 1505 473 1505 542.5 1418.5 c 128,-1,20
 612 1332 612 1332 612 1206 c 0,21,22
 612 1066 612 1066 526.5 974.5 c 128,-1,23
 441 883 441 883 307 883 c 0,12,13
853 -20 m 0,24,25
 725 -20 725 -20 655 67 c 128,-1,26
 585 154 585 154 585 279 c 0,27,28
 585 419 585 419 670.5 510.5 c 128,-1,29
 756 602 756 602 890 602 c 0,30,31
 1019 602 1019 602 1088.5 515.5 c 128,-1,32
 1158 429 1158 429 1158 303 c 0,33,34
 1158 163 1158 163 1072.5 71.5 c 128,-1,35
 987 -20 987 -20 853 -20 c 0,24,25
25 0 m 1,36,-1
 1017 1505 l 2,37,38
 1038 1537 1038 1537 1113 1537 c 0,39,40
 1175 1537 1175 1537 1175 1505 c 1,41,-1
 191 0 l 2,42,43
 171 -30 171 -30 88 -30 c 0,44,45
 25 -30 25 -30 25 0 c 1,36,-1
323 992 m 0,46,47
 389 992 389 992 421 1043.5 c 128,-1,48
 453 1095 453 1095 453 1181 c 0,49,50
 453 1275 453 1275 420.5 1334.5 c 128,-1,51
 388 1394 388 1394 323 1394 c 0,52,53
 259 1394 259 1394 227.5 1342 c 128,-1,54
 196 1290 196 1290 196 1205 c 0,55,56
 196 1111 196 1111 227.5 1051.5 c 128,-1,57
 259 992 259 992 323 992 c 0,46,47
EndSplineSet
EndChar

StartChar: ampersand
Encoding: 38 38 7
Width: 1363
Flags: MW
HStem: -20 154<474.5 583.5 474.5 591> 0 141<1037.5 1260 1202.5 1234> 666 141<912.5 926 926 1050 1238 1299 1238 1238> 1371 154<538.5 654>
VStem: 85 233<329 453.5 329 463.5> 208 202<1157.5 1260.5 1157.5 1285.5> 764 205<1123 1238.5>
LayerCount: 2
Fore
SplineSet
1299 666 m 2,0,-1
 1238 666 l 1,1,2
 1227 576 1227 576 1174 471 c 128,-1,3
 1121 366 1121 366 1036 263 c 1,4,-1
 1057 230 l 2,5,6
 1087 182 1087 182 1132.5 161.5 c 128,-1,7
 1178 141 1178 141 1249 141 c 0,8,9
 1273 141 1273 141 1273 76 c 0,10,11
 1273 47 1273 47 1262.5 23.5 c 128,-1,12
 1252 0 1252 0 1234 0 c 2,13,-1
 1064 0 l 2,14,15
 1027 0 1027 0 980 30.5 c 128,-1,16
 933 61 933 61 896 103 c 1,17,18
 723 -20 723 -20 517 -20 c 0,19,20
 328 -20 328 -20 206.5 89.5 c 128,-1,21
 85 199 85 199 85 376 c 0,22,23
 85 501 85 501 141 597 c 128,-1,24
 197 693 197 693 341 837 c 1,25,26
 311 884 311 884 295.5 912 c 128,-1,27
 280 940 280 940 255.5 990.5 c 128,-1,28
 231 1041 231 1041 219.5 1093.5 c 128,-1,29
 208 1146 208 1146 208 1200 c 0,30,31
 208 1336 208 1336 312.5 1430.5 c 128,-1,32
 417 1525 417 1525 601 1525 c 0,33,34
 684 1525 684 1525 750 1504 c 128,-1,35
 816 1483 816 1483 856 1450.5 c 128,-1,36
 896 1418 896 1418 922.5 1374.5 c 128,-1,37
 949 1331 949 1331 959 1289.5 c 128,-1,38
 969 1248 969 1248 969 1205 c 0,39,40
 969 1084 969 1084 908 979.5 c 128,-1,41
 847 875 847 875 691 714 c 1,42,-1
 946 376 l 1,43,44
 999 451 999 451 1031 527 c 128,-1,45
 1063 603 1063 603 1063 650 c 0,46,47
 1063 666 1063 666 1050 666 c 2,48,-1
 926 666 l 2,49,50
 907 666 907 666 896 692 c 128,-1,51
 885 718 885 718 885 748 c 0,52,53
 885 807 885 807 911 807 c 2,54,-1
 1309 807 l 2,55,56
 1334 807 1334 807 1334 742 c 0,57,58
 1334 711 1334 711 1325 688.5 c 128,-1,59
 1316 666 1316 666 1299 666 c 2,0,-1
538 134 m 0,60,61
 606 134 606 134 678 159 c 128,-1,62
 750 184 750 184 804 225 c 1,63,-1
 435 712 l 1,64,65
 318 595 318 595 318 423 c 0,66,67
 318 286 318 286 379 210 c 128,-1,68
 440 134 440 134 538 134 c 0,60,61
599 840 m 1,69,70
 764 985 764 985 764 1187 c 0,71,72
 764 1267 764 1267 721 1319 c 128,-1,73
 678 1371 678 1371 601 1371 c 0,74,75
 511 1371 511 1371 460.5 1327.5 c 128,-1,76
 410 1284 410 1284 410 1219 c 0,77,78
 410 1135 410 1135 459.5 1044.5 c 128,-1,79
 509 954 509 954 599 840 c 1,69,70
EndSplineSet
EndChar

StartChar: quotesingle
Encoding: 39 39 8
Width: 451
Flags: MW
HStem: 1563 20G<209 247.5>
VStem: 113 233<1538 1557.5 1538 1558.5>
LayerCount: 2
Fore
SplineSet
346 1538 m 1,0,-1
 303 1140 l 2,1,2
 300 1110 300 1110 234 1110 c 0,3,4
 160 1110 160 1110 157 1140 c 2,5,-1
 113 1534 l 1,6,7
 113 1551 113 1551 124.5 1562 c 128,-1,8
 136 1573 136 1573 157.5 1577 c 128,-1,9
 179 1581 179 1581 193 1582 c 128,-1,10
 207 1583 207 1583 229 1583 c 0,11,12
 271 1583 271 1583 308.5 1573.5 c 128,-1,13
 346 1564 346 1564 346 1538 c 1,0,-1
EndSplineSet
EndChar

StartChar: parenleft
Encoding: 40 40 9
Width: 800
Flags: MW
HStem: -239 1923<589 611 580 612.5>
VStem: 200 211<571.5 887.5 571.5 930>
LayerCount: 2
Fore
SplineSet
547 -227 m 1,0,1
 395 -65 395 -65 297.5 186.5 c 128,-1,2
 200 438 200 438 200 727 c 128,-1,3
 200 1016 200 1016 297 1263 c 128,-1,4
 394 1510 394 1510 547 1675 c 1,5,6
 557 1684 557 1684 589 1684 c 128,-1,7
 621 1684 621 1684 644.5 1663 c 128,-1,8
 668 1642 668 1642 668 1614 c 1,9,10
 525 1372 525 1372 468 1171.5 c 128,-1,11
 411 971 411 971 411 731 c 0,12,13
 411 486 411 486 468 282 c 128,-1,14
 525 78 525 78 668 -166 c 1,15,16
 668 -195 668 -195 645 -217 c 128,-1,17
 622 -239 622 -239 594 -239 c 0,18,19
 570 -239 570 -239 547 -227 c 1,0,1
EndSplineSet
EndChar

StartChar: parenright
Encoding: 41 41 10
Width: 800
Flags: MW
HStem: -239 1923<189 211>
VStem: 389 211<571.5 887.5>
LayerCount: 2
Fore
SplineSet
253 -227 m 1,0,1
 230 -239 230 -239 206 -239 c 0,2,3
 178 -239 178 -239 155 -217 c 128,-1,4
 132 -195 132 -195 132 -166 c 1,5,6
 275 78 275 78 332 282 c 128,-1,7
 389 486 389 486 389 731 c 0,8,9
 389 971 389 971 332 1171.5 c 128,-1,10
 275 1372 275 1372 132 1614 c 1,11,12
 132 1642 132 1642 155.5 1663 c 128,-1,13
 179 1684 179 1684 211 1684 c 128,-1,14
 243 1684 243 1684 253 1675 c 1,15,16
 406 1510 406 1510 503 1263 c 128,-1,17
 600 1016 600 1016 600 727 c 128,-1,18
 600 438 600 438 502.5 186.5 c 128,-1,19
 405 -65 405 -65 253 -227 c 1,0,1
EndSplineSet
EndChar

StartChar: asterisk
Encoding: 42 42 11
Width: 762
Flags: MW
HStem: 1070 530<362.5 497.5>
VStem: 108 544<1350 1370.5 1347.5 1372.5>
LayerCount: 2
Fore
SplineSet
376 1222 m 1,0,-1
 299 1080 l 1,1,2
 293 1073 293 1073 282 1073 c 0,3,4
 255 1073 255 1073 210.5 1104.5 c 128,-1,5
 166 1136 166 1136 166 1163 c 0,6,7
 166 1168 166 1168 169 1173 c 1,8,-1
 278 1295 l 1,9,-1
 122 1325 l 1,10,11
 108 1329 108 1329 108 1358 c 0,12,13
 108 1388 108 1388 125.5 1433.5 c 128,-1,14
 143 1479 143 1479 166 1479 c 0,15,16
 167 1479 167 1479 168.5 1478.5 c 128,-1,17
 170 1478 170 1478 171 1478 c 2,18,-1
 318 1411 l 1,19,-1
 301 1569 l 1,20,21
 301 1584 301 1584 325.5 1592 c 128,-1,22
 350 1600 350 1600 377 1600 c 0,23,24
 408 1600 408 1600 434.5 1592.5 c 128,-1,25
 461 1585 461 1585 461 1569 c 1,26,-1
 441 1409 l 1,27,-1
 586 1476 l 2,28,29
 588 1477 588 1477 591 1477 c 0,30,31
 614 1477 614 1477 633 1431 c 128,-1,32
 652 1385 652 1385 652 1355 c 0,33,34
 652 1330 652 1330 638 1324 c 1,35,-1
 477 1291 l 1,36,-1
 591 1175 l 1,37,38
 594 1170 594 1170 594 1165 c 0,39,40
 594 1139 594 1139 551 1104.5 c 128,-1,41
 508 1070 508 1070 480 1070 c 0,42,43
 469 1070 469 1070 465 1077 c 2,44,-1
 376 1222 l 1,0,-1
EndSplineSet
EndChar

StartChar: plus
Encoding: 43 43 12
Width: 1200
Flags: MW
HStem: 575 154<165.5 528 180 528 672 1022 180 672>
VStem: 528 144<162 575 729 1098>
LayerCount: 2
Fore
SplineSet
180 729 m 2,0,-1
 528 729 l 1,1,-1
 528 1098 l 2,2,3
 528 1119 528 1119 598 1119 c 0,4,5
 672 1119 672 1119 672 1098 c 2,6,-1
 672 729 l 1,7,-1
 1022 729 l 2,8,9
 1040 729 1040 729 1050.5 705 c 128,-1,10
 1061 681 1061 681 1061 655 c 0,11,12
 1061 628 1061 628 1050.5 601.5 c 128,-1,13
 1040 575 1040 575 1022 575 c 2,14,-1
 672 575 l 1,15,-1
 672 162 l 2,16,17
 672 141 672 141 598 141 c 0,18,19
 528 141 528 141 528 162 c 2,20,-1
 528 575 l 1,21,-1
 180 575 l 2,22,23
 160 575 160 575 149.5 600 c 128,-1,24
 139 625 139 625 139 651 c 0,25,26
 139 679 139 679 149.5 704 c 128,-1,27
 160 729 160 729 180 729 c 2,0,-1
EndSplineSet
EndChar

StartChar: comma
Encoding: 44 44 13
Width: 655
Flags: MW
HStem: -16 21G
VStem: 192 293<79 151.5 47.5 153>
LayerCount: 2
Fore
SplineSet
192 113 m 0,0,1
 192 172 192 172 234.5 212 c 128,-1,2
 277 252 277 252 336 252 c 0,3,4
 396 252 396 252 440.5 211 c 128,-1,5
 485 170 485 170 485 113 c 0,6,7
 485 -63 485 -63 220 -270 c 1,8,9
 192 -270 192 -270 176 -254 c 128,-1,10
 160 -238 160 -238 160 -211 c 1,11,12
 199 -168 199 -168 232.5 -112 c 128,-1,13
 266 -56 266 -56 266 -16 c 1,14,15
 192 25 192 25 192 113 c 0,0,1
EndSplineSet
EndChar

StartChar: hyphen
Encoding: 45 45 14
Width: 758
Flags: MW
HStem: 513 176<141.5 602 156 602>
VStem: 115 526<589 615.5>
LayerCount: 2
Fore
SplineSet
156 689 m 2,0,-1
 602 689 l 2,1,2
 620 689 620 689 630.5 660 c 128,-1,3
 641 631 641 631 641 604 c 0,4,5
 641 575 641 575 630.5 544 c 128,-1,6
 620 513 620 513 602 513 c 2,7,-1
 156 513 l 2,8,9
 137 513 137 513 126 543 c 128,-1,10
 115 573 115 573 115 600 c 0,11,12
 115 629 115 629 125.5 659 c 128,-1,13
 136 689 136 689 156 689 c 2,0,-1
EndSplineSet
EndChar

StartChar: period
Encoding: 46 46 15
Width: 643
Flags: MW
HStem: -20 274<283 361.5>
VStem: 184 275<75 155>
LayerCount: 2
Fore
SplineSet
184 115 m 0,0,1
 184 175 184 175 223.5 214.5 c 128,-1,2
 263 254 263 254 322 254 c 128,-1,3
 381 254 381 254 420 214.5 c 128,-1,4
 459 175 459 175 459 115 c 128,-1,5
 459 55 459 55 420.5 17.5 c 128,-1,6
 382 -20 382 -20 322 -20 c 0,7,8
 263 -20 263 -20 223.5 18 c 128,-1,9
 184 56 184 56 184 115 c 0,0,1
EndSplineSet
EndChar

StartChar: slash
Encoding: 47 47 16
Width: 909
Flags: MW
HStem: -170 1808<102 817.5>
VStem: 41 838
LayerCount: 2
Fore
SplineSet
41 -141 m 1,0,-1
 714 1606 l 1,1,2
 765 1638 765 1638 804 1638 c 0,3,4
 879 1638 879 1638 879 1606 c 1,5,-1
 213 -141 l 1,6,7
 172 -170 172 -170 116 -170 c 0,8,9
 88 -170 88 -170 64.5 -163 c 128,-1,10
 41 -156 41 -156 41 -141 c 1,0,-1
EndSplineSet
EndChar

StartChar: colon
Encoding: 58 58 17
Width: 655
Flags: MW
HStem: 25 276<288 367> 635 274<288 367>
VStem: 190 275<122 202 732 812>
LayerCount: 2
Fore
SplineSet
328 635 m 0,0,1
 268 635 268 635 229 673.5 c 128,-1,2
 190 712 190 712 190 772 c 128,-1,3
 190 832 190 832 229 870.5 c 128,-1,4
 268 909 268 909 328 909 c 0,5,6
 387 909 387 909 426 870.5 c 128,-1,7
 465 832 465 832 465 772 c 128,-1,8
 465 712 465 712 426 673.5 c 128,-1,9
 387 635 387 635 328 635 c 0,0,1
190 162 m 128,-1,11
 190 222 190 222 229 261.5 c 128,-1,12
 268 301 268 301 328 301 c 0,13,14
 387 301 387 301 426 261.5 c 128,-1,15
 465 222 465 222 465 162 c 128,-1,16
 465 102 465 102 426 63.5 c 128,-1,17
 387 25 387 25 328 25 c 0,18,19
 268 25 268 25 229 63.5 c 128,-1,10
 190 102 190 102 190 162 c 128,-1,11
EndSplineSet
EndChar

StartChar: semicolon
Encoding: 59 59 18
Width: 655
Flags: MW
HStem: -16 21G 635 274<294 373>
VStem: 192 293<79 151.5 47.5 153> 197 274<732 812>
LayerCount: 2
Fore
SplineSet
334 635 m 0,0,1
 274 635 274 635 235.5 673.5 c 128,-1,2
 197 712 197 712 197 772 c 128,-1,3
 197 832 197 832 235.5 870.5 c 128,-1,4
 274 909 274 909 334 909 c 0,5,6
 393 909 393 909 432 870.5 c 128,-1,7
 471 832 471 832 471 772 c 128,-1,8
 471 712 471 712 432 673.5 c 128,-1,9
 393 635 393 635 334 635 c 0,0,1
192 113 m 0,10,11
 192 172 192 172 234.5 212 c 128,-1,12
 277 252 277 252 336 252 c 0,13,14
 396 252 396 252 440.5 211 c 128,-1,15
 485 170 485 170 485 113 c 0,16,17
 485 -63 485 -63 220 -270 c 1,18,19
 192 -270 192 -270 176 -254 c 128,-1,20
 160 -238 160 -238 160 -211 c 1,21,22
 199 -168 199 -168 232.5 -112 c 128,-1,23
 266 -56 266 -56 266 -16 c 1,24,25
 192 25 192 25 192 113 c 0,10,11
EndSplineSet
EndChar

StartChar: less
Encoding: 60 60 19
Width: 1208
Flags: MW
HStem: 96 1078<954 959>
VStem: 110 911<170.5 664>
LayerCount: 2
Fore
SplineSet
1021 1068 m 1,0,-1
 385 642 l 1,1,-1
 1021 196 l 1,2,3
 1021 119 1021 119 959 96 c 1,4,-1
 160 558 l 2,5,6
 110 587 110 587 110 641 c 0,7,8
 110 700 110 700 163 731 c 1,9,-1
 954 1174 l 1,10,11
 985 1166 985 1166 1003 1134.5 c 128,-1,12
 1021 1103 1021 1103 1021 1068 c 1,0,-1
EndSplineSet
EndChar

StartChar: equal
Encoding: 61 61 20
Width: 1200
Flags: MW
HStem: 389 154<168 1024 182 1024> 762 154<164 1024 178 1024>
VStem: 137 926<826.5 853>
LayerCount: 2
Fore
SplineSet
178 916 m 2,0,-1
 1024 916 l 2,1,2
 1042 916 1042 916 1052.5 891.5 c 128,-1,3
 1063 867 1063 867 1063 842 c 0,4,5
 1063 814 1063 814 1052.5 788 c 128,-1,6
 1042 762 1042 762 1024 762 c 2,7,-1
 178 762 l 2,8,9
 159 762 159 762 148 787 c 128,-1,10
 137 812 137 812 137 838 c 0,11,12
 137 865 137 865 148 890.5 c 128,-1,13
 159 916 159 916 178 916 c 2,0,-1
182 543 m 2,14,-1
 1024 543 l 2,15,16
 1042 543 1042 543 1052.5 519 c 128,-1,17
 1063 495 1063 495 1063 469 c 0,18,19
 1063 441 1063 441 1052.5 415 c 128,-1,20
 1042 389 1042 389 1024 389 c 2,21,-1
 182 389 l 2,22,23
 163 389 163 389 152 414 c 128,-1,24
 141 439 141 439 141 465 c 0,25,26
 141 492 141 492 152 517.5 c 128,-1,27
 163 543 163 543 182 543 c 2,14,-1
EndSplineSet
EndChar

StartChar: greater
Encoding: 62 62 21
Width: 1208
Flags: MW
HStem: 96 1078<226 231>
VStem: 164 911<170.5 664 618 1089.5>
LayerCount: 2
Fore
SplineSet
800 642 m 1,0,-1
 164 1068 l 1,1,2
 164 1103 164 1103 182 1134.5 c 128,-1,3
 200 1166 200 1166 231 1174 c 1,4,-1
 1022 731 l 1,5,6
 1075 700 1075 700 1075 641 c 0,7,8
 1075 587 1075 587 1025 558 c 2,9,-1
 226 96 l 1,10,11
 164 119 164 119 164 196 c 1,12,-1
 800 642 l 1,0,-1
EndSplineSet
EndChar

StartChar: question
Encoding: 63 63 22
Width: 987
Flags: MW
HStem: -20 21G<383 461.5> 1371 154<413 507.5>
VStem: 58 280<1233 1286.5 1233 1365.5> 283 280<79 159> 328 195<445 692> 668 217<1053 1215.5>
LayerCount: 2
Fore
SplineSet
58 1274 m 0,0,1
 58 1338 58 1338 104.5 1389.5 c 128,-1,2
 151 1441 151 1441 219.5 1469 c 128,-1,3
 288 1497 288 1497 353.5 1511 c 128,-1,4
 419 1525 419 1525 469 1525 c 0,5,6
 664 1525 664 1525 774.5 1422 c 128,-1,7
 885 1319 885 1319 885 1167 c 0,8,9
 885 1112 885 1112 868.5 1061 c 128,-1,10
 852 1010 852 1010 830.5 974.5 c 128,-1,11
 809 939 809 939 766 895.5 c 128,-1,12
 723 852 723 852 694 828 c 128,-1,13
 665 804 665 804 607 759 c 128,-1,14
 549 714 549 714 523 692 c 1,15,-1
 523 445 l 2,16,17
 523 415 523 415 493.5 398.5 c 128,-1,18
 464 382 464 382 422 382 c 128,-1,19
 380 382 380 382 354 398.5 c 128,-1,20
 328 415 328 415 328 445 c 2,21,-1
 328 715 l 1,22,23
 357 741 357 741 403 777.5 c 128,-1,24
 449 814 449 814 481.5 839 c 128,-1,25
 514 864 514 864 552 901 c 128,-1,26
 590 938 590 938 613 972 c 128,-1,27
 636 1006 636 1006 652 1051.5 c 128,-1,28
 668 1097 668 1097 668 1147 c 0,29,30
 668 1249 668 1249 605 1310 c 128,-1,31
 542 1371 542 1371 439 1371 c 0,32,33
 357 1371 357 1371 315 1360 c 1,34,35
 338 1320 338 1320 338 1274 c 0,36,37
 338 1213 338 1213 297.5 1173.5 c 128,-1,38
 257 1134 257 1134 197 1134 c 0,39,40
 138 1134 138 1134 98 1173.5 c 128,-1,41
 58 1213 58 1213 58 1274 c 0,0,1
283 120 m 0,42,43
 283 178 283 178 323.5 218.5 c 128,-1,44
 364 259 364 259 422 259 c 0,45,46
 481 259 481 259 522 218.5 c 128,-1,47
 563 178 563 178 563 120 c 0,48,49
 563 59 563 59 522.5 19.5 c 128,-1,50
 482 -20 482 -20 422 -20 c 0,51,52
 363 -20 363 -20 323 19.5 c 128,-1,53
 283 59 283 59 283 120 c 0,42,43
EndSplineSet
EndChar

StartChar: at
Encoding: 64 64 23
Width: 1972
Flags: MW
HStem: -350 150<772.5 1077 772.5 1098> -20 154<883 964> -11 141<1406.5 1482 1406.5 1506.5> 870 154<937 1011.5> 1201 154<801 1213.5>
VStem: 140 165<260 691 260 728> 532 205<373 652.5 373 668> 1174 195<234 766> 1670 162<397 716>
LayerCount: 2
Fore
SplineSet
1433 130 m 0,0,1
 1517 130 1517 130 1593.5 238.5 c 128,-1,2
 1670 347 1670 347 1670 529 c 0,3,4
 1670 670 1670 670 1624.5 792 c 128,-1,5
 1579 914 1579 914 1495.5 1005 c 128,-1,6
 1412 1096 1412 1096 1284.5 1148.5 c 128,-1,7
 1157 1201 1157 1201 1002 1201 c 0,8,9
 851 1201 851 1201 723.5 1151 c 128,-1,10
 596 1101 596 1101 503 1007.5 c 128,-1,11
 410 914 410 914 357.5 770.5 c 128,-1,12
 305 627 305 627 305 448 c 0,13,14
 305 163 305 163 489.5 -18.5 c 128,-1,15
 674 -200 674 -200 977 -200 c 0,16,17
 1243 -200 1243 -200 1420 -84 c 1,18,19
 1448 -96 1448 -96 1474.5 -133 c 128,-1,20
 1501 -170 1501 -170 1507 -202 c 1,21,22
 1289 -350 1289 -350 984 -350 c 0,23,24
 729 -350 729 -350 539.5 -256.5 c 128,-1,25
 350 -163 350 -163 245 20.5 c 128,-1,26
 140 204 140 204 140 459 c 0,27,28
 140 618 140 618 183 758.5 c 128,-1,29
 226 899 226 899 304 1007 c 128,-1,30
 382 1115 382 1115 488.5 1194 c 128,-1,31
 595 1273 595 1273 726.5 1314 c 128,-1,32
 858 1355 858 1355 1002 1355 c 0,33,34
 1188 1355 1188 1355 1344 1292 c 128,-1,35
 1500 1229 1500 1229 1606.5 1118.5 c 128,-1,36
 1713 1008 1713 1008 1772.5 856 c 128,-1,37
 1832 704 1832 704 1832 529 c 0,38,39
 1832 382 1832 382 1774 259 c 128,-1,40
 1716 136 1716 136 1609.5 62.5 c 128,-1,41
 1503 -11 1503 -11 1371 -11 c 0,42,43
 1298 -11 1298 -11 1261 11 c 128,-1,44
 1224 33 1224 33 1204 85 c 1,45,46
 1152 44 1152 44 1070 12 c 128,-1,47
 988 -20 988 -20 898 -20 c 0,48,49
 532 -20 532 -20 532 512 c 0,50,51
 532 626 532 626 569 723 c 128,-1,52
 606 820 606 820 669.5 885.5 c 128,-1,53
 733 951 733 951 817.5 987.5 c 128,-1,54
 902 1024 902 1024 996 1024 c 0,55,56
 1045 1024 1045 1024 1117.5 1011.5 c 128,-1,57
 1190 999 1190 999 1234 987 c 1,58,-1
 1274 1038 l 1,59,60
 1282 1040 1282 1040 1301 1040 c 0,61,62
 1339 1040 1339 1040 1375 1022.5 c 128,-1,63
 1411 1005 1411 1005 1424 981 c 1,64,-1
 1369 766 l 1,65,-1
 1369 196 l 2,66,67
 1369 155 1369 155 1381 142.5 c 128,-1,68
 1393 130 1393 130 1433 130 c 0,0,1
1174 234 m 1,69,-1
 1174 805 l 1,70,71
 1092 870 1092 870 986 870 c 0,72,73
 945 870 945 870 905 853 c 128,-1,74
 865 836 865 836 825.5 798 c 128,-1,75
 786 760 786 760 761.5 685.5 c 128,-1,76
 737 611 737 611 737 510 c 0,77,78
 737 316 737 316 792.5 225 c 128,-1,79
 848 134 848 134 939 134 c 0,80,81
 978 134 978 134 1014 143 c 128,-1,82
 1050 152 1050 152 1082.5 170.5 c 128,-1,83
 1115 189 1115 189 1130.5 200.5 c 128,-1,84
 1146 212 1146 212 1174 234 c 1,69,-1
EndSplineSet
EndChar

StartChar: A
Encoding: 65 65 24
Width: 1493
Flags: MW
HStem: 0 141<28 87 42.5 87 313 475 948 1002 1327 1431> 499 154<511 900 511 959 452 900> 1485 20G<680 680 794 794>
VStem: 14 1456<64 75>
LayerCount: 2
Fore
SplineSet
794 1505 m 2,0,-1
 1327 141 l 1,1,-1
 1444 141 l 2,2,3
 1470 141 1470 141 1470 81 c 0,4,5
 1470 51 1470 51 1460 25.5 c 128,-1,6
 1450 0 1450 0 1431 0 c 2,7,-1
 946 0 l 2,8,9
 921 0 921 0 921 55 c 0,10,11
 921 86 921 86 932 113.5 c 128,-1,12
 943 141 943 141 962 141 c 0,13,14
 1086 141 1086 141 1086 165 c 0,15,16
 1086 166 1086 166 1078 190 c 1,17,-1
 959 499 l 1,18,-1
 452 499 l 1,19,-1
 313 141 l 1,20,-1
 485 141 l 2,21,22
 511 141 511 141 511 83 c 0,23,24
 511 53 511 53 501.5 26.5 c 128,-1,25
 492 0 492 0 475 0 c 2,26,-1
 39 0 l 2,27,28
 14 0 14 0 14 57 c 0,29,30
 14 87 14 87 25.5 114 c 128,-1,31
 37 141 37 141 55 141 c 0,32,33
 148 141 148 141 171 198 c 2,34,-1
 680 1505 l 2,35,36
 688 1525 688 1525 735 1525 c 0,37,38
 787 1525 787 1525 794 1505 c 2,0,-1
707 1157 m 1,39,-1
 511 653 l 1,40,-1
 900 653 l 1,41,-1
 707 1157 l 1,39,-1
EndSplineSet
EndChar

StartChar: B
Encoding: 66 66 25
Width: 1370
Flags: MW
HStem: -10 154<664.5 794 609.5 870.5> 0 141<108.5 200.5 128.5 200.5 128.5 423> 733 154<498 602 498 651> 1351 154<498 610 610 633.5> 1364 141<97.5 111 111 274>
VStem: 287 211<245.5 298 298 733 887 1348 1348 1351> 920 233<1058 1221.5> 1012 233<324 538.5 306 539>
LayerCount: 2
Fore
SplineSet
423 0 m 2,0,-1
 121 0 l 2,1,2
 96 0 96 0 96 57 c 0,3,4
 96 88 96 88 109.5 114.5 c 128,-1,5
 123 141 123 141 139 141 c 0,6,7
 227 141 227 141 257 150.5 c 128,-1,8
 287 160 287 160 287 184 c 2,9,-1
 287 1348 l 2,10,11
 287 1364 287 1364 274 1364 c 2,12,-1
 111 1364 l 2,13,14
 92 1364 92 1364 81 1390 c 128,-1,15
 70 1416 70 1416 70 1446 c 0,16,17
 70 1505 70 1505 96 1505 c 2,18,-1
 610 1505 l 2,19,20
 1153 1505 1153 1505 1153 1137 c 0,21,22
 1153 1023 1153 1023 1073.5 934.5 c 128,-1,23
 994 846 994 846 877 814 c 1,24,25
 1047 790 1047 790 1146 689.5 c 128,-1,26
 1245 589 1245 589 1245 438 c 0,27,28
 1245 232 1245 232 1102 111 c 128,-1,29
 959 -10 959 -10 674 -10 c 0,30,31
 661 -10 661 -10 597 -6 c 0,32,33
 503 0 503 0 423 0 c 2,0,-1
498 298 m 2,34,35
 498 218 498 218 538.5 181 c 128,-1,36
 579 144 579 144 674 144 c 0,37,38
 858 144 858 144 935 207.5 c 128,-1,39
 1012 271 1012 271 1012 437 c 0,40,41
 1012 510 1012 510 976 568.5 c 128,-1,42
 940 627 940 627 880 662 c 128,-1,43
 820 697 820 697 749 715 c 128,-1,44
 678 733 678 733 602 733 c 2,45,-1
 498 733 l 1,46,-1
 498 298 l 2,34,35
498 887 m 1,47,-1
 651 887 l 2,48,49
 706 887 706 887 751 898 c 128,-1,50
 796 909 796 909 835.5 934 c 128,-1,51
 875 959 875 959 897.5 1006 c 128,-1,52
 920 1053 920 1053 920 1118 c 0,53,54
 920 1179 920 1179 901 1221.5 c 128,-1,55
 882 1264 882 1264 850.5 1289.5 c 128,-1,56
 819 1315 819 1315 762.5 1328.5 c 128,-1,57
 706 1342 706 1342 647 1346.5 c 128,-1,58
 588 1351 588 1351 498 1351 c 1,59,-1
 498 887 l 1,47,-1
EndSplineSet
EndChar

StartChar: C
Encoding: 67 67 26
Width: 1210
Flags: MW
HStem: -20 165<638.5 852.5> 1371 154<650.5 809>
VStem: 110 233<593.5 988 593.5 1001> 911 307<1197 1264>
LayerCount: 2
Fore
SplineSet
1065 1087 m 128,-1,1
 1000 1087 1000 1087 955.5 1131 c 128,-1,2
 911 1175 911 1175 911 1241 c 0,3,4
 911 1293 911 1293 933 1335 c 1,5,6
 872 1371 872 1371 775 1371 c 0,7,8
 586 1371 586 1371 464.5 1219.5 c 128,-1,9
 343 1068 343 1068 343 823 c 0,10,11
 343 485 343 485 455 315 c 128,-1,12
 567 145 567 145 774 145 c 0,13,14
 821 145 821 145 863.5 152.5 c 128,-1,15
 906 160 906 160 942.5 176 c 128,-1,16
 979 192 979 192 1001.5 204 c 128,-1,17
 1024 216 1024 216 1056 237 c 128,-1,18
 1088 258 1088 258 1098 264 c 0,19,20
 1106 268 1106 268 1116 268 c 0,21,22
 1141 268 1141 268 1168.5 231 c 128,-1,23
 1196 194 1196 194 1196 165 c 0,24,25
 1196 142 1196 142 1180 127 c 0,26,27
 1120 74 1120 74 1005 27 c 128,-1,28
 890 -20 890 -20 733 -20 c 0,29,30
 604 -20 604 -20 493.5 25.5 c 128,-1,31
 383 71 383 71 296 161 c 128,-1,32
 209 251 209 251 159.5 398 c 128,-1,33
 110 545 110 545 110 734 c 0,34,35
 110 929 110 929 161.5 1082 c 128,-1,36
 213 1235 213 1235 304.5 1330.5 c 128,-1,37
 396 1426 396 1426 517.5 1475.5 c 128,-1,38
 639 1525 639 1525 785 1525 c 0,39,40
 884 1525 884 1525 981.5 1492 c 128,-1,41
 1079 1459 1079 1459 1148.5 1391.5 c 128,-1,42
 1218 1324 1218 1324 1218 1241 c 0,43,44
 1218 1175 1218 1175 1174 1131 c 128,-1,0
 1130 1087 1130 1087 1065 1087 c 128,-1,1
EndSplineSet
EndChar

StartChar: D
Encoding: 68 68 27
Width: 1520
Flags: MW
HStem: 0 141<114 199.5 129 199.5 129 678> 0 154<498 645 645 678> 1351 154<498 498 498 670> 1364 141<96.5 111 111 275>
VStem: 287 211<184 1350 1350 1351 154 1354> 1177 233<529.5 933>
LayerCount: 2
Fore
SplineSet
678 0 m 2,0,-1
 125 0 l 2,1,2
 98 0 98 0 98 57 c 0,3,4
 98 85 98 85 111 113 c 128,-1,5
 124 141 124 141 139 141 c 0,6,7
 226 141 226 141 256.5 150.5 c 128,-1,8
 287 160 287 160 287 184 c 2,9,-1
 287 1350 l 2,10,11
 287 1364 287 1364 275 1364 c 2,12,-1
 111 1364 l 2,13,14
 91 1364 91 1364 80.5 1388.5 c 128,-1,15
 70 1413 70 1413 70 1442 c 0,16,17
 70 1505 70 1505 96 1505 c 2,18,-1
 678 1505 l 2,19,20
 880 1505 880 1505 1021.5 1458 c 128,-1,21
 1163 1411 1163 1411 1248 1314 c 128,-1,22
 1333 1217 1333 1217 1371.5 1081.5 c 128,-1,23
 1410 946 1410 946 1410 758 c 0,24,25
 1410 600 1410 600 1368.5 471 c 128,-1,26
 1327 342 1327 342 1257.5 256 c 128,-1,27
 1188 170 1188 170 1093 111 c 128,-1,28
 998 52 998 52 894.5 26 c 128,-1,29
 791 0 791 0 678 0 c 2,0,-1
498 1351 m 1,30,-1
 498 154 l 1,31,-1
 645 154 l 2,32,33
 724 154 724 154 800 175.5 c 128,-1,34
 876 197 876 197 944.5 243 c 128,-1,35
 1013 289 1013 289 1064.5 355 c 128,-1,36
 1116 421 1116 421 1146.5 516 c 128,-1,37
 1177 611 1177 611 1177 723 c 0,38,39
 1177 1034 1177 1034 1045.5 1192.5 c 128,-1,40
 914 1351 914 1351 670 1351 c 2,41,-1
 498 1351 l 1,30,-1
EndSplineSet
EndChar

StartChar: E
Encoding: 69 69 28
Width: 1239
Flags: MW
HStem: 0 141<53 140.5 67.5 140.5 67.5 1085> 0 154<438 968 438 1085> 694 154<438 692 692 722.5 438 757 438 692> 1002 20G<806.5 837.5> 1351 154<438 831 438 438> 1364 141<36.5 51 51 215>
VStem: 227 211<184 694 848 1350 1350 1351> 757 144<543 557 557 694 694 694> 995 141<1202.5 1214 1214 1253.5>
LayerCount: 2
Fore
SplineSet
1085 0 m 1,0,-1
 65 0 l 2,1,2
 38 0 38 0 38 59 c 0,3,4
 38 88 38 88 50 114.5 c 128,-1,5
 62 141 62 141 79 141 c 0,6,7
 167 141 167 141 197 150.5 c 128,-1,8
 227 160 227 160 227 184 c 2,9,-1
 227 1350 l 2,10,11
 227 1364 227 1364 215 1364 c 2,12,-1
 51 1364 l 2,13,14
 31 1364 31 1364 20.5 1388.5 c 128,-1,15
 10 1413 10 1413 10 1442 c 0,16,17
 10 1505 10 1505 36 1505 c 2,18,-1
 1136 1505 l 1,19,-1
 1136 1214 l 2,20,21
 1136 1198 1136 1198 1111 1189 c 128,-1,22
 1086 1180 1086 1180 1058 1180 c 0,23,24
 995 1180 995 1180 995 1202 c 0,25,26
 995 1245 995 1245 990 1269.5 c 128,-1,27
 985 1294 985 1294 968.5 1314.5 c 128,-1,28
 952 1335 952 1335 919 1343 c 128,-1,29
 886 1351 886 1351 831 1351 c 2,30,-1
 438 1351 l 1,31,-1
 438 848 l 1,32,-1
 692 848 l 2,33,34
 737 848 737 848 748 874.5 c 128,-1,35
 759 901 759 901 759 999 c 0,36,37
 759 1022 759 1022 819 1022 c 0,38,39
 850 1022 850 1022 875.5 1012 c 128,-1,40
 901 1002 901 1002 901 985 c 2,41,-1
 901 557 l 2,42,43
 901 536 901 536 879.5 526 c 128,-1,44
 858 516 858 516 829 516 c 0,45,46
 757 516 757 516 757 543 c 2,47,-1
 757 694 l 1,48,-1
 438 694 l 1,49,-1
 438 154 l 1,50,-1
 968 154 l 1,51,-1
 1044 303 l 2,52,53
 1053 322 1053 322 1095 322 c 0,54,55
 1126 322 1126 322 1152 310.5 c 128,-1,56
 1178 299 1178 299 1178 281 c 0,57,58
 1178 276 1178 276 1177 274 c 2,59,-1
 1085 0 l 1,0,-1
EndSplineSet
EndChar

StartChar: F
Encoding: 70 70 29
Width: 1237
Flags: MW
HStem: 0 141<113 200.5 127.5 200.5 498 698> 694 154<498 752 752 782.5 498 817 498 752> 1002 20G<866.5 897.5> 1351 154<498 891 498 498> 1364 141<96.5 111 111 275>
VStem: 287 211<184 694 848 1350 1350 1351> 817 144<543 557 557 694 694 694> 1055 141<1202.5 1214 1214 1253.5>
LayerCount: 2
Fore
SplineSet
498 141 m 1,0,-1
 713 141 l 2,1,2
 739 141 739 141 739 80 c 0,3,4
 739 52 739 52 728.5 26 c 128,-1,5
 718 0 718 0 698 0 c 2,6,-1
 125 0 l 2,7,8
 98 0 98 0 98 59 c 0,9,10
 98 88 98 88 110 114.5 c 128,-1,11
 122 141 122 141 139 141 c 0,12,13
 227 141 227 141 257 150.5 c 128,-1,14
 287 160 287 160 287 184 c 2,15,-1
 287 1350 l 2,16,17
 287 1364 287 1364 275 1364 c 2,18,-1
 111 1364 l 2,19,20
 91 1364 91 1364 80.5 1388.5 c 128,-1,21
 70 1413 70 1413 70 1442 c 0,22,23
 70 1505 70 1505 96 1505 c 2,24,-1
 1196 1505 l 1,25,-1
 1196 1214 l 2,26,27
 1196 1198 1196 1198 1171 1189 c 128,-1,28
 1146 1180 1146 1180 1118 1180 c 0,29,30
 1055 1180 1055 1180 1055 1202 c 0,31,32
 1055 1245 1055 1245 1050 1269.5 c 128,-1,33
 1045 1294 1045 1294 1028.5 1314.5 c 128,-1,34
 1012 1335 1012 1335 979 1343 c 128,-1,35
 946 1351 946 1351 891 1351 c 2,36,-1
 498 1351 l 1,37,-1
 498 848 l 1,38,-1
 752 848 l 2,39,40
 797 848 797 848 808 874.5 c 128,-1,41
 819 901 819 901 819 999 c 0,42,43
 819 1022 819 1022 879 1022 c 0,44,45
 910 1022 910 1022 935.5 1012 c 128,-1,46
 961 1002 961 1002 961 985 c 2,47,-1
 961 557 l 2,48,49
 961 536 961 536 939.5 526 c 128,-1,50
 918 516 918 516 889 516 c 0,51,52
 817 516 817 516 817 543 c 2,53,-1
 817 694 l 1,54,-1
 498 694 l 1,55,-1
 498 141 l 1,0,-1
EndSplineSet
EndChar

StartChar: G
Encoding: 71 71 30
Width: 1372
Flags: MW
HStem: -20 165<636.5 821 636.5 865> 491 141<807.5 821 821 984 1208 1208 1208 1279> 1371 154<650.5 807.5>
VStem: 110 233<593.5 988 593.5 1001> 936 307<1197 1264.5> 997 211<186 475 475 478>
LayerCount: 2
Fore
SplineSet
1208 147 m 1,0,1
 1172 116 1172 116 1137.5 92.5 c 128,-1,2
 1103 69 1103 69 1044.5 40.5 c 128,-1,3
 986 12 986 12 906 -4 c 128,-1,4
 826 -20 826 -20 731 -20 c 0,5,6
 606 -20 606 -20 492.5 34.5 c 128,-1,7
 379 89 379 89 294.5 185.5 c 128,-1,8
 210 282 210 282 160 425 c 128,-1,9
 110 568 110 568 110 734 c 0,10,11
 110 929 110 929 161 1082 c 128,-1,12
 212 1235 212 1235 303 1330.5 c 128,-1,13
 394 1426 394 1426 515.5 1475.5 c 128,-1,14
 637 1525 637 1525 783 1525 c 0,15,16
 902 1525 902 1525 1006 1491.5 c 128,-1,17
 1110 1458 1110 1458 1176.5 1392 c 128,-1,18
 1243 1326 1243 1326 1243 1241 c 0,19,20
 1243 1175 1243 1175 1199 1131 c 128,-1,21
 1155 1087 1155 1087 1090 1087 c 128,-1,22
 1025 1087 1025 1087 980.5 1131 c 128,-1,23
 936 1175 936 1175 936 1241 c 0,24,25
 936 1298 936 1298 952 1336 c 1,26,27
 874 1371 874 1371 775 1371 c 0,28,29
 586 1371 586 1371 464.5 1219.5 c 128,-1,30
 343 1068 343 1068 343 823 c 0,31,32
 343 484 343 484 454 314.5 c 128,-1,33
 565 145 565 145 772 145 c 0,34,35
 893 145 893 145 997 186 c 1,36,-1
 997 475 l 2,37,38
 997 491 997 491 984 491 c 2,39,-1
 821 491 l 2,40,41
 802 491 802 491 791 517 c 128,-1,42
 780 543 780 543 780 573 c 0,43,44
 780 632 780 632 806 632 c 2,45,-1
 1289 632 l 2,46,47
 1314 632 1314 632 1314 567 c 0,48,49
 1314 536 1314 536 1305 513.5 c 128,-1,50
 1296 491 1296 491 1279 491 c 2,51,-1
 1208 491 l 1,52,-1
 1208 147 l 1,0,1
EndSplineSet
EndChar

StartChar: H
Encoding: 72 72 31
Width: 1604
Flags: MW
HStem: 0 141<107.5 200.5 128.5 200.5 498 651 950 1022 1319 1473> 694 154<498 1108 498 1108> 1364 141<97.5 111 111 274 498 498 498 678 918.5 932 932 1096 1319 1319 1319 1499>
VStem: 287 211<184 694 848 1348 1348 1351> 1108 211<184 694 694 694 848 1348 1348 1351>
LayerCount: 2
Fore
SplineSet
119 0 m 2,0,1
 96 0 96 0 96 57 c 0,2,3
 96 88 96 88 109.5 114.5 c 128,-1,4
 123 141 123 141 139 141 c 0,5,6
 227 141 227 141 257 150.5 c 128,-1,7
 287 160 287 160 287 184 c 2,8,-1
 287 1348 l 2,9,10
 287 1364 287 1364 274 1364 c 2,11,-1
 111 1364 l 2,12,13
 92 1364 92 1364 81 1389 c 128,-1,14
 70 1414 70 1414 70 1444 c 0,15,16
 70 1467 70 1467 76.5 1486 c 128,-1,17
 83 1505 83 1505 96 1505 c 2,18,-1
 688 1505 l 2,19,20
 713 1505 713 1505 713 1440 c 0,21,22
 713 1409 713 1409 704 1386.5 c 128,-1,23
 695 1364 695 1364 678 1364 c 2,24,-1
 498 1364 l 1,25,-1
 498 848 l 1,26,-1
 1108 848 l 1,27,-1
 1108 1348 l 2,28,29
 1108 1364 1108 1364 1096 1364 c 2,30,-1
 932 1364 l 2,31,32
 913 1364 913 1364 902 1389 c 128,-1,33
 891 1414 891 1414 891 1444 c 0,34,35
 891 1467 891 1467 897.5 1486 c 128,-1,36
 904 1505 904 1505 918 1505 c 2,37,-1
 1509 1505 l 2,38,39
 1534 1505 1534 1505 1534 1440 c 0,40,41
 1534 1409 1534 1409 1525 1386.5 c 128,-1,42
 1516 1364 1516 1364 1499 1364 c 2,43,-1
 1319 1364 l 1,44,-1
 1319 141 l 1,45,-1
 1487 141 l 2,46,47
 1514 141 1514 141 1514 80 c 0,48,49
 1514 52 1514 52 1503 26 c 128,-1,50
 1492 0 1492 0 1473 0 c 2,51,-1
 942 0 l 2,52,53
 918 0 918 0 918 57 c 0,54,55
 918 88 918 88 931.5 114.5 c 128,-1,56
 945 141 945 141 961 141 c 0,57,58
 1049 141 1049 141 1078.5 150.5 c 128,-1,59
 1108 160 1108 160 1108 184 c 2,60,-1
 1108 694 l 1,61,-1
 498 694 l 1,62,-1
 498 141 l 1,63,-1
 666 141 l 2,64,65
 692 141 692 141 692 80 c 0,66,67
 692 52 692 52 681.5 26 c 128,-1,68
 671 0 671 0 651 0 c 2,69,-1
 119 0 l 2,0,1
EndSplineSet
EndChar

StartChar: I
Encoding: 73 73 32
Width: 783
Flags: MW
HStem: 0 141<107.5 200.5 128.5 200.5 498 651> 1364 141<97.5 111 111 274 498 498 498 678>
VStem: 287 211<184 1348 1348 1351>
LayerCount: 2
Fore
SplineSet
119 0 m 2,0,1
 96 0 96 0 96 57 c 0,2,3
 96 88 96 88 109.5 114.5 c 128,-1,4
 123 141 123 141 139 141 c 0,5,6
 227 141 227 141 257 150.5 c 128,-1,7
 287 160 287 160 287 184 c 2,8,-1
 287 1348 l 2,9,10
 287 1364 287 1364 274 1364 c 2,11,-1
 111 1364 l 2,12,13
 92 1364 92 1364 81 1390 c 128,-1,14
 70 1416 70 1416 70 1446 c 0,15,16
 70 1505 70 1505 96 1505 c 2,17,-1
 688 1505 l 2,18,19
 713 1505 713 1505 713 1440 c 0,20,21
 713 1409 713 1409 704 1386.5 c 128,-1,22
 695 1364 695 1364 678 1364 c 2,23,-1
 498 1364 l 1,24,-1
 498 141 l 1,25,-1
 666 141 l 2,26,27
 692 141 692 141 692 80 c 0,28,29
 692 52 692 52 681.5 26 c 128,-1,30
 671 0 671 0 651 0 c 2,31,-1
 119 0 l 2,0,1
EndSplineSet
EndChar

StartChar: J
Encoding: 74 74 33
Width: 750
Flags: MW
HStem: -440 21G<61.5 233.5> -440 276<61.5 125 61.5 233.5> 1364 141<99.5 113 113 276 500 680 500 500>
VStem: 72 145 289 211<0 68 68 1348 1348 1351>
LayerCount: 2
Fore
SplineSet
500 1364 m 1,0,-1
 500 68 l 2,1,2
 500 -1 500 -1 484.5 -71.5 c 128,-1,3
 469 -142 469 -142 436 -208.5 c 128,-1,4
 403 -275 403 -275 356.5 -326.5 c 128,-1,5
 310 -378 310 -378 243.5 -409 c 128,-1,6
 177 -440 177 -440 100 -440 c 0,7,8
 42 -440 42 -440 2.5 -401 c 128,-1,9
 -37 -362 -37 -362 -37 -303 c 0,10,11
 -37 -243 -37 -243 2.5 -203.5 c 128,-1,12
 42 -164 42 -164 100 -164 c 0,13,14
 136 -164 136 -164 167 -182.5 c 128,-1,15
 198 -201 198 -201 217 -231 c 1,16,17
 289 -188 289 -188 289 0 c 2,18,-1
 289 1348 l 2,19,20
 289 1364 289 1364 276 1364 c 2,21,-1
 113 1364 l 2,22,23
 94 1364 94 1364 83 1390 c 128,-1,24
 72 1416 72 1416 72 1446 c 0,25,26
 72 1505 72 1505 98 1505 c 2,27,-1
 690 1505 l 2,28,29
 715 1505 715 1505 715 1440 c 0,30,31
 715 1409 715 1409 706 1386.5 c 128,-1,32
 697 1364 697 1364 680 1364 c 2,33,-1
 500 1364 l 1,0,-1
EndSplineSet
EndChar

StartChar: K
Encoding: 75 75 34
Width: 1502
Flags: MW
HStem: 0 141<108.5 200.5 128.5 200.5 498 651 1409.5 1441> 1364 141<97.5 111 111 274 498 498 498 626 968 1090 1357 1401.5>
VStem: 287 211<184 1348 1348 1351>
LayerCount: 2
Fore
SplineSet
119 0 m 2,0,1
 96 0 96 0 96 57 c 0,2,3
 96 88 96 88 109.5 114.5 c 128,-1,4
 123 141 123 141 139 141 c 0,5,6
 227 141 227 141 257 150.5 c 128,-1,7
 287 160 287 160 287 184 c 2,8,-1
 287 1348 l 2,9,10
 287 1364 287 1364 274 1364 c 2,11,-1
 111 1364 l 2,12,13
 92 1364 92 1364 81 1390 c 128,-1,14
 70 1416 70 1416 70 1446 c 0,15,16
 70 1505 70 1505 96 1505 c 2,17,-1
 636 1505 l 2,18,19
 661 1505 661 1505 661 1440 c 0,20,21
 661 1409 661 1409 652 1386.5 c 128,-1,22
 643 1364 643 1364 626 1364 c 2,23,-1
 498 1364 l 1,24,-1
 498 141 l 1,25,-1
 666 141 l 2,26,27
 692 141 692 141 692 80 c 0,28,29
 692 52 692 52 681.5 26 c 128,-1,30
 671 0 671 0 651 0 c 2,31,-1
 119 0 l 2,0,1
1096 102 m 2,32,-1
 565 796 l 1,33,-1
 1090 1364 l 1,34,-1
 958 1364 l 2,35,36
 932 1364 932 1364 932 1422 c 0,37,38
 932 1452 932 1452 941.5 1478.5 c 128,-1,39
 951 1505 951 1505 968 1505 c 2,40,-1
 1405 1505 l 2,41,42
 1430 1505 1430 1505 1430 1448 c 0,43,44
 1430 1418 1430 1418 1418.5 1391 c 128,-1,45
 1407 1364 1407 1364 1389 1364 c 0,46,47
 1346 1364 1346 1364 1323 1353 c 128,-1,48
 1300 1342 1300 1342 1281 1321 c 2,49,-1
 824 803 l 1,50,-1
 1264 230 l 2,51,52
 1300 183 1300 183 1344 162 c 128,-1,53
 1388 141 1388 141 1456 141 c 0,54,55
 1480 141 1480 141 1480 76 c 0,56,57
 1480 47 1480 47 1469.5 23.5 c 128,-1,58
 1459 0 1459 0 1441 0 c 2,59,-1
 1271 0 l 2,60,61
 1224 0 1224 0 1177 29 c 128,-1,62
 1130 58 1130 58 1096 102 c 2,32,-1
EndSplineSet
EndChar

StartChar: L
Encoding: 76 76 35
Width: 1180
Flags: MW
HStem: 0 141<107.5 200.5 128.5 200.5 128.5 1085> 0 154<498 967 498 1085> 1364 141<97.5 111 111 274 498 498 498 678>
VStem: 287 211<184 1348 1348 1351>
LayerCount: 2
Fore
SplineSet
119 0 m 2,0,1
 96 0 96 0 96 59 c 0,2,3
 96 88 96 88 109.5 114.5 c 128,-1,4
 123 141 123 141 139 141 c 0,5,6
 227 141 227 141 257 150.5 c 128,-1,7
 287 160 287 160 287 184 c 2,8,-1
 287 1348 l 2,9,10
 287 1364 287 1364 274 1364 c 2,11,-1
 111 1364 l 2,12,13
 92 1364 92 1364 81 1390 c 128,-1,14
 70 1416 70 1416 70 1446 c 0,15,16
 70 1468 70 1468 76.5 1486.5 c 128,-1,17
 83 1505 83 1505 96 1505 c 2,18,-1
 688 1505 l 2,19,20
 713 1505 713 1505 713 1438 c 0,21,22
 713 1408 713 1408 704 1386 c 128,-1,23
 695 1364 695 1364 678 1364 c 2,24,-1
 498 1364 l 1,25,-1
 498 154 l 1,26,-1
 967 154 l 1,27,-1
 1044 303 l 2,28,29
 1054 322 1054 322 1094 322 c 0,30,31
 1126 322 1126 322 1152.5 310.5 c 128,-1,32
 1179 299 1179 299 1179 281 c 0,33,34
 1179 276 1179 276 1178 274 c 2,35,-1
 1085 0 l 1,36,-1
 119 0 l 2,0,1
EndSplineSet
EndChar

StartChar: M
Encoding: 77 77 36
Width: 1925
Flags: MW
HStem: 0 141<108.5 200.5 128.5 200.5 441 593 1306.5 1378.5 1676 1829> 1364 141<97.5 111 111 274 1676 1676 1676 1856>
VStem: 287 154<184 1023 141 1348> 1465 211<184 1119 1119 1119 141 1485>
LayerCount: 2
Fore
SplineSet
121 0 m 2,0,1
 96 0 96 0 96 57 c 0,2,3
 96 88 96 88 109.5 114.5 c 128,-1,4
 123 141 123 141 139 141 c 0,5,6
 227 141 227 141 257 150.5 c 128,-1,7
 287 160 287 160 287 184 c 2,8,-1
 287 1348 l 2,9,10
 287 1364 287 1364 274 1364 c 2,11,-1
 111 1364 l 2,12,13
 92 1364 92 1364 81 1390 c 128,-1,14
 70 1416 70 1416 70 1446 c 0,15,16
 70 1505 70 1505 96 1505 c 2,17,-1
 394 1505 l 2,18,19
 421 1505 421 1505 435 1476 c 2,20,-1
 984 320 l 1,21,-1
 1465 1485 l 2,22,23
 1474 1505 1474 1505 1491 1505 c 2,24,-1
 1866 1505 l 2,25,26
 1891 1505 1891 1505 1891 1440 c 0,27,28
 1891 1409 1891 1409 1882 1386.5 c 128,-1,29
 1873 1364 1873 1364 1856 1364 c 2,30,-1
 1676 1364 l 1,31,-1
 1676 141 l 1,32,-1
 1844 141 l 2,33,34
 1870 141 1870 141 1870 80 c 0,35,36
 1870 52 1870 52 1859.5 26 c 128,-1,37
 1849 0 1849 0 1829 0 c 2,38,-1
 1299 0 l 2,39,40
 1274 0 1274 0 1274 57 c 0,41,42
 1274 88 1274 88 1287.5 114.5 c 128,-1,43
 1301 141 1301 141 1317 141 c 0,44,45
 1405 141 1405 141 1435 150.5 c 128,-1,46
 1465 160 1465 160 1465 184 c 2,47,-1
 1465 1119 l 1,48,-1
 1016 0 l 1,49,50
 1004 -12 1004 -12 967 -12 c 0,51,52
 924 -12 924 -12 901 0 c 1,53,-1
 441 1023 l 1,54,-1
 441 141 l 1,55,-1
 608 141 l 2,56,57
 634 141 634 141 634 80 c 0,58,59
 634 52 634 52 623.5 26 c 128,-1,60
 613 0 613 0 593 0 c 2,61,-1
 121 0 l 2,0,1
EndSplineSet
EndChar

StartChar: N
Encoding: 78 78 37
Width: 1612
Flags: MW
HStem: 0 141<108.5 200.5 128.5 200.5 441 594> 1364 141<97.5 111 111 274 1047.5 1061 1061 1224 1391 1391 1391 1570>
VStem: 287 154<184 1127 141 1348> 1237 154<400 1348 1348 1351>
LayerCount: 2
Fore
SplineSet
1237 400 m 1,0,-1
 1237 1348 l 2,1,2
 1237 1364 1237 1364 1224 1364 c 2,3,-1
 1061 1364 l 2,4,5
 1042 1364 1042 1364 1031 1390 c 128,-1,6
 1020 1416 1020 1416 1020 1446 c 0,7,8
 1020 1505 1020 1505 1046 1505 c 2,9,-1
 1580 1505 l 2,10,11
 1605 1505 1605 1505 1605 1440 c 0,12,13
 1605 1409 1605 1409 1596 1386.5 c 128,-1,14
 1587 1364 1587 1364 1570 1364 c 2,15,-1
 1391 1364 l 1,16,-1
 1391 -2 l 2,17,18
 1391 -20 1391 -20 1317 -20 c 0,19,20
 1247 -20 1247 -20 1235 -2 c 2,21,-1
 441 1127 l 1,22,-1
 441 141 l 1,23,-1
 609 141 l 2,24,25
 622 141 622 141 629 122 c 128,-1,26
 636 103 636 103 636 80 c 0,27,28
 636 51 636 51 625.5 25.5 c 128,-1,29
 615 0 615 0 594 0 c 2,30,-1
 121 0 l 2,31,32
 96 0 96 0 96 57 c 0,33,34
 96 87 96 87 109.5 114 c 128,-1,35
 123 141 123 141 139 141 c 0,36,37
 227 141 227 141 257 150.5 c 128,-1,38
 287 160 287 160 287 184 c 2,39,-1
 287 1348 l 2,40,41
 287 1364 287 1364 274 1364 c 2,42,-1
 111 1364 l 2,43,44
 92 1364 92 1364 81 1390.5 c 128,-1,45
 70 1417 70 1417 70 1446 c 0,46,47
 70 1505 70 1505 96 1505 c 2,48,-1
 444 1505 l 1,49,-1
 1237 400 l 1,0,-1
EndSplineSet
EndChar

StartChar: O
Encoding: 79 79 38
Width: 1516
Flags: MW
HStem: -20 165<635.5 878.5 635.5 917.5> 1360 165<636 870.5>
VStem: 110 230<595.5 988 595.5 998> 1176 230<510.5 904>
LayerCount: 2
Fore
SplineSet
739 -20 m 0,0,1
 634 -20 634 -20 541 8 c 128,-1,2
 448 36 448 36 368.5 95.5 c 128,-1,3
 289 155 289 155 232 242.5 c 128,-1,4
 175 330 175 330 142.5 454.5 c 128,-1,5
 110 579 110 579 110 731 c 0,6,7
 110 927 110 927 161 1080 c 128,-1,8
 212 1233 212 1233 303 1329 c 128,-1,9
 394 1425 394 1425 515.5 1475 c 128,-1,10
 637 1525 637 1525 782 1525 c 0,11,12
 1085 1525 1085 1525 1245.5 1312.5 c 128,-1,13
 1406 1100 1406 1100 1406 716 c 0,14,15
 1406 565 1406 565 1371 441 c 128,-1,16
 1336 317 1336 317 1274.5 232.5 c 128,-1,17
 1213 148 1213 148 1128 90.5 c 128,-1,18
 1043 33 1043 33 945.5 6.5 c 128,-1,19
 848 -20 848 -20 739 -20 c 0,0,1
771 145 m 0,20,21
 856 145 856 145 926 175.5 c 128,-1,22
 996 206 996 206 1053.5 272 c 128,-1,23
 1111 338 1111 338 1143.5 454.5 c 128,-1,24
 1176 571 1176 571 1176 729 c 0,25,26
 1176 902 1176 902 1120.5 1046.5 c 128,-1,27
 1065 1191 1065 1191 966.5 1275.5 c 128,-1,28
 868 1360 868 1360 749 1360 c 0,29,30
 575 1360 575 1360 457.5 1212.5 c 128,-1,31
 340 1065 340 1065 340 823 c 0,32,33
 340 487 340 487 452 316 c 128,-1,34
 564 145 564 145 771 145 c 0,20,21
EndSplineSet
EndChar

StartChar: P
Encoding: 80 80 39
Width: 1198
Flags: MW
HStem: 0 141<108 200.5 129 200.5 498 706> 629 154<498 619.5 498 711> 1351 154<498 649.5> 1364 141<97.5 111 111 274>
VStem: 287 211<184 629 141 783 783 1349 1349 1351> 924 233<944 1179.5>
LayerCount: 2
Fore
SplineSet
120 0 m 2,0,1
 96 0 96 0 96 56 c 0,2,3
 96 87 96 87 110 114 c 128,-1,4
 124 141 124 141 139 141 c 0,5,6
 227 141 227 141 257 150.5 c 128,-1,7
 287 160 287 160 287 184 c 2,8,-1
 287 1349 l 2,9,10
 287 1364 287 1364 274 1364 c 2,11,-1
 111 1364 l 2,12,13
 92 1364 92 1364 81 1390.5 c 128,-1,14
 70 1417 70 1417 70 1446 c 0,15,16
 70 1505 70 1505 97 1505 c 2,17,-1
 653 1505 l 2,18,19
 884 1505 884 1505 1020.5 1393.5 c 128,-1,20
 1157 1282 1157 1282 1157 1090 c 0,21,22
 1157 860 1157 860 989 744.5 c 128,-1,23
 821 629 821 629 498 629 c 1,24,-1
 498 141 l 1,25,-1
 721 141 l 2,26,27
 747 141 747 141 747 80 c 0,28,29
 747 51 747 51 736.5 25.5 c 128,-1,30
 726 0 726 0 706 0 c 2,31,-1
 120 0 l 2,0,1
498 1351 m 1,32,-1
 498 783 l 1,33,34
 577 783 577 783 636 789 c 128,-1,35
 695 795 695 795 752 813 c 128,-1,36
 809 831 809 831 845 861.5 c 128,-1,37
 881 892 881 892 902.5 943 c 128,-1,38
 924 994 924 994 924 1064 c 0,39,40
 924 1151 924 1151 901 1206.5 c 128,-1,41
 878 1262 878 1262 824 1294 c 128,-1,42
 770 1326 770 1326 693.5 1338.5 c 128,-1,43
 617 1351 617 1351 498 1351 c 1,32,-1
EndSplineSet
EndChar

StartChar: Q
Encoding: 81 81 40
Width: 1515
Flags: MW
HStem: -439 154<1303 1438.5 1303 1452.5> -20 165<635.5 739 739 747> 1360 165<636 870.5>
VStem: 110 230<595.5 988 595.5 998> 1176 230<524 904>
LayerCount: 2
Fore
SplineSet
739 -20 m 2,0,1
 607 -20 607 -20 495 25.5 c 128,-1,2
 383 71 383 71 296 160.5 c 128,-1,3
 209 250 209 250 159.5 396.5 c 128,-1,4
 110 543 110 543 110 731 c 0,5,6
 110 927 110 927 161 1080 c 128,-1,7
 212 1233 212 1233 303 1329 c 128,-1,8
 394 1425 394 1425 515.5 1475 c 128,-1,9
 637 1525 637 1525 782 1525 c 0,10,11
 1085 1525 1085 1525 1245.5 1312.5 c 128,-1,12
 1406 1100 1406 1100 1406 716 c 0,13,14
 1406 441 1406 441 1297 268 c 128,-1,15
 1188 95 1188 95 1003 25 c 1,16,17
 1039 -42 1039 -42 1076.5 -94 c 128,-1,18
 1114 -146 1114 -146 1162.5 -191 c 128,-1,19
 1211 -236 1211 -236 1270 -260.5 c 128,-1,20
 1329 -285 1329 -285 1395 -285 c 0,21,22
 1457 -285 1457 -285 1512.5 -265.5 c 128,-1,23
 1568 -246 1568 -246 1643 -201 c 0,24,25
 1650 -197 1650 -197 1658 -197 c 0,26,27
 1685 -197 1685 -197 1713 -231 c 128,-1,28
 1741 -265 1741 -265 1741 -299 c 0,29,30
 1741 -327 1741 -327 1718 -343 c 0,31,32
 1666 -380 1666 -380 1574 -409.5 c 128,-1,33
 1482 -439 1482 -439 1367 -439 c 0,34,35
 1281 -439 1281 -439 1201.5 -415 c 128,-1,36
 1122 -391 1122 -391 1059 -353 c 128,-1,37
 996 -315 996 -315 937 -258.5 c 128,-1,38
 878 -202 878 -202 834 -145.5 c 128,-1,39
 790 -89 790 -89 747 -20 c 1,40,-1
 739 -20 l 2,0,1
771 145 m 0,41,42
 856 145 856 145 926 175.5 c 128,-1,43
 996 206 996 206 1053.5 272 c 128,-1,44
 1111 338 1111 338 1143.5 454.5 c 128,-1,45
 1176 571 1176 571 1176 729 c 0,46,47
 1176 902 1176 902 1120.5 1046.5 c 128,-1,48
 1065 1191 1065 1191 966.5 1275.5 c 128,-1,49
 868 1360 868 1360 749 1360 c 0,50,51
 575 1360 575 1360 457.5 1212.5 c 128,-1,52
 340 1065 340 1065 340 823 c 0,53,54
 340 487 340 487 452 316 c 128,-1,55
 564 145 564 145 771 145 c 0,41,42
EndSplineSet
EndChar

StartChar: R
Encoding: 82 82 41
Width: 1378
Flags: MW
HStem: 0 141<108 200.5 129 200.5 498 706 1291.5 1323> 629 154<498 525> 1351 154<498 649.5> 1364 141<97.5 111 111 274>
VStem: 287 211<184 629 141 783 783 1349 1349 1351> 640 722 924 233<987.5 1179.5>
LayerCount: 2
Fore
SplineSet
120 0 m 2,0,1
 96 0 96 0 96 56 c 0,2,3
 96 87 96 87 110 114 c 128,-1,4
 124 141 124 141 139 141 c 0,5,6
 227 141 227 141 257 150.5 c 128,-1,7
 287 160 287 160 287 184 c 2,8,-1
 287 1349 l 2,9,10
 287 1364 287 1364 274 1364 c 2,11,-1
 111 1364 l 2,12,13
 92 1364 92 1364 81 1390.5 c 128,-1,14
 70 1417 70 1417 70 1446 c 0,15,16
 70 1505 70 1505 97 1505 c 2,17,-1
 653 1505 l 2,18,19
 884 1505 884 1505 1020.5 1393.5 c 128,-1,20
 1157 1282 1157 1282 1157 1090 c 0,21,22
 1157 787 1157 787 863 681 c 1,23,-1
 866 682 l 1,24,-1
 1146 230 l 2,25,26
 1175 182 1175 182 1221 161.5 c 128,-1,27
 1267 141 1267 141 1338 141 c 0,28,29
 1362 141 1362 141 1362 76 c 0,30,31
 1362 47 1362 47 1351.5 23.5 c 128,-1,32
 1341 0 1341 0 1323 0 c 2,33,-1
 1153 0 l 2,34,35
 1104 0 1104 0 1055 28.5 c 128,-1,36
 1006 57 1006 57 978 102 c 2,37,-1
 650 636 l 1,38,39
 583 629 583 629 498 629 c 1,40,-1
 498 141 l 1,41,-1
 721 141 l 2,42,43
 747 141 747 141 747 80 c 0,44,45
 747 51 747 51 736.5 25.5 c 128,-1,46
 726 0 726 0 706 0 c 2,47,-1
 120 0 l 2,0,1
498 1351 m 1,48,-1
 498 783 l 1,49,50
 577 783 577 783 636 789 c 128,-1,51
 695 795 695 795 752 813 c 128,-1,52
 809 831 809 831 845 861.5 c 128,-1,53
 881 892 881 892 902.5 943 c 128,-1,54
 924 994 924 994 924 1064 c 0,55,56
 924 1151 924 1151 901 1206.5 c 128,-1,57
 878 1262 878 1262 824 1294 c 128,-1,58
 770 1326 770 1326 693.5 1338.5 c 128,-1,59
 617 1351 617 1351 498 1351 c 1,48,-1
EndSplineSet
EndChar

StartChar: S
Encoding: 83 83 42
Width: 1094
Flags: MW
HStem: -20 154<482 610 482 682> 1371 154<506 624.5>
VStem: 51 307<240.5 304 240.5 304> 86 211<1093.5 1222.5 1093.5 1277> 723 307<1197 1263> 833 211<303.5 441.5>
LayerCount: 2
Fore
SplineSet
877 1087 m 128,-1,1
 812 1087 812 1087 767.5 1131 c 128,-1,2
 723 1175 723 1175 723 1241 c 0,3,4
 723 1293 723 1293 752 1335 c 1,5,6
 691 1371 691 1371 594 1371 c 0,7,8
 459 1371 459 1371 378 1313.5 c 128,-1,9
 297 1256 297 1256 297 1151 c 0,10,11
 297 1110 297 1110 314 1077.5 c 128,-1,12
 331 1045 331 1045 387 1006.5 c 128,-1,13
 443 968 443 968 476.5 949.5 c 128,-1,14
 510 931 510 931 613.794 878.625 c 0,15,16
 620 875 620 875 623 874 c 0,17,18
 732 820 732 820 802.5 774.5 c 128,-1,19
 873 729 873 729 931.5 672 c 128,-1,20
 990 615 990 615 1017 547 c 128,-1,21
 1044 479 1044 479 1044 395 c 0,22,23
 1044 212 1044 212 900.5 96 c 128,-1,24
 757 -20 757 -20 535 -20 c 0,25,26
 459 -20 459 -20 376.5 -1.5 c 128,-1,27
 294 17 294 17 220.5 50.5 c 128,-1,28
 147 84 147 84 99 139 c 128,-1,29
 51 194 51 194 51 260 c 128,-1,30
 51 326 51 326 95.5 371 c 128,-1,31
 140 416 140 416 205 416 c 128,-1,32
 270 416 270 416 314 371 c 128,-1,33
 358 326 358 326 358 260 c 0,34,35
 358 218 358 218 330 169 c 1,36,37
 394 134 394 134 518 134 c 0,38,39
 657 134 657 134 745 201 c 128,-1,40
 833 268 833 268 833 377 c 0,41,42
 833 423 833 423 806.5 467.5 c 128,-1,43
 780 512 780 512 730.5 551 c 128,-1,44
 681 590 681 590 629 621 c 128,-1,45
 577 652 577 652 508 686 c 0,46,47
 343.145 766.335 343.145 766.335 277.151 812.327 c 0,48,49
 106.52 931.244 106.52 931.244 88.35 1101.76 c 0,50,51
 86 1123.82 86 1123.82 86 1147 c 0,52,53
 86 1241 86 1241 126.5 1315 c 128,-1,54
 167 1389 167 1389 237 1434 c 128,-1,55
 307 1479 307 1479 394.5 1502 c 128,-1,56
 482 1525 482 1525 582 1525 c 0,57,58
 652 1525 652 1525 727.5 1507 c 128,-1,59
 803 1489 803 1489 872 1456 c 128,-1,60
 941 1423 941 1423 985.5 1366.5 c 128,-1,61
 1030 1310 1030 1310 1030 1241 c 0,62,63
 1030 1175 1030 1175 986 1131 c 128,-1,0
 942 1087 942 1087 877 1087 c 128,-1,1
EndSplineSet
EndChar

StartChar: T
Encoding: 84 84 43
Width: 1297
Flags: MW
HStem: 0 141<365 457.5 385 457.5 754 908> 1351 154<208 543 208 208 754 754 754 1089>
VStem: 543 211<184 1351 141 1351>
LayerCount: 2
Fore
SplineSet
908 0 m 2,0,-1
 377 0 l 2,1,2
 353 0 353 0 353 57 c 0,3,4
 353 88 353 88 366.5 114.5 c 128,-1,5
 380 141 380 141 396 141 c 0,6,7
 484 141 484 141 513.5 150.5 c 128,-1,8
 543 160 543 160 543 184 c 2,9,-1
 543 1351 l 1,10,-1
 208 1351 l 1,11,-1
 164 1203 l 1,12,13
 155 1177 155 1177 114 1177 c 0,14,15
 83 1177 83 1177 56.5 1192 c 128,-1,16
 30 1207 30 1207 30 1228 c 2,17,-1
 30 1232 l 1,18,-1
 68 1505 l 1,19,-1
 1229 1505 l 1,20,-1
 1267 1232 l 1,21,-1
 1267 1228 l 2,22,23
 1267 1207 1267 1207 1240.5 1192 c 128,-1,24
 1214 1177 1214 1177 1183 1177 c 0,25,26
 1142 1177 1142 1177 1133 1203 c 1,27,-1
 1089 1351 l 1,28,-1
 754 1351 l 1,29,-1
 754 141 l 1,30,-1
 922 141 l 2,31,32
 949 141 949 141 949 74 c 0,33,34
 949 50 949 50 938 25 c 128,-1,35
 927 0 927 0 908 0 c 2,0,-1
EndSplineSet
EndChar

StartChar: U
Encoding: 85 85 44
Width: 1477
Flags: MW
HStem: -20 165<681 895 681 938> 1364 141<49.5 64 64 227 451 451 451 611 937.5 951 951 1095 1273 1273 1273 1442>
VStem: 240 211<569 578 578 1348 1348 1351> 1108 165<575 1348 1348 1352>
LayerCount: 2
Fore
SplineSet
240 569 m 2,0,-1
 240 1348 l 2,1,2
 240 1364 240 1364 227 1364 c 2,3,-1
 64 1364 l 2,4,5
 44 1364 44 1364 33.5 1389.5 c 128,-1,6
 23 1415 23 1415 23 1444 c 0,7,8
 23 1505 23 1505 49 1505 c 2,9,-1
 621 1505 l 2,10,11
 646 1505 646 1505 646 1439 c 0,12,13
 646 1409 646 1409 637 1386.5 c 128,-1,14
 628 1364 628 1364 611 1364 c 2,15,-1
 451 1364 l 1,16,-1
 451 578 l 2,17,18
 451 346 451 346 536.5 245.5 c 128,-1,19
 622 145 622 145 780 145 c 0,20,21
 952 145 952 145 1030 248.5 c 128,-1,22
 1108 352 1108 352 1108 575 c 2,23,-1
 1108 1348 l 2,24,25
 1108 1364 1108 1364 1095 1364 c 2,26,-1
 951 1364 l 2,27,28
 932 1364 932 1364 921 1390 c 128,-1,29
 910 1416 910 1416 910 1446 c 0,30,31
 910 1469 910 1469 916.5 1487 c 128,-1,32
 923 1505 923 1505 936 1505 c 2,33,-1
 1452 1505 l 2,34,35
 1478 1505 1478 1505 1478 1441 c 0,36,37
 1478 1412 1478 1412 1468.5 1388 c 128,-1,38
 1459 1364 1459 1364 1442 1364 c 2,39,-1
 1273 1364 l 1,40,-1
 1273 555 l 2,41,42
 1273 -20 1273 -20 754 -20 c 0,43,44
 611 -20 611 -20 511 17.5 c 128,-1,45
 411 55 411 55 351.5 132 c 128,-1,46
 292 209 292 209 266 315.5 c 128,-1,47
 240 422 240 422 240 569 c 2,0,-1
EndSplineSet
EndChar

StartChar: V
Encoding: 86 86 45
Width: 1501
Flags: MW
HStem: 0 21G<690 690 810 810> 1364 141<30 538 53 150 482 536 1009 1152 1397 1441.5>
VStem: 14 1456<1430 1441>
LayerCount: 2
Fore
SplineSet
690 0 m 2,0,-1
 150 1364 l 1,1,-1
 40 1364 l 2,2,3
 14 1364 14 1364 14 1424 c 0,4,5
 14 1454 14 1454 24 1479.5 c 128,-1,6
 34 1505 34 1505 53 1505 c 2,7,-1
 538 1505 l 2,8,9
 563 1505 563 1505 563 1450 c 0,10,11
 563 1419 563 1419 552 1391.5 c 128,-1,12
 541 1364 541 1364 522 1364 c 0,13,14
 398 1364 398 1364 398 1340 c 0,15,16
 398 1339 398 1339 406 1315 c 1,17,-1
 777 348 l 1,18,-1
 1152 1364 l 1,19,-1
 999 1364 l 2,20,21
 973 1364 973 1364 973 1422 c 0,22,23
 973 1452 973 1452 982.5 1478.5 c 128,-1,24
 992 1505 992 1505 1009 1505 c 2,25,-1
 1445 1505 l 2,26,27
 1470 1505 1470 1505 1470 1448 c 0,28,29
 1470 1418 1470 1418 1458.5 1391 c 128,-1,30
 1447 1364 1447 1364 1429 1364 c 0,31,32
 1334 1364 1334 1364 1313 1307 c 2,33,-1
 810 0 l 2,34,35
 802 -20 802 -20 749 -20 c 0,36,37
 698 -20 698 -20 690 0 c 2,0,-1
EndSplineSet
EndChar

StartChar: W
Encoding: 87 87 46
Width: 2138
Flags: MW
HStem: 0 21G<690 690 804 804 1412 1412 1532 1532> 1364 141<30 538 53 149 482 536 775 879 1204 1258 1638 1784 2026 2070.5>
VStem: 14 2085<1430 1441>
LayerCount: 2
Fore
SplineSet
1412 0 m 2,0,-1
 1081 848 l 1,1,-1
 804 0 l 2,2,3
 798 -20 798 -20 749 -20 c 0,4,5
 698 -20 698 -20 690 0 c 2,6,-1
 149 1364 l 1,7,-1
 40 1364 l 2,8,9
 14 1364 14 1364 14 1424 c 0,10,11
 14 1454 14 1454 24 1479.5 c 128,-1,12
 34 1505 34 1505 53 1505 c 2,13,-1
 538 1505 l 2,14,15
 563 1505 563 1505 563 1450 c 0,16,17
 563 1419 563 1419 552 1391.5 c 128,-1,18
 541 1364 541 1364 522 1364 c 0,19,20
 398 1364 398 1364 398 1340 c 0,21,22
 398 1339 398 1339 406 1315 c 1,23,-1
 766 376 l 1,24,-1
 995 1067 l 1,25,-1
 879 1364 l 1,26,-1
 762 1364 l 2,27,28
 736 1364 736 1364 736 1424 c 0,29,30
 736 1454 736 1454 746 1479.5 c 128,-1,31
 756 1505 756 1505 775 1505 c 2,32,-1
 1260 1505 l 2,33,34
 1285 1505 1285 1505 1285 1450 c 0,35,36
 1285 1419 1285 1419 1274 1391.5 c 128,-1,37
 1263 1364 1263 1364 1244 1364 c 0,38,39
 1120 1364 1120 1364 1120 1340 c 0,40,41
 1120 1339 1120 1339 1128 1315 c 1,42,-1
 1487 376 l 1,43,-1
 1784 1364 l 1,44,-1
 1628 1364 l 2,45,46
 1602 1364 1602 1364 1602 1422 c 0,47,48
 1602 1452 1602 1452 1611.5 1478.5 c 128,-1,49
 1621 1505 1621 1505 1638 1505 c 2,50,-1
 2074 1505 l 2,51,52
 2099 1505 2099 1505 2099 1448 c 0,53,54
 2099 1418 2099 1418 2087.5 1391 c 128,-1,55
 2076 1364 2076 1364 2058 1364 c 0,56,57
 1965 1364 1965 1364 1942 1307 c 1,58,-1
 1532 0 l 2,59,60
 1526 -20 1526 -20 1471 -20 c 0,61,62
 1419 -20 1419 -20 1412 0 c 2,0,-1
EndSplineSet
EndChar

StartChar: X
Encoding: 88 88 47
Width: 1421
Flags: MW
HStem: 0 141<55.5 128.5 73 128.5 407 497 841 970 1334.5 1354> 1364 141<71.5 605 94 204 545 601 904 1059 1297 1342>
VStem: 42 1353<63.5 80.5>
LayerCount: 2
Fore
SplineSet
1354 0 m 2,0,-1
 826 0 l 2,1,2
 799 0 799 0 799 61 c 0,3,4
 799 90 799 90 813 115.5 c 128,-1,5
 827 141 827 141 841 141 c 2,6,-1
 970 141 l 1,7,-1
 671 618 l 1,8,-1
 396 171 l 2,9,10
 389 161 389 161 389 154 c 0,11,12
 389 141 389 141 407 141 c 2,13,-1
 512 141 l 2,14,15
 538 141 538 141 538 81 c 0,16,17
 538 52 538 52 527.5 26 c 128,-1,18
 517 0 517 0 497 0 c 2,19,-1
 68 0 l 2,20,21
 42 0 42 0 42 61 c 0,22,23
 42 90 42 90 55 115.5 c 128,-1,24
 68 141 68 141 83 141 c 0,25,26
 190 141 190 141 230 196 c 1,27,-1
 579 765 l 1,28,-1
 204 1364 l 1,29,-1
 82 1364 l 2,30,31
 55 1364 55 1364 55 1422 c 0,32,33
 55 1452 55 1452 65.5 1478.5 c 128,-1,34
 76 1505 76 1505 94 1505 c 2,35,-1
 605 1505 l 2,36,37
 628 1505 628 1505 628 1448 c 0,38,39
 628 1417 628 1417 617.5 1390.5 c 128,-1,40
 607 1364 607 1364 586 1364 c 0,41,42
 524 1364 524 1364 499.5 1359.5 c 128,-1,43
 475 1355 475 1355 475 1342 c 0,44,45
 475 1332 475 1332 484 1317 c 2,46,-1
 741 906 l 1,47,-1
 1059 1364 l 1,48,-1
 894 1364 l 2,49,50
 868 1364 868 1364 868 1423 c 0,51,52
 868 1452 868 1452 877.5 1478.5 c 128,-1,53
 887 1505 887 1505 904 1505 c 2,54,-1
 1345 1505 l 2,55,56
 1369 1505 1369 1505 1369 1447 c 0,57,58
 1369 1417 1369 1417 1358 1390.5 c 128,-1,59
 1347 1364 1347 1364 1329 1364 c 0,60,61
 1285 1364 1285 1364 1261 1353 c 128,-1,62
 1237 1342 1237 1342 1219 1321 c 1,63,-1
 832 761 l 1,64,-1
 1181 204 l 2,65,66
 1198 176 1198 176 1232.5 161 c 128,-1,67
 1267 146 1267 146 1296 143.5 c 128,-1,68
 1325 141 1325 141 1369 141 c 0,69,70
 1395 141 1395 141 1395 80 c 0,71,72
 1395 51 1395 51 1384.5 25.5 c 128,-1,73
 1374 0 1374 0 1354 0 c 2,0,-1
EndSplineSet
EndChar

StartChar: Y
Encoding: 89 89 48
Width: 1393
Flags: MW
HStem: 0 141<313.5 493 344 493 493 538 813 1043> 1364 141<42.5 559 66 165 516.5 558 898 1044 1286 1330.5>
VStem: 602 211<184 559 141 559>
LayerCount: 2
Fore
SplineSet
493 141 m 2,0,1
 557 141 557 141 579.5 151.5 c 128,-1,2
 602 162 602 162 602 184 c 2,3,-1
 602 559 l 1,4,-1
 165 1364 l 1,5,-1
 53 1364 l 2,6,7
 27 1364 27 1364 27 1424 c 0,8,9
 27 1453 27 1453 37 1479 c 128,-1,10
 47 1505 47 1505 66 1505 c 2,11,-1
 559 1505 l 2,12,13
 584 1505 584 1505 584 1448 c 0,14,15
 584 1418 584 1418 573.5 1391 c 128,-1,16
 563 1364 563 1364 543 1364 c 0,17,18
 492 1364 492 1364 464.5 1357.5 c 128,-1,19
 437 1351 437 1351 437 1329 c 0,20,21
 437 1319 437 1319 443 1307 c 2,22,-1
 728 735 l 1,23,-1
 1044 1364 l 1,24,-1
 888 1364 l 2,25,26
 862 1364 862 1364 862 1422 c 0,27,28
 862 1452 862 1452 871.5 1478.5 c 128,-1,29
 881 1505 881 1505 898 1505 c 2,30,-1
 1334 1505 l 2,31,32
 1359 1505 1359 1505 1359 1448 c 0,33,34
 1359 1418 1359 1418 1347.5 1391 c 128,-1,35
 1336 1364 1336 1364 1318 1364 c 0,36,37
 1233 1364 1233 1364 1210 1321 c 2,38,-1
 813 559 l 1,39,-1
 813 141 l 1,40,-1
 1058 141 l 2,41,42
 1084 141 1084 141 1084 80 c 0,43,44
 1084 52 1084 52 1073.5 26 c 128,-1,45
 1063 0 1063 0 1043 0 c 2,46,-1
 326 0 l 2,47,48
 301 0 301 0 301 57 c 0,49,50
 301 88 301 88 314.5 114.5 c 128,-1,51
 328 141 328 141 344 141 c 2,52,-1
 493 141 l 2,0,1
EndSplineSet
EndChar

StartChar: Z
Encoding: 90 90 49
Width: 1266
Flags: MW
HStem: 0 154<366 992 366 1110> 1351 154<250 894 250 250>
VStem: 72 1132<0 293.5 75 293.5 280 1232 280 1232>
LayerCount: 2
Fore
SplineSet
72 0 m 1,0,-1
 72 75 l 1,1,-1
 894 1351 l 1,2,-1
 250 1351 l 1,3,-1
 206 1203 l 1,4,5
 197 1177 197 1177 156 1177 c 0,6,7
 125 1177 125 1177 98.5 1192 c 128,-1,8
 72 1207 72 1207 72 1228 c 2,9,-1
 72 1232 l 1,10,-1
 110 1505 l 1,11,-1
 1194 1505 l 1,12,-1
 1191 1437 l 1,13,-1
 366 154 l 1,14,-1
 992 154 l 1,15,-1
 1069 303 l 2,16,17
 1079 322 1079 322 1119 322 c 0,18,19
 1151 322 1151 322 1177.5 310.5 c 128,-1,20
 1204 299 1204 299 1204 281 c 0,21,22
 1204 276 1204 276 1203 274 c 2,23,-1
 1110 0 l 1,24,-1
 72 0 l 1,0,-1
EndSplineSet
EndChar

StartChar: bracketleft
Encoding: 91 91 50
Width: 800
Flags: MW
HStem: -160 141<468 702 468 702> 1530 141<468 702 468 468>
VStem: 273 195<-19 1530 -19 1671 -19 1671>
LayerCount: 2
Fore
SplineSet
702 -160 m 2,0,-1
 273 -160 l 1,1,-1
 273 1671 l 1,2,-1
 702 1671 l 2,3,4
 735 1671 735 1671 735 1606 c 0,5,6
 735 1530 735 1530 702 1530 c 2,7,-1
 468 1530 l 1,8,-1
 468 -19 l 1,9,-1
 702 -19 l 2,10,11
 732 -19 732 -19 732 -86 c 0,12,13
 732 -160 732 -160 702 -160 c 2,0,-1
EndSplineSet
EndChar

StartChar: backslash
Encoding: 92 92 51
Width: 909
Flags: MW
HStem: -170 1808<102.5 818>
VStem: 41 838
LayerCount: 2
Fore
SplineSet
206 1606 m 1,0,-1
 879 -141 l 1,1,2
 879 -156 879 -156 855.5 -163 c 128,-1,3
 832 -170 832 -170 804 -170 c 0,4,5
 748 -170 748 -170 707 -141 c 1,6,-1
 41 1606 l 1,7,8
 41 1638 41 1638 116 1638 c 0,9,10
 155 1638 155 1638 206 1606 c 1,0,-1
EndSplineSet
EndChar

StartChar: bracketright
Encoding: 93 93 52
Width: 800
Flags: MW
HStem: -160 141<83.5 332 98 332 98 527> 1530 141<84 527 98 332>
VStem: 332 195<-19 1530 1530 1530>
LayerCount: 2
Fore
SplineSet
527 -160 m 1,0,-1
 98 -160 l 2,1,2
 68 -160 68 -160 68 -86 c 0,3,4
 68 -19 68 -19 98 -19 c 2,5,-1
 332 -19 l 1,6,-1
 332 1530 l 1,7,-1
 98 1530 l 2,8,9
 65 1530 65 1530 65 1606 c 0,10,11
 65 1671 65 1671 98 1671 c 2,12,-1
 527 1671 l 1,13,-1
 527 -160 l 1,0,-1
EndSplineSet
EndChar

StartChar: asciicircum
Encoding: 94 94 53
Width: 1180
Flags: MW
HStem: 834 610<109.5 603 571.5 1066>
VStem: 59 1059<894 918 893 920>
LayerCount: 2
Fore
SplineSet
135 834 m 1,0,1
 98 834 98 834 78.5 857 c 128,-1,2
 59 880 59 880 59 920 c 1,3,-1
 512 1409 l 1,4,5
 543 1444 543 1444 588 1444 c 0,6,7
 628 1444 628 1444 659 1409 c 1,8,-1
 1118 918 l 1,9,10
 1118 880 1118 880 1098 857 c 128,-1,11
 1078 834 1078 834 1042 834 c 1,12,-1
 580 1239 l 1,13,-1
 135 834 l 1,0,1
EndSplineSet
EndChar

StartChar: underscore
Encoding: 95 95 54
Width: 1198
Flags: MW
HStem: -287 123<10 1188 10 1188>
VStem: 10 1178<-287 -164 -287 -164>
LayerCount: 2
Fore
SplineSet
10 -164 m 1,0,-1
 1188 -164 l 1,1,-1
 1188 -287 l 1,2,-1
 10 -287 l 1,3,-1
 10 -164 l 1,0,-1
EndSplineSet
EndChar

StartChar: grave
Encoding: 96 96 55
Width: 1065
Flags: MW
HStem: 1561 20G<318 360>
VStem: 211 422<1267.5 1470.5>
LayerCount: 2
Fore
SplineSet
535 1188 m 1,0,-1
 211 1423 l 1,1,2
 211 1493 211 1493 253.5 1537 c 128,-1,3
 296 1581 296 1581 360 1581 c 1,4,-1
 633 1296 l 1,5,6
 633 1252 633 1252 605 1220 c 128,-1,7
 577 1188 577 1188 535 1188 c 1,0,-1
EndSplineSet
EndChar

StartChar: a
Encoding: 97 97 56
Width: 1145
Flags: MW
HStem: -20 154<431 496.5> -16 157<798.5 1083> 429 150<473 508 508 720> 880 141<500.5 524 422 704.5>
VStem: 113 202<236.5 334 236.5 372.5> 160 274<778 829.5 778 905> 720 195<234 429 429 429 579 653 141 681>
LayerCount: 2
Fore
SplineSet
297 681 m 128,-1,1
 238 681 238 681 199 719.5 c 128,-1,2
 160 758 160 758 160 818 c 0,3,4
 160 868 160 868 190.5 906 c 128,-1,5
 221 944 221 944 265 965 c 128,-1,6
 309 986 309 986 367.5 999.5 c 128,-1,7
 426 1013 426 1013 472.5 1017 c 128,-1,8
 519 1021 519 1021 563 1021 c 0,9,10
 645 1021 645 1021 708 1001 c 128,-1,11
 771 981 771 981 809.5 948 c 128,-1,12
 848 915 848 915 872.5 866.5 c 128,-1,13
 897 818 897 818 906 766.5 c 128,-1,14
 915 715 915 715 915 653 c 2,15,-1
 915 141 l 1,16,-1
 1083 141 l 2,17,18
 1110 141 1110 141 1110 82 c 0,19,20
 1110 53 1110 53 1099.5 29 c 128,-1,21
 1089 5 1089 5 1069 0 c 0,22,23
 997 -16 997 -16 821 -16 c 0,24,25
 787 -16 787 -16 769.5 0 c 128,-1,26
 752 16 752 16 732 69 c 1,27,28
 610 -20 610 -20 438 -20 c 0,29,30
 285 -20 285 -20 199 60.5 c 128,-1,31
 113 141 113 141 113 264 c 0,32,33
 113 342 113 342 144 404 c 128,-1,34
 175 466 175 466 226.5 503.5 c 128,-1,35
 278 541 278 541 341 560 c 128,-1,36
 404 579 404 579 473 579 c 2,37,-1
 720 579 l 1,38,39
 720 645 720 645 716 689 c 128,-1,40
 712 733 712 733 700 772.5 c 128,-1,41
 688 812 688 812 666.5 833.5 c 128,-1,42
 645 855 645 855 610 867.5 c 128,-1,43
 575 880 575 880 524 880 c 2,44,-1
 422 880 l 1,45,46
 434 852 434 852 434 818 c 0,47,48
 434 758 434 758 395 719.5 c 128,-1,0
 356 681 356 681 297 681 c 128,-1,1
315 291 m 0,49,50
 315 213 315 213 360 173.5 c 128,-1,51
 405 134 405 134 474 134 c 0,52,53
 549 134 549 134 606 160.5 c 128,-1,54
 663 187 663 187 720 234 c 1,55,-1
 720 429 l 1,56,-1
 508 429 l 2,57,58
 423 429 423 429 369 391.5 c 128,-1,59
 315 354 315 354 315 291 c 0,49,50
EndSplineSet
EndChar

StartChar: b
Encoding: 98 98 57
Width: 1194
Flags: MW
HStem: -20 21G<272.5 301> -14 154<570.5 663.5 570.5 743> 847 174<631.5 683.5> 1409 174<41 389.5>
VStem: 217 195<225 753 207 939 939 1409 1409 1409> 882 205<356.5 646>
LayerCount: 2
Fore
SplineSet
412 753 m 1,0,-1
 412 207 l 1,1,2
 506 140 506 140 600 140 c 0,3,4
 642 140 642 140 678.5 148.5 c 128,-1,5
 715 157 715 157 753.5 182 c 128,-1,6
 792 207 792 207 819.5 246.5 c 128,-1,7
 847 286 847 286 864.5 354 c 128,-1,8
 882 422 882 422 882 510 c 0,9,10
 882 588 882 588 865.5 649 c 128,-1,11
 849 710 849 710 823.5 746.5 c 128,-1,12
 798 783 798 783 763.5 806.5 c 128,-1,13
 729 830 729 830 698 838.5 c 128,-1,14
 667 847 667 847 635 847 c 0,15,16
 583 847 583 847 519 824 c 128,-1,17
 455 801 455 801 412 753 c 1,0,-1
412 1446 m 2,18,-1
 412 939 l 1,19,20
 485 984 485 984 546.5 1002.5 c 128,-1,21
 608 1021 608 1021 678 1021 c 0,22,23
 859 1021 859 1021 973 882 c 128,-1,24
 1087 743 1087 743 1087 506 c 0,25,26
 1087 382 1087 382 1050 282.5 c 128,-1,27
 1013 183 1013 183 948 119 c 128,-1,28
 883 55 883 55 797 20.5 c 128,-1,29
 711 -14 711 -14 612 -14 c 0,30,31
 579 -14 579 -14 543.5 -3.5 c 128,-1,32
 508 7 508 7 485 18.5 c 128,-1,33
 462 30 462 30 431 47.5 c 128,-1,34
 400 65 400 65 391 69 c 1,35,-1
 321 -16 l 1,36,37
 315 -20 315 -20 297 -20 c 0,38,39
 261 -20 261 -20 217.5 2.5 c 128,-1,40
 174 25 174 25 172 44 c 1,41,-1
 217 225 l 1,42,-1
 217 1409 l 1,43,-1
 41 1409 l 2,44,45
 21 1409 21 1409 10.5 1433.5 c 128,-1,46
 0 1458 0 1458 0 1487 c 0,47,48
 0 1535 0 1535 27 1546 c 0,49,50
 74 1564 74 1564 178.5 1573.5 c 128,-1,51
 283 1583 283 1583 367 1583 c 0,52,53
 383 1583 383 1583 393 1573 c 128,-1,54
 403 1563 403 1563 406.5 1540 c 128,-1,55
 410 1517 410 1517 411 1499.5 c 128,-1,56
 412 1482 412 1482 412 1446 c 2,18,-1
EndSplineSet
EndChar

StartChar: c
Encoding: 99 99 58
Width: 1006
Flags: MW
HStem: -20 154<494.5 631.5 494.5 651.5> 880 141<530.5 586 586 673 463 679>
VStem: 106 205<384 651 384 677> 670 274<788.5 840.5>
LayerCount: 2
Fore
SplineSet
807 691 m 128,-1,1
 748 691 748 691 709 730 c 128,-1,2
 670 769 670 769 670 828 c 0,3,4
 670 835 670 835 679 880 c 1,5,-1
 586 880 l 2,6,7
 551 880 551 880 515 869 c 128,-1,8
 479 858 479 858 441.5 830.5 c 128,-1,9
 404 803 404 803 375.5 762.5 c 128,-1,10
 347 722 347 722 329 656.5 c 128,-1,11
 311 591 311 591 311 510 c 0,12,13
 311 325 311 325 381 229.5 c 128,-1,14
 451 134 451 134 575 134 c 0,15,16
 627 134 627 134 688 155 c 128,-1,17
 749 176 749 176 785.5 196.5 c 128,-1,18
 822 217 822 217 885 256 c 0,19,20
 890 259 890 259 896 259 c 0,21,22
 920 259 920 259 947 220 c 128,-1,23
 974 181 974 181 974 149 c 0,24,25
 974 132 974 132 963 123 c 0,26,27
 923 94 923 94 889.5 73.5 c 128,-1,28
 856 53 856 53 803.5 29 c 128,-1,29
 751 5 751 5 686 -7.5 c 128,-1,30
 621 -20 621 -20 547 -20 c 0,31,32
 338 -20 338 -20 222 123 c 128,-1,33
 106 266 106 266 106 510 c 0,34,35
 106 672 106 672 173.5 789.5 c 128,-1,36
 241 907 241 907 350.5 964 c 128,-1,37
 460 1021 460 1021 598 1021 c 0,38,39
 660 1021 660 1021 716.5 1011.5 c 128,-1,40
 773 1002 773 1002 826.5 981.5 c 128,-1,41
 880 961 880 961 912 921.5 c 128,-1,42
 944 882 944 882 944 828 c 0,43,44
 944 769 944 769 905 730 c 128,-1,0
 866 691 866 691 807 691 c 128,-1,1
EndSplineSet
EndChar

StartChar: d
Encoding: 100 100 59
Width: 1221
Flags: MW
HStem: -20 154<484 562> -16 157<862.5 1145> 0 21G 867 154<531.5 619.5> 981 20G<782 782> 1409 174<606 954.5>
VStem: 106 205<373 652.5 373 682> 782 195<234 802 802 802 1001 1409 1409 1409>
LayerCount: 2
Fore
SplineSet
793 69 m 1,0,1
 671 -20 671 -20 506 -20 c 0,2,3
 312 -20 312 -20 209 122.5 c 128,-1,4
 106 265 106 265 106 512 c 0,5,6
 106 636 106 636 146 734.5 c 128,-1,7
 186 833 186 833 255.5 894.5 c 128,-1,8
 325 956 325 956 414.5 988.5 c 128,-1,9
 504 1021 504 1021 606 1021 c 0,10,11
 707 1021 707 1021 782 1001 c 1,12,-1
 782 1409 l 1,13,-1
 606 1409 l 2,14,15
 587 1409 587 1409 576 1432.5 c 128,-1,16
 565 1456 565 1456 565 1483 c 0,17,18
 565 1535 565 1535 592 1546 c 0,19,20
 640 1564 640 1564 744 1573.5 c 128,-1,21
 848 1583 848 1583 932 1583 c 0,22,23
 962 1583 962 1583 969.5 1549.5 c 128,-1,24
 977 1516 977 1516 977 1448 c 2,25,-1
 977 141 l 1,26,-1
 1145 141 l 2,27,28
 1171 141 1171 141 1171 80 c 0,29,30
 1171 51 1171 51 1160.5 27 c 128,-1,31
 1150 3 1150 3 1130 0 c 0,32,33
 970 -16 970 -16 887 -16 c 0,34,35
 849 -16 849 -16 830.5 0.5 c 128,-1,36
 812 17 812 17 793 69 c 1,0,1
782 234 m 1,37,-1
 782 802 l 1,38,39
 700 867 700 867 594 867 c 0,40,41
 554 867 554 867 516.5 857.5 c 128,-1,42
 479 848 479 848 440.5 823 c 128,-1,43
 402 798 402 798 374 759 c 128,-1,44
 346 720 346 720 328.5 656 c 128,-1,45
 311 592 311 592 311 510 c 0,46,47
 311 412 311 412 331.5 336.5 c 128,-1,48
 352 261 352 261 385.5 218.5 c 128,-1,49
 419 176 419 176 456.5 155 c 128,-1,50
 494 134 494 134 533 134 c 0,51,52
 609 134 609 134 667 160.5 c 128,-1,53
 725 187 725 187 782 234 c 1,37,-1
EndSplineSet
EndChar

StartChar: e
Encoding: 101 101 60
Width: 1094
Flags: MW
HStem: -20 154<501.5 638 501.5 644> 455 150<311 782 311 834 311 782> 867 154<527.5 645>
VStem: 106 205<455 455 455 605 455 680> 782 205<605 700.5>
LayerCount: 2
Fore
SplineSet
106 512 m 0,0,1
 106 634 106 634 146.5 732.5 c 128,-1,2
 187 831 187 831 255.5 893 c 128,-1,3
 324 955 324 955 411.5 988 c 128,-1,4
 499 1021 499 1021 596 1021 c 0,5,6
 785 1021 785 1021 886 903.5 c 128,-1,7
 987 786 987 786 987 569 c 0,8,9
 987 521 987 521 944 488 c 128,-1,10
 901 455 901 455 834 455 c 2,11,-1
 311 455 l 1,12,13
 322 302 322 302 392.5 218 c 128,-1,14
 463 134 463 134 575 134 c 0,15,16
 619 134 619 134 665.5 147.5 c 128,-1,17
 712 161 712 161 736 172.5 c 128,-1,18
 760 184 760 184 815 216 c 128,-1,19
 870 248 870 248 884 256 c 0,20,21
 890 259 890 259 896 259 c 0,22,23
 921 259 921 259 947.5 220.5 c 128,-1,24
 974 182 974 182 974 149 c 0,25,26
 974 130 974 130 963 122 c 0,27,28
 782 -20 782 -20 547 -20 c 0,29,30
 339 -20 339 -20 222.5 123.5 c 128,-1,31
 106 267 106 267 106 512 c 0,0,1
311 605 m 1,32,-1
 782 605 l 1,33,34
 782 741 782 741 730 804 c 128,-1,35
 678 867 678 867 590 867 c 0,36,37
 486 867 486 867 402.5 798.5 c 128,-1,38
 319 730 319 730 311 605 c 1,32,-1
EndSplineSet
EndChar

StartChar: f
Encoding: 102 102 61
Width: 827
Flags: MW
HStem: 0 141<118.5 119 119 194.5 476 688> 847 154<112 194.5 112 281 90 194.5 476 725> 1449 134<532.5 588>
VStem: 281 195<184 847 141 847 1044 1167 1167 1184> 588 274<1417 1449 1449 1449>
LayerCount: 2
Fore
SplineSet
725 1280 m 128,-1,1
 666 1280 666 1280 627 1318.5 c 128,-1,2
 588 1357 588 1357 588 1417 c 2,3,-1
 588 1449 l 1,4,5
 561 1449 561 1449 541 1436 c 128,-1,6
 521 1423 521 1423 509.5 1398 c 128,-1,7
 498 1373 498 1373 490.5 1349 c 128,-1,8
 483 1325 483 1325 480 1289.5 c 128,-1,9
 477 1254 477 1254 476.5 1234 c 128,-1,10
 476 1214 476 1214 476 1184 c 2,11,-1
 476 1001 l 1,12,-1
 745 1001 l 2,13,14
 770 1001 770 1001 770 942 c 0,15,16
 770 908 770 908 758 877.5 c 128,-1,17
 746 847 746 847 725 847 c 2,18,-1
 476 847 l 1,19,-1
 476 141 l 1,20,-1
 702 141 l 2,21,22
 729 141 729 141 729 80 c 0,23,24
 729 51 729 51 718.5 25.5 c 128,-1,25
 708 0 708 0 688 0 c 2,26,-1
 119 0 l 2,27,28
 92 0 92 0 92 61 c 0,29,30
 92 90 92 90 102.5 115.5 c 128,-1,31
 113 141 113 141 133 141 c 0,32,33
 221 141 221 141 251 150.5 c 128,-1,34
 281 160 281 160 281 184 c 2,35,-1
 281 847 l 1,36,-1
 90 847 l 1,37,38
 90 870 90 870 90.5 884 c 128,-1,39
 91 898 91 898 92 918.5 c 128,-1,40
 93 939 93 939 96 951.5 c 128,-1,41
 99 964 99 964 103.5 976.5 c 128,-1,42
 108 989 108 989 115.5 995 c 128,-1,43
 123 1001 123 1001 133 1001 c 0,44,45
 221 1001 221 1001 251 1010.5 c 128,-1,46
 281 1020 281 1020 281 1044 c 2,47,-1
 281 1167 l 2,48,49
 281 1235 281 1235 293.5 1294.5 c 128,-1,50
 306 1354 306 1354 334 1407.5 c 128,-1,51
 362 1461 362 1461 404 1499.5 c 128,-1,52
 446 1538 446 1538 508.5 1560.5 c 128,-1,53
 571 1583 571 1583 649 1583 c 0,54,55
 690 1583 690 1583 725 1575.5 c 128,-1,56
 760 1568 760 1568 792 1550.5 c 128,-1,57
 824 1533 824 1533 843 1499 c 128,-1,58
 862 1465 862 1465 862 1417 c 0,59,60
 862 1357 862 1357 823 1318.5 c 128,-1,0
 784 1280 784 1280 725 1280 c 128,-1,1
EndSplineSet
EndChar

StartChar: g
Encoding: 103 103 62
Width: 1126
Flags: MW
HStem: -440 154<423 589 423 692.5> 45 150<492 648 376 690> 348 154<462 562.5 447.5 583.5> 803 198<990 1015 1015 1058.5> 886 130<463.5 556 439 574.5> 892 109
VStem: 70 195<-185 -105.5> 115 211<630.5 749.5 630.5 797.5> 176 190<259 281> 698 211<657.5 738 589 760> 849 195<-138.5 -43>
LayerCount: 2
Fore
SplineSet
475 348 m 0,0,1
 436 348 436 348 400 354 c 1,2,3
 366 312 366 312 366 289 c 0,4,5
 366 245 366 245 400 220 c 128,-1,6
 434 195 434 195 492 195 c 2,7,-1
 690 195 l 2,8,9
 775 195 775 195 839 179.5 c 128,-1,10
 903 164 903 164 941.5 138.5 c 128,-1,11
 980 113 980 113 1003.5 76 c 128,-1,12
 1027 39 1027 39 1035.5 1.5 c 128,-1,13
 1044 -36 1044 -36 1044 -82 c 0,14,15
 1044 -143 1044 -143 1012 -204 c 128,-1,16
 980 -265 980 -265 917.5 -319 c 128,-1,17
 855 -373 855 -373 746.5 -406.5 c 128,-1,18
 638 -440 638 -440 500 -440 c 0,19,20
 407 -440 407 -440 330.5 -421 c 128,-1,21
 254 -402 254 -402 207 -373.5 c 128,-1,22
 160 -345 160 -345 128 -308 c 128,-1,23
 96 -271 96 -271 83 -237.5 c 128,-1,24
 70 -204 70 -204 70 -174 c 0,25,26
 70 -141 70 -141 77.5 -110.5 c 128,-1,27
 85 -80 85 -80 94 -59.5 c 128,-1,28
 103 -39 103 -39 124.5 -11 c 128,-1,29
 146 17 146 17 157.5 30 c 128,-1,30
 169 43 169 43 200 74 c 128,-1,31
 231 105 231 105 242 117 c 1,32,33
 239 121 239 121 228.5 133 c 128,-1,34
 218 145 218 145 214.5 150 c 128,-1,35
 211 155 211 155 203 166 c 128,-1,36
 195 177 195 177 191.5 185.5 c 128,-1,37
 188 194 188 194 183.5 206.5 c 128,-1,38
 179 219 179 219 177.5 232.5 c 128,-1,39
 176 246 176 246 176 262 c 0,40,41
 176 320 176 320 260 408 c 1,42,43
 192 454 192 454 153.5 524.5 c 128,-1,44
 115 595 115 595 115 680 c 0,45,46
 115 748 115 748 140.5 805 c 128,-1,47
 166 862 166 862 207.5 900 c 128,-1,48
 249 938 249 938 304 965 c 128,-1,49
 359 992 359 992 417.5 1004 c 128,-1,50
 476 1016 476 1016 535 1016 c 0,51,52
 592 1016 592 1016 652 1001 c 1,53,-1
 1015 1001 l 2,54,55
 1078 1001 1078 1001 1106.5 973.5 c 128,-1,56
 1135 946 1135 946 1135 904 c 0,57,58
 1135 858 1135 858 1104.5 830.5 c 128,-1,59
 1074 803 1074 803 1033 803 c 0,60,61
 1004 803 1004 803 983 814 c 128,-1,62
 962 825 962 825 949 839.5 c 128,-1,63
 936 854 936 854 905.5 869.5 c 128,-1,64
 875 885 875 885 833 892 c 1,65,66
 909 805 909 805 909 707 c 0,67,68
 909 594 909 594 845 510.5 c 128,-1,69
 781 427 781 427 684 387.5 c 128,-1,70
 587 348 587 348 475 348 c 0,0,1
265 -137 m 0,71,72
 265 -286 265 -286 506 -286 c 0,73,74
 591 -286 591 -286 668.5 -261 c 128,-1,75
 746 -236 746 -236 797.5 -186 c 128,-1,76
 849 -136 849 -136 849 -72 c 0,77,78
 849 -23 849 -23 799 11 c 128,-1,79
 749 45 749 45 648 45 c 2,80,-1
 376 45 l 1,81,82
 375 43 375 43 355.5 22 c 128,-1,83
 336 1 336 1 329.5 -6.5 c 128,-1,84
 323 -14 323 -14 307 -34.5 c 128,-1,85
 291 -55 291 -55 284.5 -68.5 c 128,-1,86
 278 -82 278 -82 271.5 -101 c 128,-1,87
 265 -120 265 -120 265 -137 c 0,71,72
326 694 m 0,88,89
 326 601 326 601 373 551.5 c 128,-1,90
 420 502 420 502 498 502 c 0,91,92
 591 502 591 502 644.5 563.5 c 128,-1,93
 698 625 698 625 698 715 c 0,94,95
 698 784 698 784 648 835 c 128,-1,96
 598 886 598 886 524 886 c 0,97,98
 434 886 434 886 380 832 c 128,-1,99
 326 778 326 778 326 694 c 0,88,89
EndSplineSet
EndChar

StartChar: h
Encoding: 104 104 63
Width: 1321
Flags: MW
HStem: 0 141<95.5 182.5 106.5 182.5 463 616 790.5 791 791 841 1104 1245> 833 188<751.5 816> 1409 174<92 440.5>
VStem: 268 195<184 721 141 911 911 1409 1409 1409> 909 195<184 481 481 593>
LayerCount: 2
Fore
SplineSet
909 184 m 2,0,-1
 909 481 l 2,1,2
 909 557 909 557 906.5 604.5 c 128,-1,3
 904 652 904 652 894 700.5 c 128,-1,4
 884 749 884 749 865.5 775 c 128,-1,5
 847 801 847 801 815.5 817 c 128,-1,6
 784 833 784 833 737 833 c 0,7,8
 604 833 604 833 463 721 c 1,9,-1
 463 141 l 1,10,-1
 631 141 l 2,11,12
 657 141 657 141 657 80 c 0,13,14
 657 51 657 51 646.5 25.5 c 128,-1,15
 636 0 636 0 616 0 c 2,16,-1
 106 0 l 2,17,18
 80 0 80 0 80 61 c 0,19,20
 80 90 80 90 90.5 115.5 c 128,-1,21
 101 141 101 141 121 141 c 0,22,23
 209 141 209 141 238.5 150.5 c 128,-1,24
 268 160 268 160 268 184 c 2,25,-1
 268 1409 l 1,26,-1
 92 1409 l 2,27,28
 73 1409 73 1409 62 1433 c 128,-1,29
 51 1457 51 1457 51 1485 c 0,30,31
 51 1535 51 1535 78 1546 c 0,32,33
 126 1564 126 1564 230 1573.5 c 128,-1,34
 334 1583 334 1583 418 1583 c 0,35,36
 434 1583 434 1583 444 1573 c 128,-1,37
 454 1563 454 1563 457.5 1540 c 128,-1,38
 461 1517 461 1517 462 1499.5 c 128,-1,39
 463 1482 463 1482 463 1446 c 2,40,-1
 463 911 l 1,41,42
 545 958 545 958 639.5 989.5 c 128,-1,43
 734 1021 734 1021 784 1021 c 0,44,45
 867 1021 867 1021 925.5 1003 c 128,-1,46
 984 985 984 985 1019 955.5 c 128,-1,47
 1054 926 1054 926 1073 875.5 c 128,-1,48
 1092 825 1092 825 1098 772.5 c 128,-1,49
 1104 720 1104 720 1104 643 c 2,50,-1
 1104 141 l 1,51,-1
 1260 141 l 2,52,53
 1286 141 1286 141 1286 80 c 0,54,55
 1286 51 1286 51 1275.5 25.5 c 128,-1,56
 1265 0 1265 0 1245 0 c 2,57,-1
 791 0 l 2,58,59
 764 0 764 0 764 61 c 0,60,61
 764 90 764 90 774.5 115.5 c 128,-1,62
 785 141 785 141 805 141 c 0,63,64
 909 141 909 141 909 184 c 2,0,-1
EndSplineSet
EndChar

StartChar: i
Encoding: 105 105 64
Width: 715
Flags: MW
HStem: 0 141<95.5 182.5 106.5 182.5 463 616> 847 174<92 440.5> 1528 20G<305 383>
VStem: 207 274<1369 1449> 268 195<184 847 847 847>
LayerCount: 2
Fore
SplineSet
344 1272 m 128,-1,1
 285 1272 285 1272 246 1310.5 c 128,-1,2
 207 1349 207 1349 207 1409 c 128,-1,3
 207 1469 207 1469 246 1508.5 c 128,-1,4
 285 1548 285 1548 344 1548 c 128,-1,5
 403 1548 403 1548 442 1508.5 c 128,-1,6
 481 1469 481 1469 481 1409 c 128,-1,7
 481 1349 481 1349 442 1310.5 c 128,-1,0
 403 1272 403 1272 344 1272 c 128,-1,1
463 884 m 2,8,-1
 463 141 l 1,9,-1
 631 141 l 2,10,11
 657 141 657 141 657 80 c 0,12,13
 657 51 657 51 646.5 25.5 c 128,-1,14
 636 0 636 0 616 0 c 2,15,-1
 106 0 l 2,16,17
 80 0 80 0 80 61 c 0,18,19
 80 90 80 90 90.5 115.5 c 128,-1,20
 101 141 101 141 121 141 c 0,21,22
 209 141 209 141 238.5 150.5 c 128,-1,23
 268 160 268 160 268 184 c 2,24,-1
 268 847 l 1,25,-1
 92 847 l 2,26,27
 73 847 73 847 62 871 c 128,-1,28
 51 895 51 895 51 923 c 0,29,30
 51 973 51 973 78 984 c 0,31,32
 126 1002 126 1002 230 1011.5 c 128,-1,33
 334 1021 334 1021 418 1021 c 0,34,35
 448 1021 448 1021 455.5 987.5 c 128,-1,36
 463 954 463 954 463 884 c 2,8,-1
EndSplineSet
EndChar

StartChar: j
Encoding: 106 106 65
Width: 614
Flags: MW
HStem: -440 209<161 195.5> 847 174<75 423.5> 1528 20G<288 365.5>
VStem: 189 275<1369 1449> 251 195<0 68 68 847 847 847>
LayerCount: 2
Fore
SplineSet
62 -440 m 0,0,1
 4 -440 4 -440 -35.5 -401 c 128,-1,2
 -75 -362 -75 -362 -75 -303 c 0,3,4
 -75 -243 -75 -243 -35.5 -203.5 c 128,-1,5
 4 -164 4 -164 62 -164 c 0,6,7
 135 -164 135 -164 161 -231 c 1,8,9
 187 -231 187 -231 205.5 -210.5 c 128,-1,10
 224 -190 224 -190 233.5 -154.5 c 128,-1,11
 243 -119 243 -119 247 -81.5 c 128,-1,12
 251 -44 251 -44 251 0 c 2,13,-1
 251 847 l 1,14,-1
 75 847 l 2,15,16
 55 847 55 847 44.5 870 c 128,-1,17
 34 893 34 893 34 921 c 0,18,19
 34 971 34 971 60 982 c 0,20,21
 108 1001 108 1001 213 1011 c 128,-1,22
 318 1021 318 1021 401 1021 c 0,23,24
 431 1021 431 1021 438.5 987.5 c 128,-1,25
 446 954 446 954 446 884 c 2,26,-1
 446 68 l 2,27,28
 446 -20 446 -20 423 -107 c 128,-1,29
 400 -194 400 -194 355 -270 c 128,-1,30
 310 -346 310 -346 234 -393 c 128,-1,31
 158 -440 158 -440 62 -440 c 0,0,1
327 1272 m 0,32,33
 268 1272 268 1272 228.5 1310.5 c 128,-1,34
 189 1349 189 1349 189 1409 c 128,-1,35
 189 1469 189 1469 228.5 1508.5 c 128,-1,36
 268 1548 268 1548 327 1548 c 0,37,38
 385 1548 385 1548 424.5 1508.5 c 128,-1,39
 464 1469 464 1469 464 1409 c 0,40,41
 464 1350 464 1350 424.5 1311 c 128,-1,42
 385 1272 385 1272 327 1272 c 0,32,33
EndSplineSet
EndChar

StartChar: k
Encoding: 107 107 66
Width: 1239
Flags: MW
HStem: 0 141<95.5 182.5 106.5 182.5 463 554 1156.5 1198> 860 141<1076 1090 1090 1104 878 1114> 1409 174<92 440.5>
VStem: 268 195<184 1409 1409 1409>
LayerCount: 2
Fore
SplineSet
463 1446 m 2,0,-1
 463 141 l 1,1,-1
 568 141 l 2,2,3
 595 141 595 141 595 80 c 0,4,5
 595 51 595 51 584 25.5 c 128,-1,6
 573 0 573 0 554 0 c 2,7,-1
 106 0 l 2,8,9
 80 0 80 0 80 61 c 0,10,11
 80 90 80 90 90.5 115.5 c 128,-1,12
 101 141 101 141 121 141 c 0,13,14
 209 141 209 141 238.5 150.5 c 128,-1,15
 268 160 268 160 268 184 c 2,16,-1
 268 1409 l 1,17,-1
 92 1409 l 2,18,19
 73 1409 73 1409 62 1433 c 128,-1,20
 51 1457 51 1457 51 1485 c 0,21,22
 51 1535 51 1535 78 1546 c 0,23,24
 126 1564 126 1564 230 1573.5 c 128,-1,25
 334 1583 334 1583 418 1583 c 0,26,27
 434 1583 434 1583 444 1573 c 128,-1,28
 454 1563 454 1563 457.5 1540 c 128,-1,29
 461 1517 461 1517 462 1499.5 c 128,-1,30
 463 1482 463 1482 463 1446 c 2,0,-1
475 600 m 1,31,-1
 878 1001 l 1,32,-1
 1090 1001 l 2,33,34
 1109 1001 1109 1001 1119.5 976.5 c 128,-1,35
 1130 952 1130 952 1130 922 c 0,36,37
 1130 860 1130 860 1104 860 c 0,38,39
 1063 860 1063 860 1038.5 858.5 c 128,-1,40
 1014 857 1014 857 977 846.5 c 128,-1,41
 940 836 940 836 921 815 c 2,42,-1
 732 611 l 1,43,-1
 1015 248 l 2,44,45
 1045 211 1045 211 1063.5 192.5 c 128,-1,46
 1082 174 1082 174 1121 157.5 c 128,-1,47
 1160 141 1160 141 1212 141 c 0,48,49
 1239 141 1239 141 1239 78 c 0,50,51
 1239 50 1239 50 1228.5 25 c 128,-1,52
 1218 0 1218 0 1198 0 c 2,53,-1
 937 0 l 1,54,-1
 475 600 l 1,31,-1
EndSplineSet
EndChar

StartChar: l
Encoding: 108 108 67
Width: 721
Flags: MW
HStem: 0 141<95.5 182.5 106.5 182.5 463 616> 1409 174<92 440.5>
VStem: 268 195<184 1409 1409 1409>
LayerCount: 2
Fore
SplineSet
463 1446 m 2,0,-1
 463 141 l 1,1,-1
 631 141 l 2,2,3
 657 141 657 141 657 80 c 0,4,5
 657 51 657 51 646.5 25.5 c 128,-1,6
 636 0 636 0 616 0 c 2,7,-1
 106 0 l 2,8,9
 80 0 80 0 80 61 c 0,10,11
 80 90 80 90 90.5 115.5 c 128,-1,12
 101 141 101 141 121 141 c 0,13,14
 209 141 209 141 238.5 150.5 c 128,-1,15
 268 160 268 160 268 184 c 2,16,-1
 268 1409 l 1,17,-1
 92 1409 l 2,18,19
 73 1409 73 1409 62 1433 c 128,-1,20
 51 1457 51 1457 51 1485 c 0,21,22
 51 1535 51 1535 78 1546 c 0,23,24
 126 1564 126 1564 230 1573.5 c 128,-1,25
 334 1583 334 1583 418 1583 c 0,26,27
 434 1583 434 1583 444 1573 c 128,-1,28
 454 1563 454 1563 457.5 1540 c 128,-1,29
 461 1517 461 1517 462 1499.5 c 128,-1,30
 463 1482 463 1482 463 1446 c 2,0,-1
EndSplineSet
EndChar

StartChar: m
Encoding: 109 109 68
Width: 1952
Flags: MW
HStem: 0 141<96.5 98 98 172 453 606 784 830.5 1094 1235 1424.5 1471.5 1735 1880> 847 174<82 409.5 738 806 1377 1447>
VStem: 258 195<184 718 141 847 141 847> 899 195<184 481 481 593> 1540 195<184 481 481 593>
CounterMasks: 1 38
LayerCount: 2
Fore
SplineSet
1880 0 m 2,0,-1
 1421 0 l 2,1,2
 1395 0 1395 0 1395 61 c 0,3,4
 1395 90 1395 90 1407 115.5 c 128,-1,5
 1419 141 1419 141 1436 141 c 0,6,7
 1540 141 1540 141 1540 184 c 2,8,-1
 1540 481 l 2,9,10
 1540 544 1540 544 1538 586.5 c 128,-1,11
 1536 629 1536 629 1530.5 674.5 c 128,-1,12
 1525 720 1525 720 1513.5 748.5 c 128,-1,13
 1502 777 1502 777 1483 801 c 128,-1,14
 1464 825 1464 825 1435.5 836 c 128,-1,15
 1407 847 1407 847 1368 847 c 0,16,17
 1320 847 1320 847 1249 816 c 128,-1,18
 1178 785 1178 785 1094 718 c 1,19,-1
 1094 141 l 1,20,-1
 1249 141 l 2,21,22
 1262 141 1262 141 1269 122.5 c 128,-1,23
 1276 104 1276 104 1276 80 c 0,24,25
 1276 50 1276 50 1266.5 25 c 128,-1,26
 1257 0 1257 0 1235 0 c 2,27,-1
 780 0 l 2,28,29
 754 0 754 0 754 59 c 0,30,31
 754 89 754 89 766.5 115 c 128,-1,32
 779 141 779 141 795 141 c 0,33,34
 899 141 899 141 899 184 c 2,35,-1
 899 481 l 2,36,37
 899 544 899 544 897 586.5 c 128,-1,38
 895 629 895 629 889.5 674.5 c 128,-1,39
 884 720 884 720 872.5 748.5 c 128,-1,40
 861 777 861 777 842 801 c 128,-1,41
 823 825 823 825 794.5 836 c 128,-1,42
 766 847 766 847 727 847 c 0,43,44
 679 847 679 847 608 816 c 128,-1,45
 537 785 537 785 453 718 c 1,46,-1
 453 141 l 1,47,-1
 621 141 l 2,48,49
 647 141 647 141 647 82 c 0,50,51
 647 53 647 53 635.5 26.5 c 128,-1,52
 624 0 624 0 606 0 c 2,53,-1
 98 0 l 2,54,55
 70 0 70 0 70 57 c 0,56,57
 70 89 70 89 80.5 115 c 128,-1,58
 91 141 91 141 111 141 c 0,59,60
 199 141 199 141 228.5 150.5 c 128,-1,61
 258 160 258 160 258 184 c 2,62,-1
 258 847 l 1,63,-1
 82 847 l 2,64,65
 62 847 62 847 51.5 870.5 c 128,-1,66
 41 894 41 894 41 923 c 0,67,68
 41 971 41 971 68 982 c 0,69,70
 116 1000 116 1000 212.5 1010.5 c 128,-1,71
 309 1021 309 1021 387 1021 c 0,72,73
 398 1021 398 1021 406 1017.5 c 128,-1,74
 414 1014 414 1014 419 1004.5 c 128,-1,75
 424 995 424 995 426.5 986.5 c 128,-1,76
 429 978 429 978 430.5 960 c 128,-1,77
 432 942 432 942 432 930.5 c 128,-1,78
 432 919 432 919 432 896 c 1,79,80
 523 948 523 948 622 984.5 c 128,-1,81
 721 1021 721 1021 774 1021 c 0,82,83
 960 1021 960 1021 1040 880 c 1,84,85
 1138 936 1138 936 1249 978.5 c 128,-1,86
 1360 1021 1360 1021 1415 1021 c 0,87,88
 1509 1021 1509 1021 1572.5 995.5 c 128,-1,89
 1636 970 1636 970 1671 917.5 c 128,-1,90
 1706 865 1706 865 1720.5 798.5 c 128,-1,91
 1735 732 1735 732 1735 638 c 2,92,-1
 1735 141 l 1,93,-1
 1890 141 l 2,94,95
 1903 141 1903 141 1910 123.5 c 128,-1,96
 1917 106 1917 106 1917 82 c 0,97,98
 1917 51 1917 51 1908.5 25.5 c 128,-1,99
 1900 0 1900 0 1880 0 c 2,0,-1
EndSplineSet
EndChar

StartChar: n
Encoding: 110 110 69
Width: 1311
Flags: MW
HStem: 0 141<85.5 172 96.5 172 453 606 780.5 830.5 1094 1235> 847 174<82 409.5 738 806>
VStem: 258 195<184 718 141 847 141 847> 899 195<184 481 481 593>
LayerCount: 2
Fore
SplineSet
899 184 m 2,0,-1
 899 481 l 2,1,2
 899 544 899 544 897 586.5 c 128,-1,3
 895 629 895 629 889.5 674.5 c 128,-1,4
 884 720 884 720 872.5 748.5 c 128,-1,5
 861 777 861 777 842 801 c 128,-1,6
 823 825 823 825 794.5 836 c 128,-1,7
 766 847 766 847 727 847 c 0,8,9
 679 847 679 847 608 816 c 128,-1,10
 537 785 537 785 453 718 c 1,11,-1
 453 141 l 1,12,-1
 621 141 l 2,13,14
 647 141 647 141 647 80 c 0,15,16
 647 51 647 51 636.5 25.5 c 128,-1,17
 626 0 626 0 606 0 c 2,18,-1
 96 0 l 2,19,20
 70 0 70 0 70 61 c 0,21,22
 70 90 70 90 80.5 115.5 c 128,-1,23
 91 141 91 141 111 141 c 0,24,25
 199 141 199 141 228.5 150.5 c 128,-1,26
 258 160 258 160 258 184 c 2,27,-1
 258 847 l 1,28,-1
 82 847 l 2,29,30
 62 847 62 847 51.5 870 c 128,-1,31
 41 893 41 893 41 921 c 0,32,33
 41 971 41 971 68 982 c 0,34,35
 116 1000 116 1000 212.5 1010.5 c 128,-1,36
 309 1021 309 1021 387 1021 c 0,37,38
 398 1021 398 1021 406 1017.5 c 128,-1,39
 414 1014 414 1014 419 1004.5 c 128,-1,40
 424 995 424 995 426.5 986.5 c 128,-1,41
 429 978 429 978 430.5 960 c 128,-1,42
 432 942 432 942 432 930.5 c 128,-1,43
 432 919 432 919 432 896 c 1,44,45
 523 948 523 948 622 984.5 c 128,-1,46
 721 1021 721 1021 774 1021 c 0,47,48
 868 1021 868 1021 931.5 995.5 c 128,-1,49
 995 970 995 970 1030 917.5 c 128,-1,50
 1065 865 1065 865 1079.5 798.5 c 128,-1,51
 1094 732 1094 732 1094 638 c 2,52,-1
 1094 141 l 1,53,-1
 1249 141 l 2,54,55
 1276 141 1276 141 1276 80 c 0,56,57
 1276 51 1276 51 1265.5 25.5 c 128,-1,58
 1255 0 1255 0 1235 0 c 2,59,-1
 780 0 l 2,60,61
 754 0 754 0 754 61 c 0,62,63
 754 90 754 90 764.5 115.5 c 128,-1,64
 775 141 775 141 795 141 c 0,65,66
 899 141 899 141 899 184 c 2,0,-1
EndSplineSet
EndChar

StartChar: o
Encoding: 111 111 70
Width: 1145
Flags: MW
HStem: -20 154<495.5 662.5 495.5 686> 867 154<513 645>
VStem: 106 205<384 654.5 384 685> 833 205<404.5 632>
LayerCount: 2
Fore
SplineSet
541 -20 m 0,0,1
 405 -20 405 -20 305.5 50 c 128,-1,2
 206 120 206 120 156 239.5 c 128,-1,3
 106 359 106 359 106 512 c 0,4,5
 106 613 106 613 133 697.5 c 128,-1,6
 160 782 160 782 207 841 c 128,-1,7
 254 900 254 900 317.5 941 c 128,-1,8
 381 982 381 982 454 1001.5 c 128,-1,9
 527 1021 527 1021 606 1021 c 0,10,11
 739 1021 739 1021 838 952 c 128,-1,12
 937 883 937 883 987.5 767 c 128,-1,13
 1038 651 1038 651 1038 504 c 0,14,15
 1038 252 1038 252 902 116 c 128,-1,16
 766 -20 766 -20 541 -20 c 0,0,1
311 510 m 0,17,18
 311 326 311 326 381.5 230 c 128,-1,19
 452 134 452 134 575 134 c 0,20,21
 700 134 700 134 766.5 239 c 128,-1,22
 833 344 833 344 833 506 c 0,23,24
 833 687 833 687 761 777 c 128,-1,25
 689 867 689 867 569 867 c 0,26,27
 522 867 522 867 480.5 851 c 128,-1,28
 439 835 439 835 399 798 c 128,-1,29
 359 761 359 761 335 687 c 128,-1,30
 311 613 311 613 311 510 c 0,17,18
EndSplineSet
EndChar

StartChar: p
Encoding: 112 112 71
Width: 1202
Flags: MW
HStem: -438 141<75.5 76 76 151.5 433 641> -14 154<595 684.5 595 767> 847 174<61 389.5 651.5 703.5>
VStem: 238 195<-254 45 -297 195 195 746> 903 205<355.5 645>
LayerCount: 2
Fore
SplineSet
238 847 m 1,0,-1
 61 847 l 2,1,2
 42 847 42 847 31 870 c 128,-1,3
 20 893 20 893 20 921 c 0,4,5
 20 972 20 972 47 982 c 0,6,7
 89 996 89 996 183.5 1008.5 c 128,-1,8
 278 1021 278 1021 367 1021 c 0,9,10
 381 1021 381 1021 389 1017 c 128,-1,11
 397 1013 397 1013 402 1008 c 128,-1,12
 407 1003 407 1003 409 988.5 c 128,-1,13
 411 974 411 974 411.5 962.5 c 128,-1,14
 412 951 412 951 412 924 c 1,15,16
 504 977 504 977 567 999 c 128,-1,17
 630 1021 630 1021 698 1021 c 0,18,19
 879 1021 879 1021 993.5 882 c 128,-1,20
 1108 743 1108 743 1108 506 c 0,21,22
 1108 381 1108 381 1071.5 281.5 c 128,-1,23
 1035 182 1035 182 971 118 c 128,-1,24
 907 54 907 54 820.5 20 c 128,-1,25
 734 -14 734 -14 633 -14 c 0,26,27
 600 -14 600 -14 565 -6 c 128,-1,28
 530 2 530 2 509 10.5 c 128,-1,29
 488 19 488 19 462 31.5 c 128,-1,30
 436 44 436 44 433 45 c 1,31,-1
 433 -297 l 1,32,-1
 655 -297 l 2,33,34
 682 -297 682 -297 682 -358 c 0,35,36
 682 -387 682 -387 671.5 -412.5 c 128,-1,37
 661 -438 661 -438 641 -438 c 2,38,-1
 76 -438 l 2,39,40
 49 -438 49 -438 49 -377 c 0,41,42
 49 -348 49 -348 59.5 -322.5 c 128,-1,43
 70 -297 70 -297 90 -297 c 0,44,45
 179 -297 179 -297 208.5 -287.5 c 128,-1,46
 238 -278 238 -278 238 -254 c 2,47,-1
 238 847 l 1,0,-1
433 746 m 1,48,-1
 433 195 l 1,49,50
 464 170 464 170 502 157 c 128,-1,51
 540 144 540 144 563 142 c 128,-1,52
 586 140 586 140 621 140 c 0,53,54
 674 140 674 140 719.5 155.5 c 128,-1,55
 765 171 765 171 808.5 208.5 c 128,-1,56
 852 246 852 246 877.5 322.5 c 128,-1,57
 903 399 903 399 903 508 c 0,58,59
 903 587 903 587 886.5 648.5 c 128,-1,60
 870 710 870 710 844 746.5 c 128,-1,61
 818 783 818 783 784 806.5 c 128,-1,62
 750 830 750 830 718.5 838.5 c 128,-1,63
 687 847 687 847 655 847 c 0,64,65
 604 847 604 847 540.5 822 c 128,-1,66
 477 797 477 797 433 746 c 1,48,-1
EndSplineSet
EndChar

StartChar: q
Encoding: 113 113 72
Width: 1182
Flags: MW
HStem: -439 141<536.5 645 561 645 645 701.5 977 1126> -20 154<498 562> 867 154<531.5 619.5>
VStem: 106 205<373 652.5 373 682> 782 195<-255 64 64 64 234 763 -298 802 -298 802>
LayerCount: 2
Fore
SplineSet
506 -20 m 0,0,1
 312 -20 312 -20 209 122.5 c 128,-1,2
 106 265 106 265 106 512 c 0,3,4
 106 636 106 636 146 734.5 c 128,-1,5
 186 833 186 833 255.5 894.5 c 128,-1,6
 325 956 325 956 414 988.5 c 128,-1,7
 503 1021 503 1021 604 1021 c 0,8,9
 653 1021 653 1021 725.5 1008.5 c 128,-1,10
 798 996 798 996 842 984 c 1,11,-1
 905 1066 l 1,12,13
 913 1068 913 1068 932 1068 c 0,14,15
 970 1068 970 1068 1006 1050.5 c 128,-1,16
 1042 1033 1042 1033 1055 1009 c 1,17,-1
 977 763 l 1,18,-1
 977 -298 l 1,19,-1
 1141 -298 l 2,20,21
 1167 -298 1167 -298 1167 -357 c 0,22,23
 1167 -388 1167 -388 1156.5 -413.5 c 128,-1,24
 1146 -439 1146 -439 1126 -439 c 2,25,-1
 547 -439 l 2,26,27
 520 -439 520 -439 520 -376 c 0,28,29
 520 -350 520 -350 531 -324 c 128,-1,30
 542 -298 542 -298 561 -298 c 2,31,-1
 645 -298 l 2,32,33
 726 -298 726 -298 754 -288.5 c 128,-1,34
 782 -279 782 -279 782 -255 c 2,35,-1
 782 64 l 1,36,37
 737 28 737 28 661.5 4 c 128,-1,38
 586 -20 586 -20 506 -20 c 0,0,1
782 234 m 1,39,-1
 782 802 l 1,40,41
 700 867 700 867 594 867 c 0,42,43
 554 867 554 867 516.5 857.5 c 128,-1,44
 479 848 479 848 440.5 823 c 128,-1,45
 402 798 402 798 374 759 c 128,-1,46
 346 720 346 720 328.5 656 c 128,-1,47
 311 592 311 592 311 510 c 0,48,49
 311 412 311 412 333.5 336.5 c 128,-1,50
 356 261 356 261 392.5 218.5 c 128,-1,51
 429 176 429 176 468.5 155 c 128,-1,52
 508 134 508 134 547 134 c 128,-1,53
 586 134 586 134 622 143 c 128,-1,54
 658 152 658 152 690.5 170.5 c 128,-1,55
 723 189 723 189 738.5 200.5 c 128,-1,56
 754 212 754 212 782 234 c 1,39,-1
EndSplineSet
EndChar

StartChar: r
Encoding: 114 114 73
Width: 947
Flags: MW
HStem: 0 141<82 170 97.5 170 451 676> 843 178<80 405.5>
VStem: 256 195<184 665 141 843 141 843> 633 264<831.5 860>
LayerCount: 2
Fore
SplineSet
756 734 m 0,0,1
 707 734 707 734 670 774 c 128,-1,2
 633 814 633 814 633 860 c 1,3,4
 575 833 575 833 540.5 793 c 128,-1,5
 506 753 506 753 451 665 c 1,6,-1
 451 141 l 1,7,-1
 694 141 l 2,8,9
 717 141 717 141 717 80 c 0,10,11
 717 50 717 50 707 25 c 128,-1,12
 697 0 697 0 676 0 c 2,13,-1
 94 0 l 2,14,15
 66 0 66 0 66 63 c 0,16,17
 66 92 66 92 79 116.5 c 128,-1,18
 92 141 92 141 109 141 c 0,19,20
 197 141 197 141 226.5 150.5 c 128,-1,21
 256 160 256 160 256 184 c 2,22,-1
 256 843 l 1,23,-1
 80 843 l 2,24,25
 60 843 60 843 50.5 867 c 128,-1,26
 41 891 41 891 41 921 c 0,27,28
 41 971 41 971 66 982 c 0,29,30
 113 1002 113 1002 208 1011.5 c 128,-1,31
 303 1021 303 1021 383 1021 c 0,32,33
 405 1021 405 1021 415 1011 c 128,-1,34
 425 1001 425 1001 426.5 988.5 c 128,-1,35
 428 976 428 976 428 947 c 0,36,37
 428 939 428 939 427 907.5 c 128,-1,38
 426 876 426 876 426 861 c 1,39,40
 505 932 505 932 587.5 976.5 c 128,-1,41
 670 1021 670 1021 731 1021 c 0,42,43
 777 1021 777 1021 811.5 1006 c 128,-1,44
 846 991 846 991 863.5 967 c 128,-1,45
 881 943 881 943 889 919 c 128,-1,46
 897 895 897 895 897 871 c 0,47,48
 897 812 897 812 856 773 c 128,-1,49
 815 734 815 734 756 734 c 0,0,1
EndSplineSet
EndChar

StartChar: s
Encoding: 115 115 74
Width: 948
Flags: MW
HStem: -20 154<416 481 481 541.5 367 609.5> 880 141<438 489 489 571 409.5 588>
VStem: 96 275<180 224 180 225> 114 195<701 783 701 853> 576 275<778 824> 672 195<235 317.5>
LayerCount: 2
Fore
SplineSet
714 681 m 0,0,1
 655 681 655 681 615.5 719.5 c 128,-1,2
 576 758 576 758 576 818 c 0,3,4
 576 825 576 825 582 852 c 128,-1,5
 588 879 588 879 588 880 c 1,6,-1
 489 880 l 2,7,8
 412 880 412 880 360.5 841.5 c 128,-1,9
 309 803 309 803 309 742 c 0,10,11
 309 718 309 718 322 697.5 c 128,-1,12
 335 677 335 677 350.5 664 c 128,-1,13
 366 651 366 651 399 636 c 128,-1,14
 432 621 432 621 452.5 613.5 c 128,-1,15
 473 606 473 606 514 592 c 0,16,17
 577 571 577 571 616 556.5 c 128,-1,18
 655 542 655 542 700.5 520 c 128,-1,19
 746 498 746 498 772.5 475 c 128,-1,20
 799 452 799 452 823 420 c 128,-1,21
 847 388 847 388 857 346.5 c 128,-1,22
 867 305 867 305 867 253 c 0,23,24
 867 135 867 135 765 57.5 c 128,-1,25
 663 -20 663 -20 498 -20 c 0,26,27
 432 -20 432 -20 365.5 -9 c 128,-1,28
 299 2 299 2 236.5 24.5 c 128,-1,29
 174 47 174 47 135 88.5 c 128,-1,30
 96 130 96 130 96 184 c 0,31,32
 96 245 96 245 135.5 283.5 c 128,-1,33
 175 322 175 322 234 322 c 0,34,35
 292 322 292 322 331.5 283 c 128,-1,36
 371 244 371 244 371 184 c 0,37,38
 371 152 371 152 367 134 c 1,39,-1
 481 134 l 2,40,41
 570 134 570 134 621 173.5 c 128,-1,42
 672 213 672 213 672 277 c 0,43,44
 672 335 672 335 620.5 368.5 c 128,-1,45
 569 402 569 402 425 446 c 0,46,47
 348 470 348 470 297.5 492.5 c 128,-1,48
 247 515 247 515 202 549.5 c 128,-1,49
 157 584 157 584 135.5 633 c 128,-1,50
 114 682 114 682 114 748 c 0,51,52
 114 823 114 823 149.5 878.5 c 128,-1,53
 185 934 185 934 243 963.5 c 128,-1,54
 301 993 301 993 362.5 1007 c 128,-1,55
 424 1021 424 1021 489 1021 c 0,56,57
 555 1021 555 1021 615.5 1010.5 c 128,-1,58
 676 1000 676 1000 730.5 977.5 c 128,-1,59
 785 955 785 955 818 914 c 128,-1,60
 851 873 851 873 851 818 c 0,61,62
 851 759 851 759 811.5 720 c 128,-1,63
 772 681 772 681 714 681 c 0,0,1
EndSplineSet
EndChar

StartChar: t
Encoding: 116 116 75
Width: 791
Flags: MW
HStem: -20 165<369.5 512> 847 154<63 145.5 63 231 41 145.5 426 676>
VStem: 231 195<257 847>
LayerCount: 2
Fore
SplineSet
231 257 m 2,0,-1
 231 847 l 1,1,-1
 41 847 l 1,2,3
 41 870 41 870 41.5 884 c 128,-1,4
 42 898 42 898 43 918.5 c 128,-1,5
 44 939 44 939 47 951.5 c 128,-1,6
 50 964 50 964 54.5 976.5 c 128,-1,7
 59 989 59 989 66.5 995 c 128,-1,8
 74 1001 74 1001 84 1001 c 0,9,10
 174 1001 174 1001 211 1011 c 128,-1,11
 248 1021 248 1021 253 1044 c 2,12,-1
 296 1265 l 2,13,14
 307 1320 307 1320 426 1320 c 1,15,-1
 426 1001 l 1,16,-1
 696 1001 l 2,17,18
 721 1001 721 1001 721 942 c 0,19,20
 721 908 721 908 709 877.5 c 128,-1,21
 697 847 697 847 676 847 c 2,22,-1
 426 847 l 1,23,-1
 426 257 l 2,24,25
 426 145 426 145 492 145 c 0,26,27
 566 145 566 145 623 165 c 0,28,29
 630 168 630 168 639 168 c 0,30,31
 665 168 665 168 683 142 c 128,-1,32
 701 116 701 116 701 87 c 128,-1,33
 701 58 701 58 682 48 c 0,34,35
 552 -20 552 -20 436 -20 c 0,36,37
 231 -20 231 -20 231 257 c 2,0,-1
EndSplineSet
EndChar

StartChar: u
Encoding: 117 117 76
Width: 1268
Flags: MW
HStem: -20 186<527 617.5> -16 157<917.5 1200> 0 21G 847 131 847 174<72 385>
VStem: 213 195<338 411 411 847 847 847> 837 195<264 847 847 847>
LayerCount: 2
Fore
SplineSet
213 338 m 2,0,-1
 213 847 l 1,1,-1
 72 847 l 2,2,3
 54 847 54 847 44.5 870 c 128,-1,4
 35 893 35 893 35 923 c 0,5,6
 35 973 35 973 55 978 c 0,7,8
 128 996 128 996 220 1008.5 c 128,-1,9
 312 1021 312 1021 362 1021 c 0,10,11
 378 1021 378 1021 388 1011.5 c 128,-1,12
 398 1002 398 1002 402 980 c 128,-1,13
 406 958 406 958 407 942 c 128,-1,14
 408 926 408 926 408 894 c 2,15,-1
 408 411 l 2,16,17
 408 277 408 277 452 221.5 c 128,-1,18
 496 166 496 166 575 166 c 0,19,20
 624 166 624 166 665.5 174.5 c 128,-1,21
 707 183 707 183 741.5 201.5 c 128,-1,22
 776 220 776 220 792.5 231 c 128,-1,23
 809 242 809 242 837 264 c 1,24,-1
 837 847 l 1,25,-1
 700 847 l 2,26,27
 680 847 680 847 669.5 870 c 128,-1,28
 659 893 659 893 659 921 c 0,29,30
 659 967 659 967 686 978 c 0,31,32
 734 999 734 999 821.5 1010 c 128,-1,33
 909 1021 909 1021 981 1021 c 0,34,35
 999 1021 999 1021 1010 1011.5 c 128,-1,36
 1021 1002 1021 1002 1025.5 980 c 128,-1,37
 1030 958 1030 958 1031 942 c 128,-1,38
 1032 926 1032 926 1032 894 c 2,39,-1
 1032 141 l 1,40,-1
 1200 141 l 2,41,42
 1211 141 1211 141 1219 120.5 c 128,-1,43
 1227 100 1227 100 1227 76 c 0,44,45
 1227 6 1227 6 1186 0 c 0,46,47
 1077 -16 1077 -16 942 -16 c 0,48,49
 908 -16 908 -16 889 9.5 c 128,-1,50
 870 35 870 35 848 96 c 1,51,52
 693 -20 693 -20 561 -20 c 0,53,54
 396 -20 396 -20 304.5 71 c 128,-1,55
 213 162 213 162 213 338 c 2,0,-1
EndSplineSet
EndChar

StartChar: v
Encoding: 118 118 77
Width: 1112
Flags: MW
HStem: 0 21G<485 485 637 637> 860 141<27.5 485 51 150 437.5 484 700 821 1027 1071.5>
VStem: 12 1088<925.5 936>
LayerCount: 2
Fore
SplineSet
485 0 m 2,0,-1
 150 860 l 1,1,-1
 38 860 l 2,2,3
 12 860 12 860 12 920 c 0,4,5
 12 949 12 949 22 975 c 128,-1,6
 32 1001 32 1001 51 1001 c 2,7,-1
 485 1001 l 2,8,9
 510 1001 510 1001 510 944 c 0,10,11
 510 914 510 914 499.5 887 c 128,-1,12
 489 860 489 860 469 860 c 0,13,14
 422 860 422 860 401.5 850 c 128,-1,15
 381 840 381 840 381 817 c 1,16,-1
 579 268 l 1,17,-1
 821 860 l 1,18,-1
 690 860 l 2,19,20
 664 860 664 860 664 918 c 0,21,22
 664 948 664 948 673.5 974.5 c 128,-1,23
 683 1001 683 1001 700 1001 c 2,24,-1
 1075 1001 l 2,25,26
 1100 1001 1100 1001 1100 944 c 0,27,28
 1100 914 1100 914 1088.5 887 c 128,-1,29
 1077 860 1077 860 1059 860 c 0,30,31
 1014 860 1014 860 997.5 850.5 c 128,-1,32
 981 841 981 841 971 817 c 2,33,-1
 637 0 l 2,34,35
 629 -20 629 -20 553 -20 c 0,36,37
 493 -20 493 -20 485 0 c 2,0,-1
EndSplineSet
EndChar

StartChar: w
Encoding: 119 119 78
Width: 1589
Flags: MW
HStem: 0 21G<407 407 566 566 1040 1040 1187 1187> 860 141<26.5 485 51 166 437.5 484 1160 1281 1487 1535 1535 1535.5>
VStem: 12 1547<928 939>
LayerCount: 2
Fore
SplineSet
407 0 m 2,0,-1
 166 860 l 1,1,-1
 37 860 l 2,2,3
 12 860 12 860 12 921 c 0,4,5
 12 950 12 950 23 975.5 c 128,-1,6
 34 1001 34 1001 51 1001 c 2,7,-1
 485 1001 l 2,8,9
 510 1001 510 1001 510 944 c 0,10,11
 510 914 510 914 499.5 887 c 128,-1,12
 489 860 489 860 469 860 c 0,13,14
 422 860 422 860 401.5 850 c 128,-1,15
 381 840 381 840 381 817 c 1,16,-1
 517 292 l 1,17,-1
 766 906 l 2,18,19
 774 925 774 925 816 925 c 0,20,21
 860 925 860 925 868 907 c 2,22,-1
 1122 278 l 1,23,-1
 1281 860 l 1,24,-1
 1150 860 l 2,25,26
 1124 860 1124 860 1124 919 c 0,27,28
 1124 948 1124 948 1134 974.5 c 128,-1,29
 1144 1001 1144 1001 1160 1001 c 2,30,-1
 1535 1001 l 2,31,32
 1546 1001 1546 1001 1552.5 984 c 128,-1,33
 1559 967 1559 967 1559 944 c 0,34,35
 1559 860 1559 860 1519 860 c 0,36,37
 1473 860 1473 860 1455.5 850.5 c 128,-1,38
 1438 841 1438 841 1431 817 c 2,39,-1
 1187 0 l 2,40,41
 1181 -20 1181 -20 1119 -20 c 0,42,43
 1048 -20 1048 -20 1040 0 c 2,44,-1
 805 587 l 1,45,-1
 566 0 l 2,46,47
 558 -20 558 -20 489 -20 c 0,48,49
 413 -20 413 -20 407 0 c 2,0,-1
EndSplineSet
EndChar

StartChar: x
Encoding: 120 120 79
Width: 1163
Flags: MW
HStem: 0 141<41.5 105 59 105 388 420 681 764 1071.5 1091> 860 141<52.5 512 75 185 474.5 508 715 809 1051 1096>
VStem: 28 1104<63.5 80.5>
LayerCount: 2
Fore
SplineSet
1091 0 m 2,0,-1
 666 0 l 2,1,2
 639 0 639 0 639 61 c 0,3,4
 639 90 639 90 653 115.5 c 128,-1,5
 667 141 667 141 681 141 c 2,6,-1
 764 141 l 1,7,-1
 543 415 l 1,8,-1
 377 171 l 2,9,10
 370 161 370 161 370 154 c 0,11,12
 370 141 370 141 388 141 c 2,13,-1
 435 141 l 2,14,15
 461 141 461 141 461 81 c 0,16,17
 461 52 461 52 450.5 26 c 128,-1,18
 440 0 440 0 420 0 c 2,19,-1
 54 0 l 2,20,21
 28 0 28 0 28 61 c 0,22,23
 28 90 28 90 41 115.5 c 128,-1,24
 54 141 54 141 69 141 c 0,25,26
 169 141 169 141 212 196 c 2,27,-1
 458 520 l 1,28,-1
 185 860 l 1,29,-1
 63 860 l 2,30,31
 36 860 36 860 36 918 c 0,32,33
 36 948 36 948 46.5 974.5 c 128,-1,34
 57 1001 57 1001 75 1001 c 2,35,-1
 512 1001 l 2,36,37
 535 1001 535 1001 535 944 c 0,38,39
 535 913 535 913 524.5 886.5 c 128,-1,40
 514 860 514 860 493 860 c 0,41,42
 429 860 429 860 429 842 c 0,43,44
 429 835 429 835 436 826 c 2,45,-1
 617 598 l 1,46,-1
 809 860 l 1,47,-1
 705 860 l 2,48,49
 679 860 679 860 679 919 c 0,50,51
 679 948 679 948 688.5 974.5 c 128,-1,52
 698 1001 698 1001 715 1001 c 2,53,-1
 1099 1001 l 2,54,55
 1123 1001 1123 1001 1123 943 c 0,56,57
 1123 913 1123 913 1112 886.5 c 128,-1,58
 1101 860 1101 860 1083 860 c 0,59,60
 1039 860 1039 860 1015 849 c 128,-1,61
 991 838 991 838 973 817 c 2,62,-1
 699 496 l 1,63,-1
 938 197 l 2,64,65
 967 161 967 161 1005 151 c 128,-1,66
 1043 141 1043 141 1106 141 c 0,67,68
 1132 141 1132 141 1132 80 c 0,69,70
 1132 51 1132 51 1121.5 25.5 c 128,-1,71
 1111 0 1111 0 1091 0 c 2,0,-1
EndSplineSet
EndChar

StartChar: y
Encoding: 121 121 80
Width: 1112
Flags: MW
HStem: -440 21G<219.5 337.5> -440 154<323 334 323 337.5> 860 141<27.5 485 51 150 437.5 483 700 821 1027 1071.5>
VStem: 51 272<-286 -246 -286 -226>
LayerCount: 2
Fore
SplineSet
971 817 m 2,0,-1
 549 -260 l 2,1,2
 516 -344 516 -344 443 -392 c 128,-1,3
 370 -440 370 -440 268 -440 c 0,4,5
 229 -440 229 -440 192.5 -431 c 128,-1,6
 156 -422 156 -422 123.5 -402.5 c 128,-1,7
 91 -383 91 -383 71 -348 c 128,-1,8
 51 -313 51 -313 51 -266 c 0,9,10
 51 -206 51 -206 90 -166.5 c 128,-1,11
 129 -127 129 -127 188 -127 c 0,12,13
 260 -127 260 -127 291.5 -172 c 128,-1,14
 323 -217 323 -217 323 -286 c 1,15,16
 355 -286 355 -286 380 -248 c 0,17,18
 400 -216 400 -216 419 -172.5 c 128,-1,19
 438 -129 438 -129 449 -96 c 128,-1,20
 460 -63 460 -63 470.5 -30.5 c 128,-1,21
 481 2 481 2 482 6 c 1,22,-1
 150 860 l 1,23,-1
 38 860 l 2,24,25
 12 860 12 860 12 920 c 0,26,27
 12 949 12 949 22 975 c 128,-1,28
 32 1001 32 1001 51 1001 c 2,29,-1
 485 1001 l 2,30,31
 510 1001 510 1001 510 944 c 0,32,33
 510 915 510 915 499 887.5 c 128,-1,34
 488 860 488 860 469 860 c 0,35,36
 422 860 422 860 401.5 850 c 128,-1,37
 381 840 381 840 381 817 c 1,38,-1
 584 223 l 1,39,-1
 821 860 l 1,40,-1
 690 860 l 2,41,42
 664 860 664 860 664 918 c 0,43,44
 664 948 664 948 673.5 974.5 c 128,-1,45
 683 1001 683 1001 700 1001 c 2,46,-1
 1075 1001 l 2,47,48
 1100 1001 1100 1001 1100 944 c 0,49,50
 1100 914 1100 914 1088.5 887 c 128,-1,51
 1077 860 1077 860 1059 860 c 0,52,53
 1014 860 1014 860 997 850.5 c 128,-1,54
 980 841 980 841 971 817 c 2,0,-1
EndSplineSet
EndChar

StartChar: z
Encoding: 122 122 81
Width: 1041
Flags: MW
HStem: 0 150<352 795 352 893> 851 150<291 718 291 291>
VStem: 101 865<237 737>
LayerCount: 2
Fore
SplineSet
115 0 m 1,0,-1
 115 110 l 1,1,-1
 718 851 l 1,2,-1
 291 851 l 1,3,-1
 261 741 l 2,4,5
 256 721 256 721 229.5 710 c 128,-1,6
 203 699 203 699 170 699 c 0,7,8
 142 699 142 699 121.5 708 c 128,-1,9
 101 717 101 717 101 736 c 0,10,11
 101 737 101 737 102 741 c 128,-1,12
 103 745 103 745 104 750.5 c 128,-1,13
 105 756 105 756 105 759 c 2,14,-1
 149 1001 l 1,15,-1
 949 1001 l 1,16,-1
 949 890 l 1,17,-1
 352 150 l 1,18,-1
 795 150 l 1,19,-1
 842 259 l 2,20,21
 850 280 850 280 889 280 c 0,22,23
 917 280 917 280 941.5 268 c 128,-1,24
 966 256 966 256 966 238 c 0,25,26
 966 233 966 233 965 231 c 2,27,-1
 893 0 l 1,28,-1
 115 0 l 1,0,-1
EndSplineSet
EndChar

StartChar: braceleft
Encoding: 123 123 82
Width: 800
Flags: MW
HStem: -160 141<454 707 628 707 628 707> 1530 141<557 628 628 707>
VStem: 276 195<150 157 157 457 891 903 903 1346>
LayerCount: 2
Fore
SplineSet
276 150 m 2,0,-1
 276 471 l 2,1,2
 276 547 276 547 254 574.5 c 128,-1,3
 232 602 232 602 161 611 c 0,4,5
 147 613 147 613 139.5 635.5 c 128,-1,6
 132 658 132 658 132 683 c 0,7,8
 132 745 132 745 161 750 c 0,9,10
 231 760 231 760 253.5 788.5 c 128,-1,11
 276 817 276 817 276 891 c 2,12,-1
 276 1352 l 2,13,14
 276 1524 276 1524 341 1597.5 c 128,-1,15
 406 1671 406 1671 543 1671 c 2,16,-1
 707 1671 l 2,17,18
 735 1671 735 1671 735 1602 c 0,19,20
 735 1530 735 1530 707 1530 c 2,21,-1
 628 1530 l 2,22,23
 576 1530 576 1530 544 1519 c 128,-1,24
 512 1508 512 1508 496.5 1481.5 c 128,-1,25
 481 1455 481 1455 476 1425.5 c 128,-1,26
 471 1396 471 1396 471 1346 c 2,27,-1
 471 903 l 2,28,29
 471 823 471 823 427 764.5 c 128,-1,30
 383 706 383 706 291 682 c 1,31,32
 471 630 471 630 471 457 c 2,33,-1
 471 157 l 2,34,35
 471 116 471 116 473 92.5 c 128,-1,36
 475 69 475 69 483.5 44.5 c 128,-1,37
 492 20 492 20 509 8 c 128,-1,38
 526 -4 526 -4 555 -11.5 c 128,-1,39
 584 -19 584 -19 628 -19 c 2,40,-1
 707 -19 l 2,41,42
 735 -19 735 -19 735 -89 c 0,43,44
 735 -160 735 -160 707 -160 c 2,45,-1
 543 -160 l 2,46,47
 404 -160 404 -160 340 -90.5 c 128,-1,48
 276 -21 276 -21 276 150 c 2,0,-1
EndSplineSet
EndChar

StartChar: bar
Encoding: 124 124 83
Width: 760
Flags: MW
HStem: -483 2119<369.5 393.5 367.5 395.5>
VStem: 303 154<-455 1608>
LayerCount: 2
Fore
SplineSet
303 -455 m 2,0,-1
 303 1608 l 2,1,2
 303 1636 303 1636 381 1636 c 0,3,4
 457 1636 457 1636 457 1608 c 2,5,-1
 457 -455 l 2,6,7
 457 -483 457 -483 383 -483 c 0,8,9
 303 -483 303 -483 303 -455 c 2,0,-1
EndSplineSet
EndChar

StartChar: braceright
Encoding: 125 125 84
Width: 800
Flags: MW
HStem: -160 141<79 172 93 172 172 245.5 93 257> 1530 141<81.5 257 93 172>
VStem: 329 195<157 457 457 471 903 1346 1346 1352>
LayerCount: 2
Fore
SplineSet
524 471 m 2,0,-1
 524 150 l 2,1,2
 524 -21 524 -21 460 -90.5 c 128,-1,3
 396 -160 396 -160 257 -160 c 2,4,-1
 93 -160 l 2,5,6
 65 -160 65 -160 65 -89 c 0,7,8
 65 -19 65 -19 93 -19 c 2,9,-1
 172 -19 l 2,10,11
 216 -19 216 -19 245 -11.5 c 128,-1,12
 274 -4 274 -4 291 8 c 128,-1,13
 308 20 308 20 316.5 44.5 c 128,-1,14
 325 69 325 69 327 92.5 c 128,-1,15
 329 116 329 116 329 157 c 2,16,-1
 329 457 l 2,17,18
 329 630 329 630 509 682 c 1,19,20
 417 706 417 706 373 764.5 c 128,-1,21
 329 823 329 823 329 903 c 2,22,-1
 329 1346 l 2,23,24
 329 1396 329 1396 324 1425.5 c 128,-1,25
 319 1455 319 1455 303.5 1481.5 c 128,-1,26
 288 1508 288 1508 256 1519 c 128,-1,27
 224 1530 224 1530 172 1530 c 2,28,-1
 93 1530 l 2,29,30
 65 1530 65 1530 65 1602 c 0,31,32
 65 1671 65 1671 93 1671 c 2,33,-1
 257 1671 l 2,34,35
 394 1671 394 1671 459 1597.5 c 128,-1,36
 524 1524 524 1524 524 1352 c 2,37,-1
 524 891 l 2,38,39
 524 817 524 817 546.5 788.5 c 128,-1,40
 569 760 569 760 639 750 c 0,41,42
 668 745 668 745 668 683 c 0,43,44
 668 658 668 658 660.5 635.5 c 128,-1,45
 653 613 653 613 639 611 c 0,46,47
 568 602 568 602 546 574.5 c 128,-1,48
 524 547 524 547 524 471 c 2,0,-1
EndSplineSet
EndChar

StartChar: asciitilde
Encoding: 126 126 85
Width: 1198
Flags: MW
HStem: 442 168<800 890 800 923> 575 181<332 425>
VStem: 113 1005<533.5 669.5>
LayerCount: 2
Fore
SplineSet
207 465 m 1,0,1
 168 465 168 465 140.5 493 c 128,-1,2
 113 521 113 521 113 557 c 1,3,4
 128 583 128 583 149 610 c 128,-1,5
 170 637 170 637 206.5 673.5 c 128,-1,6
 243 710 243 710 294.5 733 c 128,-1,7
 346 756 346 756 401 756 c 0,8,9
 457 756 457 756 629 683 c 128,-1,10
 801 610 801 610 852 610 c 0,11,12
 886 610 886 610 917.5 633.5 c 128,-1,13
 949 657 949 657 980.5 694.5 c 128,-1,14
 1012 732 1012 732 1020 739 c 1,15,16
 1058 739 1058 739 1088 710 c 128,-1,17
 1118 681 1118 681 1118 647 c 1,18,19
 1108 623 1108 623 1088.5 593.5 c 128,-1,20
 1069 564 1069 564 1035 527 c 128,-1,21
 1001 490 1001 490 949.5 466 c 128,-1,22
 898 442 898 442 840 442 c 0,23,24
 780 442 780 442 685 475 c 128,-1,25
 590 508 590 508 503 541.5 c 128,-1,26
 416 575 416 575 377 575 c 0,27,28
 346 575 346 575 316.5 560.5 c 128,-1,29
 287 546 287 546 269.5 529.5 c 128,-1,30
 252 513 252 513 232.5 491.5 c 128,-1,31
 213 470 213 470 207 465 c 1,0,1
EndSplineSet
EndChar

StartChar: exclamdown
Encoding: 161 161 87
Width: 575
Flags: MW
HStem: -439 21G<264.5 312.5> 761 279<258 335.5>
VStem: 155 275<861 941>
LayerCount: 2
Fore
SplineSet
430 900 m 0,0,1
 430 841 430 841 392 801 c 128,-1,2
 354 761 354 761 297 761 c 0,3,4
 238 761 238 761 196.5 801.5 c 128,-1,5
 155 842 155 842 155 900 c 0,6,7
 155 961 155 961 196.5 1000.5 c 128,-1,8
 238 1040 238 1040 297 1040 c 0,9,10
 355 1040 355 1040 392.5 1000.5 c 128,-1,11
 430 961 430 961 430 900 c 0,0,1
380 582 m 1,12,-1
 427 -409 l 1,13,14
 379 -439 379 -439 291 -439 c 0,15,16
 251 -439 251 -439 213.5 -429.5 c 128,-1,17
 176 -420 176 -420 161 -407 c 1,18,-1
 211 585 l 2,19,20
 212 603 212 603 238.5 614.5 c 128,-1,21
 265 626 265 626 294 626 c 0,22,23
 380 626 380 626 380 582 c 1,12,-1
EndSplineSet
EndChar

StartChar: currency
Encoding: 164 164 88
Width: 1200
Flags: MW
HStem: 175 190<548.5 642.5> 938 183<547.5 641.5 547.5 676.5>
VStem: 140 200<600.5 698> 856 191<602.5 694.5 602.5 728.5>
LayerCount: 2
Fore
SplineSet
366 244 m 1,0,-1
 253 126 l 1,1,2
 196 126 196 126 151 171 c 128,-1,3
 106 216 106 216 106 267 c 1,4,-1
 222 384 l 1,5,6
 140 508 140 508 140 649 c 0,7,8
 140 792 140 792 220 912 c 1,9,-1
 104 1028 l 1,10,11
 104 1088 104 1088 149.5 1129.5 c 128,-1,12
 195 1171 195 1171 251 1171 c 1,13,-1
 367 1055 l 1,14,15
 422 1090 422 1090 474 1105.5 c 128,-1,16
 526 1121 526 1121 595 1121 c 0,17,18
 718 1121 718 1121 825 1048 c 1,19,-1
 947 1173 l 1,20,21
 1003 1173 1003 1173 1048.5 1131 c 128,-1,22
 1094 1089 1094 1089 1094 1032 c 1,23,-1
 969 905 l 1,24,25
 1047 785 1047 785 1047 649 c 0,26,27
 1047 512 1047 512 973 395 c 1,28,-1
 1096 271 l 1,29,30
 1096 218 1096 218 1049 173 c 128,-1,31
 1002 128 1002 128 948 128 c 1,32,-1
 827 250 l 1,33,34
 717 175 717 175 595 175 c 0,35,36
 472 175 472 175 366 244 c 1,0,-1
597 365 m 0,37,38
 713 365 713 365 784.5 447 c 128,-1,39
 856 529 856 529 856 649 c 0,40,41
 856 772 856 772 784.5 855 c 128,-1,42
 713 938 713 938 597 938 c 0,43,44
 484 938 484 938 412 854.5 c 128,-1,45
 340 771 340 771 340 649 c 0,46,47
 340 530 340 530 412 447.5 c 128,-1,48
 484 365 484 365 597 365 c 0,37,38
EndSplineSet
EndChar

StartChar: brokenbar
Encoding: 166 166 89
Width: 760
Flags: MW
HStem: -483 2119<369.5 393.5 367.5 395.5>
VStem: 303 154<-455 516 694 1608>
LayerCount: 2
Fore
SplineSet
457 694 m 1,0,-1
 303 694 l 1,1,-1
 303 1608 l 2,2,3
 303 1636 303 1636 381 1636 c 0,4,5
 457 1636 457 1636 457 1608 c 2,6,-1
 457 694 l 1,0,-1
303 516 m 1,7,-1
 457 516 l 1,8,-1
 457 -455 l 2,9,10
 457 -483 457 -483 383 -483 c 0,11,12
 303 -483 303 -483 303 -455 c 2,13,-1
 303 516 l 1,7,-1
EndSplineSet
EndChar

StartChar: dieresis
Encoding: 168 168 90
Width: 1065
Flags: MW
HStem: 1190 276<272 352 726 806>
VStem: 178 273<1287 1367> 631 272<1287 1367>
LayerCount: 2
Fore
SplineSet
311 1190 m 0,0,1
 253 1190 253 1190 215.5 1228.5 c 128,-1,2
 178 1267 178 1267 178 1327 c 128,-1,3
 178 1387 178 1387 215.5 1426.5 c 128,-1,4
 253 1466 253 1466 311 1466 c 0,5,6
 372 1466 372 1466 411.5 1426.5 c 128,-1,7
 451 1387 451 1387 451 1327 c 128,-1,8
 451 1267 451 1267 411.5 1228.5 c 128,-1,9
 372 1190 372 1190 311 1190 c 0,0,1
766 1190 m 128,-1,11
 706 1190 706 1190 668.5 1228.5 c 128,-1,12
 631 1267 631 1267 631 1327 c 128,-1,13
 631 1387 631 1387 668.5 1426.5 c 128,-1,14
 706 1466 706 1466 766 1466 c 128,-1,15
 826 1466 826 1466 864.5 1426.5 c 128,-1,16
 903 1387 903 1387 903 1327 c 128,-1,17
 903 1267 903 1267 864.5 1228.5 c 128,-1,10
 826 1190 826 1190 766 1190 c 128,-1,11
EndSplineSet
EndChar

StartChar: copyright
Encoding: 169 169 91
Width: 1852
Flags: MW
HStem: -20 118<744.5 1107 744.5 1140.5> 223 154<836.5 973.5 836.5 993.5> 1113 154<872.5 943> 1407 118<744.5 1107>
VStem: 150 131<570 933 570 966.5> 448 205<627 894 627 920> 1012 274<1034.5 1079.5> 1571 131<570 933>
LayerCount: 2
Fore
SplineSet
150 752 m 0,0,1
 150 963 150 963 254 1141 c 128,-1,2
 358 1319 358 1319 536.5 1422 c 128,-1,3
 715 1525 715 1525 926 1525 c 128,-1,4
 1137 1525 1137 1525 1315.5 1422 c 128,-1,5
 1494 1319 1494 1319 1598 1141 c 128,-1,6
 1702 963 1702 963 1702 752 c 0,7,8
 1702 594 1702 594 1640.5 451 c 128,-1,9
 1579 308 1579 308 1475 205 c 128,-1,10
 1371 102 1371 102 1227.5 41 c 128,-1,11
 1084 -20 1084 -20 926 -20 c 128,-1,12
 768 -20 768 -20 624.5 41 c 128,-1,13
 481 102 481 102 377 205 c 128,-1,14
 273 308 273 308 211.5 451 c 128,-1,15
 150 594 150 594 150 752 c 0,0,1
281 752 m 128,-1,17
 281 573 281 573 366 422.5 c 128,-1,18
 451 272 451 272 599.5 185 c 128,-1,19
 748 98 748 98 926 98 c 0,20,21
 1059 98 1059 98 1179 149.5 c 128,-1,22
 1299 201 1299 201 1384.5 288.5 c 128,-1,23
 1470 376 1470 376 1520.5 497 c 128,-1,24
 1571 618 1571 618 1571 752 c 128,-1,25
 1571 886 1571 886 1520.5 1007 c 128,-1,26
 1470 1128 1470 1128 1384.5 1215.5 c 128,-1,27
 1299 1303 1299 1303 1179 1355 c 128,-1,28
 1059 1407 1059 1407 926 1407 c 0,29,30
 748 1407 748 1407 599.5 1319.5 c 128,-1,31
 451 1232 451 1232 366 1081.5 c 128,-1,16
 281 931 281 931 281 752 c 128,-1,17
1149 937 m 128,-1,33
 1090 937 1090 937 1051 976 c 128,-1,34
 1012 1015 1012 1015 1012 1074 c 0,35,36
 1012 1093 1012 1093 1014 1103 c 1,37,38
 978 1113 978 1113 928 1113 c 0,39,40
 882 1113 882 1113 837.5 1095.5 c 128,-1,41
 793 1078 793 1078 749.5 1039.5 c 128,-1,42
 706 1001 706 1001 679.5 927 c 128,-1,43
 653 853 653 853 653 753 c 0,44,45
 653 568 653 568 723 472.5 c 128,-1,46
 793 377 793 377 917 377 c 0,47,48
 969 377 969 377 1030 398 c 128,-1,49
 1091 419 1091 419 1127.5 439.5 c 128,-1,50
 1164 460 1164 460 1227 499 c 1,51,52
 1261 490 1261 490 1285 458 c 128,-1,53
 1309 426 1309 426 1309 390 c 0,54,55
 1309 382 1309 382 1305 366 c 1,56,57
 1127 223 1127 223 889 223 c 0,58,59
 680 223 680 223 564 366 c 128,-1,60
 448 509 448 509 448 753 c 0,61,62
 448 915 448 915 515.5 1033.5 c 128,-1,63
 583 1152 583 1152 693 1209.5 c 128,-1,64
 803 1267 803 1267 940 1267 c 0,65,66
 1002 1267 1002 1267 1058.5 1257.5 c 128,-1,67
 1115 1248 1115 1248 1168.5 1227.5 c 128,-1,68
 1222 1207 1222 1207 1254 1167.5 c 128,-1,69
 1286 1128 1286 1128 1286 1074 c 0,70,71
 1286 1015 1286 1015 1247 976 c 128,-1,32
 1208 937 1208 937 1149 937 c 128,-1,33
EndSplineSet
EndChar

StartChar: ordfeminine
Encoding: 170 170 92
Width: 1065
Flags: MW
HStem: 600 127<219.5 839 230 839> 859 116<405 436> 862 100<670 850> 1160 97<439 460 460 621> 1435 90<467 508>
VStem: 211 129<1021 1082 1021 1106.5> 241 172<1372 1404.5 1372 1452.5> 621 123<1037 1160 1160 1160 1257 1283 962 1321.5>
LayerCount: 2
Fore
SplineSet
230 727 m 2,0,-1
 839 727 l 2,1,2
 853 727 853 727 861 707 c 128,-1,3
 869 687 869 687 869 666 c 0,4,5
 869 644 869 644 861 622 c 128,-1,6
 853 600 853 600 839 600 c 2,7,-1
 230 600 l 2,8,9
 216 600 216 600 207.5 620.5 c 128,-1,10
 199 641 199 641 199 662 c 0,11,12
 199 685 199 685 207.5 706 c 128,-1,13
 216 727 216 727 230 727 c 2,0,-1
327 1310 m 128,-1,15
 290 1310 290 1310 265.5 1335 c 128,-1,16
 241 1360 241 1360 241 1397 c 0,17,18
 241 1436 241 1436 270 1463.5 c 128,-1,19
 299 1491 299 1491 345.5 1503 c 128,-1,20
 392 1515 392 1515 430.5 1520 c 128,-1,21
 469 1525 469 1525 506 1525 c 0,22,23
 570 1525 570 1525 618 1505 c 128,-1,24
 666 1485 666 1485 692.5 1450 c 128,-1,25
 719 1415 719 1415 731.5 1373.5 c 128,-1,26
 744 1332 744 1332 744 1283 c 2,27,-1
 744 962 l 1,28,-1
 850 962 l 2,29,30
 866 962 866 962 866 924 c 0,31,32
 866 876 866 876 840 871 c 1,33,34
 804 862 804 862 684 862 c 0,35,36
 664 862 664 862 652 878.5 c 128,-1,37
 640 895 640 895 627 933 c 1,38,39
 596 908 596 908 524 883.5 c 128,-1,40
 452 859 452 859 400 859 c 0,41,42
 305 859 305 859 258 908.5 c 128,-1,43
 211 958 211 958 211 1038 c 0,44,45
 211 1136 211 1136 280 1196.5 c 128,-1,46
 349 1257 349 1257 439 1257 c 2,47,-1
 621 1257 l 1,48,49
 621 1351 621 1351 579.5 1393 c 128,-1,50
 538 1435 538 1435 454 1435 c 0,51,52
 424 1435 424 1435 406 1431 c 1,53,54
 413 1415 413 1415 413 1397 c 0,55,56
 413 1359 413 1359 388.5 1334.5 c 128,-1,14
 364 1310 364 1310 327 1310 c 128,-1,15
340 1055 m 0,57,58
 340 1008 340 1008 363 991.5 c 128,-1,59
 386 975 386 975 432 975 c 0,60,61
 473 975 473 975 533 996.5 c 128,-1,62
 593 1018 593 1018 621 1037 c 1,63,-1
 621 1160 l 1,64,-1
 460 1160 l 2,65,66
 409 1160 409 1160 374.5 1128.5 c 128,-1,67
 340 1097 340 1097 340 1055 c 0,57,58
EndSplineSet
EndChar

StartChar: guillemotleft
Encoding: 171 171 93
Width: 1268
Flags: MW
HStem: 90 845<572 591 571 595 1070 1090 571 1092.5>
VStem: 109 1050<161.5 532.5>
LayerCount: 2
Fore
SplineSet
1070 90 m 1,0,-1
 647 429 l 2,1,2
 608 460 608 460 608 513 c 0,3,4
 608 568 608 568 648 601 c 2,5,-1
 1069 935 l 1,6,7
 1101 935 1101 935 1130 904.5 c 128,-1,8
 1159 874 1159 874 1159 840 c 1,9,-1
 852 535 l 1,10,-1
 1159 184 l 1,11,12
 1159 150 1159 150 1131 120 c 128,-1,13
 1103 90 1103 90 1070 90 c 1,0,-1
572 90 m 1,14,-1
 150 429 l 2,15,16
 109 462 109 462 109 513 c 0,17,18
 109 570 109 570 150 602 c 2,19,-1
 571 935 l 1,20,21
 601 935 601 935 630 904 c 128,-1,22
 659 873 659 873 659 840 c 1,23,-1
 353 535 l 1,24,-1
 659 184 l 1,25,26
 659 149 659 149 632.5 119.5 c 128,-1,27
 606 90 606 90 572 90 c 1,14,-1
EndSplineSet
EndChar

StartChar: logicalnot
Encoding: 172 172 94
Width: 1208
Flags: MW
HStem: 575 154<170 993 184 911>
VStem: 911 154<285 575 575 575>
LayerCount: 2
Fore
SplineSet
184 729 m 2,0,-1
 993 729 l 2,1,2
 1065 729 1065 729 1065 645 c 2,3,-1
 1065 285 l 2,4,5
 1065 267 1065 267 1041 256.5 c 128,-1,6
 1017 246 1017 246 991 246 c 0,7,8
 964 246 964 246 937.5 256.5 c 128,-1,9
 911 267 911 267 911 285 c 2,10,-1
 911 575 l 1,11,-1
 184 575 l 2,12,13
 165 575 165 575 154 600 c 128,-1,14
 143 625 143 625 143 651 c 0,15,16
 143 678 143 678 154 703.5 c 128,-1,17
 165 729 165 729 184 729 c 2,0,-1
EndSplineSet
EndChar

StartChar: uni00AD
Encoding: 173 173 95
Width: 758
Flags: MW
HStem: 513 176<141.5 602 156 602>
VStem: 115 526<589 615.5>
LayerCount: 2
Fore
SplineSet
156 689 m 2,0,-1
 602 689 l 2,1,2
 620 689 620 689 630.5 660 c 128,-1,3
 641 631 641 631 641 604 c 0,4,5
 641 575 641 575 630.5 544 c 128,-1,6
 620 513 620 513 602 513 c 2,7,-1
 156 513 l 2,8,9
 137 513 137 513 126 543 c 128,-1,10
 115 573 115 573 115 600 c 0,11,12
 115 629 115 629 125.5 659 c 128,-1,13
 136 689 136 689 156 689 c 2,0,-1
EndSplineSet
EndChar

StartChar: registered
Encoding: 174 174 96
Width: 1152
Flags: MW
HStem: 505 99<474.5 621 474.5 708> 693 53 693 63<382 406 389 406 523 602> 930 71<523 532> 947 54 1195 63<378 420 378 378> 1359 97<474.5 677.5>
VStem: 100 108<877 1085 877 1112> 425 98<773 930 756 1001 1001 1189 1189 1190.5> 684 107<1063.5 1137> 945 107<936.5 1085>
LayerCount: 2
Fore
SplineSet
100 980 m 0,0,1
 100 1178 100 1178 239.5 1317 c 128,-1,2
 379 1456 379 1456 577 1456 c 0,3,4
 706 1456 706 1456 815.5 1392.5 c 128,-1,5
 925 1329 925 1329 988.5 1219.5 c 128,-1,6
 1052 1110 1052 1110 1052 980 c 0,7,8
 1052 851 1052 851 988.5 741.5 c 128,-1,9
 925 632 925 632 815.5 568.5 c 128,-1,10
 706 505 706 505 577 505 c 0,11,12
 379 505 379 505 239.5 644 c 128,-1,13
 100 783 100 783 100 980 c 0,0,1
382 693 m 1,14,15
 373 704 373 704 373 719 c 0,16,17
 373 731 373 731 378.5 743 c 128,-1,18
 384 755 384 755 389 756 c 1,19,20
 413 756 413 756 419 759.5 c 128,-1,21
 425 763 425 763 425 773 c 2,22,-1
 425 1189 l 2,23,24
 425 1195 425 1195 420 1195 c 2,25,-1
 378 1195 l 1,26,27
 363 1200 363 1200 363 1230 c 0,28,29
 363 1252 363 1252 373 1258 c 1,30,-1
 601 1258 l 2,31,32
 688 1258 688 1258 739.5 1216.5 c 128,-1,33
 791 1175 791 1175 791 1103 c 0,34,35
 791 987 791 987 677 947 c 1,36,-1
 786 779 l 1,37,38
 807 750 807 750 864 746 c 1,39,40
 945 849 945 849 945 981 c 0,41,42
 945 1137 945 1137 836.5 1248 c 128,-1,43
 728 1359 728 1359 576 1359 c 128,-1,44
 424 1359 424 1359 316 1248 c 128,-1,45
 208 1137 208 1137 208 981 c 128,-1,46
 208 825 208 825 316 714.5 c 128,-1,47
 424 604 424 604 576 604 c 0,48,49
 711 604 711 604 813 693 c 1,50,-1
 770 693 l 2,51,52
 727 693 727 693 703 732 c 2,53,-1
 576 932 l 1,54,55
 542 930 542 930 523 930 c 1,56,-1
 523 756 l 1,57,-1
 607 756 l 1,58,59
 617 752 617 752 617 728 c 0,60,61
 617 699 617 699 602 693 c 1,62,-1
 382 693 l 1,14,15
523 1192 m 1,63,-1
 523 1001 l 1,64,65
 558 1001 558 1001 575 1001.5 c 128,-1,66
 592 1002 592 1002 617 1007.5 c 128,-1,67
 642 1013 642 1013 654 1023 c 128,-1,68
 666 1033 666 1033 675 1053 c 128,-1,69
 684 1073 684 1073 684 1102 c 0,70,71
 684 1192 684 1192 523 1192 c 1,63,-1
EndSplineSet
EndChar

StartChar: macron
Encoding: 175 175 97
Width: 1065
Flags: MW
HStem: 1237 134<200.5 845 208 845>
VStem: 192 668<1288 1326>
LayerCount: 2
Fore
SplineSet
208 1371 m 2,0,-1
 845 1371 l 2,1,2
 860 1371 860 1371 860 1306 c 0,3,4
 860 1237 860 1237 845 1237 c 2,5,-1
 208 1237 l 2,6,7
 192 1237 192 1237 192 1306 c 0,8,9
 192 1371 192 1371 208 1371 c 2,0,-1
EndSplineSet
EndChar

StartChar: degree
Encoding: 176 176 98
Width: 999
Flags: MW
HStem: 785 154<435.5 552 435.5 599.5> 1347 157<435.5 552>
VStem: 133 160<1079.5 1198 1079.5 1242.5> 694 160<1079.5 1198>
LayerCount: 2
Fore
SplineSet
492 939 m 0,0,1
 582 939 582 939 638 994.5 c 128,-1,2
 694 1050 694 1050 694 1140 c 0,3,4
 694 1228 694 1228 637.5 1287.5 c 128,-1,5
 581 1347 581 1347 492 1347 c 0,6,7
 408 1347 408 1347 350.5 1287 c 128,-1,8
 293 1227 293 1227 293 1140 c 0,9,10
 293 1050 293 1050 349.5 994.5 c 128,-1,11
 406 939 406 939 492 939 c 0,0,1
492 785 m 0,12,13
 337 785 337 785 235 884.5 c 128,-1,14
 133 984 133 984 133 1140 c 0,15,16
 133 1294 133 1294 236 1399 c 128,-1,17
 339 1504 339 1504 492 1504 c 0,18,19
 651 1504 651 1504 752.5 1400 c 128,-1,20
 854 1296 854 1296 854 1140 c 0,21,22
 854 983 854 983 753.5 884 c 128,-1,23
 653 785 653 785 492 785 c 0,12,13
EndSplineSet
EndChar

StartChar: plusminus
Encoding: 177 177 99
Width: 1200
Flags: MW
HStem: 0 154<166 1022 180 1022> 646 144<144 528 152 528 672 1049>
VStem: 528 144<308 646 790 1098>
LayerCount: 2
Fore
SplineSet
180 154 m 2,0,-1
 1022 154 l 2,1,2
 1040 154 1040 154 1050.5 130 c 128,-1,3
 1061 106 1061 106 1061 80 c 0,4,5
 1061 52 1061 52 1050.5 26 c 128,-1,6
 1040 0 1040 0 1022 0 c 2,7,-1
 180 0 l 2,8,9
 161 0 161 0 150 25 c 128,-1,10
 139 50 139 50 139 76 c 0,11,12
 139 103 139 103 150 128.5 c 128,-1,13
 161 154 161 154 180 154 c 2,0,-1
152 790 m 2,14,-1
 528 790 l 1,15,-1
 528 1098 l 2,16,17
 528 1108 528 1108 544 1111 c 128,-1,18
 560 1114 560 1114 598 1114 c 0,19,20
 672 1114 672 1114 672 1098 c 2,21,-1
 672 790 l 1,22,-1
 1049 790 l 2,23,24
 1065 790 1065 790 1065 720 c 0,25,26
 1065 646 1065 646 1049 646 c 2,27,-1
 672 646 l 1,28,-1
 672 308 l 2,29,30
 672 292 672 292 598 292 c 0,31,32
 560 292 560 292 544 295 c 128,-1,33
 528 298 528 298 528 308 c 2,34,-1
 528 646 l 1,35,-1
 152 646 l 2,36,37
 135 646 135 646 135 720 c 0,38,39
 135 790 135 790 152 790 c 2,14,-1
EndSplineSet
EndChar

StartChar: acute
Encoding: 180 180 100
Width: 1065
Flags: MW
HStem: 1561 20G<713 755>
VStem: 440 422<1267.5 1470.5>
LayerCount: 2
Fore
SplineSet
862 1423 m 1,0,-1
 539 1188 l 1,1,2
 496 1188 496 1188 468 1220 c 128,-1,3
 440 1252 440 1252 440 1296 c 1,4,-1
 713 1581 l 1,5,6
 777 1581 777 1581 819.5 1537 c 128,-1,7
 862 1493 862 1493 862 1423 c 1,0,-1
EndSplineSet
EndChar

StartChar: paragraph
Encoding: 182 182 101
Width: 1567
Flags: MW
HStem: 0 141<526.5 618.5 546.5 618.5 916 925 925 986.5 1284 1437> 629 150<400 705 591 705 591 705> 1351 154<581.5 1474> 1364 141<916 916 916 1060 1284 1464 1284 1284>
VStem: 49 233<972 1199> 705 211<184 629 629 629 779 1351 1351 1351> 1073 211<184 1348 1348 1351>
LayerCount: 2
Fore
SplineSet
708 1505 m 2,0,-1
 1474 1505 l 2,1,2
 1499 1505 1499 1505 1499 1440 c 0,3,4
 1499 1409 1499 1409 1490 1386.5 c 128,-1,5
 1481 1364 1481 1364 1464 1364 c 2,6,-1
 1284 1364 l 1,7,-1
 1284 141 l 1,8,-1
 1452 141 l 2,9,10
 1478 141 1478 141 1478 80 c 0,11,12
 1478 52 1478 52 1467.5 26 c 128,-1,13
 1457 0 1457 0 1437 0 c 2,14,-1
 539 0 l 2,15,16
 514 0 514 0 514 57 c 0,17,18
 514 88 514 88 527.5 114.5 c 128,-1,19
 541 141 541 141 557 141 c 0,20,21
 645 141 645 141 675 150.5 c 128,-1,22
 705 160 705 160 705 184 c 2,23,-1
 705 629 l 1,24,-1
 553 629 l 2,25,26
 322 629 322 629 185.5 740.5 c 128,-1,27
 49 852 49 852 49 1044 c 0,28,29
 49 1274 49 1274 217 1389.5 c 128,-1,30
 385 1505 385 1505 708 1505 c 2,0,-1
282 1087 m 0,31,32
 282 1004 282 1004 315.5 942.5 c 128,-1,33
 349 881 349 881 409 846.5 c 128,-1,34
 469 812 469 812 542.5 795.5 c 128,-1,35
 616 779 616 779 705 779 c 1,36,-1
 705 1351 l 1,37,38
 654 1351 654 1351 615.5 1349.5 c 128,-1,39
 577 1348 577 1348 535 1343.5 c 128,-1,40
 493 1339 493 1339 462.5 1330.5 c 128,-1,41
 432 1322 432 1322 401.5 1308.5 c 128,-1,42
 371 1295 371 1295 350.5 1275.5 c 128,-1,43
 330 1256 330 1256 313.5 1229.5 c 128,-1,44
 297 1203 297 1203 289.5 1167 c 128,-1,45
 282 1131 282 1131 282 1087 c 0,31,32
916 1364 m 1,46,-1
 916 141 l 1,47,-1
 925 141 l 2,48,49
 1013 141 1013 141 1043 150.5 c 128,-1,50
 1073 160 1073 160 1073 184 c 2,51,-1
 1073 1348 l 2,52,53
 1073 1364 1073 1364 1060 1364 c 2,54,-1
 916 1364 l 1,46,-1
EndSplineSet
EndChar

StartChar: periodcentered
Encoding: 183 183 102
Width: 600
Flags: MW
HStem: 428 272<260 338>
VStem: 162 274<524 604>
LayerCount: 2
Fore
SplineSet
299 428 m 128,-1,1
 240 428 240 428 201 466 c 128,-1,2
 162 504 162 504 162 565 c 0,3,4
 162 623 162 623 201 661.5 c 128,-1,5
 240 700 240 700 299 700 c 128,-1,6
 358 700 358 700 397 661.5 c 128,-1,7
 436 623 436 623 436 565 c 0,8,9
 436 504 436 504 397 466 c 128,-1,0
 358 428 358 428 299 428 c 128,-1,1
EndSplineSet
EndChar

StartChar: cedilla
Encoding: 184 184 103
Width: 1188
Flags: MW
HStem: -440 112<435.5 492.5 429 558.5> -179 194<526 545>
VStem: 649 168<-269 -213.5 -310.5 -90>
LayerCount: 2
Fore
SplineSet
474 -131 m 1,0,-1
 526 15 l 1,1,-1
 685 15 l 1,2,-1
 649 -90 l 1,3,4
 722 -104 722 -104 769.5 -142 c 128,-1,5
 817 -180 817 -180 817 -236 c 0,6,7
 817 -440 817 -440 449 -440 c 0,8,9
 430 -440 430 -440 419.5 -421.5 c 128,-1,10
 409 -403 409 -403 409 -378 c 0,11,12
 409 -360 409 -360 417 -344 c 128,-1,13
 425 -328 425 -328 438 -328 c 0,14,15
 525 -328 525 -328 587 -304.5 c 128,-1,16
 649 -281 649 -281 649 -240 c 0,17,18
 649 -179 649 -179 513 -179 c 1,19,-1
 474 -131 l 1,0,-1
EndSplineSet
EndChar

StartChar: ordmasculine
Encoding: 186 186 104
Width: 1065
Flags: MW
HStem: 600 127<219.5 839 230 839> 837 102<470 592 470 609> 1423 102<482.5 578.5>
VStem: 186 149<1103.5 1281.5 1103.5 1301.5> 716 150<1116.5 1266.5>
LayerCount: 2
Fore
SplineSet
230 727 m 2,0,-1
 839 727 l 2,1,2
 853 727 853 727 861 707 c 128,-1,3
 869 687 869 687 869 666 c 0,4,5
 869 644 869 644 861 622 c 128,-1,6
 853 600 853 600 839 600 c 2,7,-1
 230 600 l 2,8,9
 216 600 216 600 207.5 620.5 c 128,-1,10
 199 641 199 641 199 662 c 0,11,12
 199 685 199 685 207.5 706 c 128,-1,13
 216 727 216 727 230 727 c 2,0,-1
503 837 m 0,14,15
 355 837 355 837 270.5 935 c 128,-1,16
 186 1033 186 1033 186 1187 c 0,17,18
 186 1297 186 1297 238.5 1375.5 c 128,-1,19
 291 1454 291 1454 372 1489.5 c 128,-1,20
 453 1525 453 1525 551 1525 c 0,21,22
 696 1525 696 1525 781 1428 c 128,-1,23
 866 1331 866 1331 866 1182 c 0,24,25
 866 1016 866 1016 766.5 926.5 c 128,-1,26
 667 837 667 837 503 837 c 0,14,15
335 1186 m 0,27,28
 335 1065 335 1065 387 1002 c 128,-1,29
 439 939 439 939 528 939 c 0,30,31
 620 939 620 939 668 1008 c 128,-1,32
 716 1077 716 1077 716 1183 c 0,33,34
 716 1303 716 1303 663.5 1363 c 128,-1,35
 611 1423 611 1423 523 1423 c 0,36,37
 489 1423 489 1423 458.5 1412 c 128,-1,38
 428 1401 428 1401 399 1376.5 c 128,-1,39
 370 1352 370 1352 352.5 1303 c 128,-1,40
 335 1254 335 1254 335 1186 c 0,27,28
EndSplineSet
EndChar

StartChar: guillemotright
Encoding: 187 187 105
Width: 1268
Flags: MW
HStem: 90 845<177.5 197 174.5 198 676 696 174.5 697>
VStem: 109 1050<162.5 530 493 863.5>
LayerCount: 2
Fore
SplineSet
197 935 m 1,0,-1
 619 595 l 2,1,2
 659 563 659 563 659 512 c 0,3,4
 659 456 659 456 618 423 c 2,5,-1
 198 90 l 1,6,7
 167 90 167 90 138 120.5 c 128,-1,8
 109 151 109 151 109 185 c 1,9,-1
 415 490 l 1,10,-1
 109 841 l 1,11,12
 109 875 109 875 136.5 905 c 128,-1,13
 164 935 164 935 197 935 c 1,0,-1
696 935 m 1,14,-1
 1118 595 l 1,15,16
 1159 560 1159 560 1159 512 c 0,17,18
 1159 456 1159 456 1117 423 c 2,19,-1
 697 90 l 1,20,21
 665 90 665 90 636.5 120.5 c 128,-1,22
 608 151 608 151 608 185 c 1,23,-1
 914 490 l 1,24,-1
 608 841 l 1,25,26
 608 875 608 875 635.5 905 c 128,-1,27
 663 935 663 935 696 935 c 1,14,-1
EndSplineSet
EndChar

StartChar: onequarter
Encoding: 188 188 106
Width: 1870
Flags: MW
HStem: 0 103<1268.5 1373 1290 1373 1373 1404 1634 1731> 228 113<1204 1449 1204 1449 1634 1750> 647 103<184 287 201 287 287 313 535 670> 1505 20G
VStem: 350 185<775 1283 1283 1291.5> 1449 185<128 228 103 228 341 530 530 552>
LayerCount: 2
Fore
SplineSet
401 0 m 1,0,-1
 1393 1505 l 2,1,2
 1414 1537 1414 1537 1489 1537 c 0,3,4
 1551 1537 1551 1537 1551 1505 c 1,5,-1
 567 0 l 2,6,7
 547 -30 547 -30 464 -30 c 0,8,9
 401 -30 401 -30 401 0 c 1,0,-1
670 647 m 2,10,-1
 190 647 l 2,11,12
 177 647 177 647 177 701 c 0,13,14
 177 718 177 718 184.5 734 c 128,-1,15
 192 750 192 750 201 750 c 2,16,-1
 287 750 l 2,17,18
 324 750 324 750 337 756 c 128,-1,19
 350 762 350 762 350 775 c 2,20,-1
 350 1283 l 2,21,22
 350 1318 350 1318 338 1318 c 0,23,24
 330 1318 330 1318 264 1289.5 c 128,-1,25
 198 1261 198 1261 185 1261 c 128,-1,26
 172 1261 172 1261 154 1292 c 128,-1,27
 136 1323 136 1323 136 1341 c 0,28,29
 136 1355 136 1355 145 1361 c 1,30,-1
 483 1525 l 1,31,32
 535 1525 535 1525 535 1513 c 2,33,-1
 535 750 l 1,34,-1
 676 750 l 2,35,36
 691 750 691 750 691 714 c 0,37,38
 691 693 691 693 686 670 c 128,-1,39
 681 647 681 647 670 647 c 2,10,-1
1750 228 m 2,40,-1
 1634 228 l 1,41,-1
 1634 103 l 1,42,-1
 1739 103 l 2,43,44
 1747 103 1747 103 1751.5 87 c 128,-1,45
 1756 71 1756 71 1756 56 c 0,46,47
 1756 37 1756 37 1750 18.5 c 128,-1,48
 1744 0 1744 0 1731 0 c 2,49,-1
 1276 0 l 2,50,51
 1260 0 1260 0 1260 42 c 0,52,53
 1260 60 1260 60 1269.5 81.5 c 128,-1,54
 1279 103 1279 103 1290 103 c 2,55,-1
 1373 103 l 2,56,57
 1449 103 1449 103 1449 128 c 2,58,-1
 1449 228 l 1,59,-1
 1085 228 l 1,60,61
 1073 234 1073 234 1064 249.5 c 128,-1,62
 1055 265 1055 265 1053 280 c 1,63,-1
 1371 880 l 1,64,65
 1440 880 1440 880 1487 844.5 c 128,-1,66
 1534 809 1534 809 1534 776 c 1,67,-1
 1204 341 l 1,68,-1
 1449 341 l 1,69,-1
 1449 530 l 2,70,71
 1449 560 1449 560 1506.5 574.5 c 128,-1,72
 1564 589 1564 589 1634 589 c 1,73,-1
 1634 341 l 1,74,-1
 1764 341 l 2,75,76
 1772 341 1772 341 1776.5 324.5 c 128,-1,77
 1781 308 1781 308 1781 293 c 0,78,79
 1781 275 1781 275 1772 251.5 c 128,-1,80
 1763 228 1763 228 1750 228 c 2,40,-1
EndSplineSet
EndChar

StartChar: onehalf
Encoding: 189 189 107
Width: 1886
Flags: MW
HStem: -3 146<1325 1653 1325 1740> 647 103<184 287 201 287 287 313 535 670> 786 89<1394 1459> 1505 20G
VStem: 350 185<775 1283 1283 1291.5> 1151 205<627.5 675 627 724.5> 1171 154<-3 143 143 143 143 208> 1568 185<545.5 696.5>
LayerCount: 2
Fore
SplineSet
401 0 m 1,0,-1
 1393 1505 l 2,1,2
 1414 1537 1414 1537 1489 1537 c 0,3,4
 1551 1537 1551 1537 1551 1505 c 1,5,-1
 567 0 l 2,6,7
 547 -30 547 -30 464 -30 c 0,8,9
 401 -30 401 -30 401 0 c 1,0,-1
670 647 m 2,10,-1
 190 647 l 2,11,12
 177 647 177 647 177 701 c 0,13,14
 177 718 177 718 184.5 734 c 128,-1,15
 192 750 192 750 201 750 c 2,16,-1
 287 750 l 2,17,18
 324 750 324 750 337 756 c 128,-1,19
 350 762 350 762 350 775 c 2,20,-1
 350 1283 l 2,21,22
 350 1318 350 1318 338 1318 c 0,23,24
 330 1318 330 1318 264 1289.5 c 128,-1,25
 198 1261 198 1261 185 1261 c 128,-1,26
 172 1261 172 1261 154 1292 c 128,-1,27
 136 1323 136 1323 136 1341 c 0,28,29
 136 1355 136 1355 145 1361 c 1,30,-1
 483 1525 l 1,31,32
 535 1525 535 1525 535 1513 c 2,33,-1
 535 750 l 1,34,-1
 676 750 l 2,35,36
 691 750 691 750 691 714 c 0,37,38
 691 693 691 693 686 670 c 128,-1,39
 681 647 681 647 670 647 c 2,10,-1
1255 553 m 0,40,41
 1211 553 1211 553 1181 583 c 128,-1,42
 1151 613 1151 613 1151 658 c 0,43,44
 1151 757 1151 757 1234.5 816 c 128,-1,45
 1318 875 1318 875 1454 875 c 0,46,47
 1592 875 1592 875 1672.5 819.5 c 128,-1,48
 1753 764 1753 764 1753 659 c 0,49,50
 1753 593 1753 593 1727.5 540.5 c 128,-1,51
 1702 488 1702 488 1662.5 455.5 c 128,-1,52
 1623 423 1623 423 1573 388.5 c 128,-1,53
 1523 354 1523 354 1477 324.5 c 128,-1,54
 1431 295 1431 295 1388.5 247.5 c 128,-1,55
 1346 200 1346 200 1325 143 c 1,56,-1
 1653 143 l 1,57,-1
 1681 221 l 1,58,59
 1698 234 1698 234 1720 234 c 0,60,61
 1755 234 1755 234 1771 205 c 1,62,-1
 1740 -3 l 1,63,-1
 1171 -3 l 1,64,-1
 1171 40 l 2,65,66
 1171 133 1171 133 1212 211 c 128,-1,67
 1253 289 1253 289 1311.5 342 c 128,-1,68
 1370 395 1370 395 1428 441.5 c 128,-1,69
 1486 488 1486 488 1527 539.5 c 128,-1,70
 1568 591 1568 591 1568 646 c 0,71,72
 1568 718 1568 718 1526.5 752 c 128,-1,73
 1485 786 1485 786 1415 786 c 0,74,75
 1349 786 1349 786 1308 745 c 1,76,77
 1328 737 1328 737 1342 711 c 128,-1,78
 1356 685 1356 685 1356 658 c 0,79,80
 1356 612 1356 612 1327 582.5 c 128,-1,81
 1298 553 1298 553 1255 553 c 0,40,41
EndSplineSet
EndChar

StartChar: threequarters
Encoding: 190 190 108
Width: 1855
Flags: MW
HStem: 0 103<1318.5 1423 1340 1423 1423 1454 1684 1781> 228 113<1254 1499 1254 1499 1684 1800> 635 88<404 470.5 404 544> 1435 90<390 452>
VStem: 137 207<1281 1328.5 1280.5 1383> 552 187<1262 1342> 565 202<847 938> 1499 185<128 228 103 228 341 530 530 552>
LayerCount: 2
Fore
SplineSet
401 0 m 1,0,-1
 1393 1505 l 2,1,2
 1414 1537 1414 1537 1489 1537 c 0,3,4
 1551 1537 1551 1537 1551 1505 c 1,5,-1
 567 0 l 2,6,7
 547 -30 547 -30 464 -30 c 0,8,9
 401 -30 401 -30 401 0 c 1,0,-1
1800 228 m 2,10,-1
 1684 228 l 1,11,-1
 1684 103 l 1,12,-1
 1789 103 l 2,13,14
 1797 103 1797 103 1801.5 87 c 128,-1,15
 1806 71 1806 71 1806 56 c 0,16,17
 1806 37 1806 37 1800 18.5 c 128,-1,18
 1794 0 1794 0 1781 0 c 2,19,-1
 1326 0 l 2,20,21
 1310 0 1310 0 1310 42 c 0,22,23
 1310 60 1310 60 1319.5 81.5 c 128,-1,24
 1329 103 1329 103 1340 103 c 2,25,-1
 1423 103 l 2,26,27
 1499 103 1499 103 1499 128 c 2,28,-1
 1499 228 l 1,29,-1
 1135 228 l 1,30,31
 1123 234 1123 234 1114 249.5 c 128,-1,32
 1105 265 1105 265 1103 280 c 1,33,-1
 1421 880 l 1,34,35
 1490 880 1490 880 1537 844.5 c 128,-1,36
 1584 809 1584 809 1584 776 c 1,37,-1
 1254 341 l 1,38,-1
 1499 341 l 1,39,-1
 1499 530 l 2,40,41
 1499 560 1499 560 1556.5 574.5 c 128,-1,42
 1614 589 1614 589 1684 589 c 1,43,-1
 1684 341 l 1,44,-1
 1814 341 l 2,45,46
 1822 341 1822 341 1826.5 324.5 c 128,-1,47
 1831 308 1831 308 1831 293 c 0,48,49
 1831 275 1831 275 1822 251.5 c 128,-1,50
 1813 228 1813 228 1800 228 c 2,10,-1
137 843 m 0,51,52
 137 891 137 891 168 920.5 c 128,-1,53
 199 950 199 950 245 950 c 0,54,55
 287 950 287 950 316.5 920.5 c 128,-1,56
 346 891 346 891 346 846 c 0,57,58
 346 798 346 798 300 764 c 1,59,60
 342 723 342 723 430 723 c 0,61,62
 490 723 490 723 527.5 772 c 128,-1,63
 565 821 565 821 565 897 c 0,64,65
 565 969 565 969 534 1014 c 128,-1,66
 503 1059 503 1059 418 1067 c 1,67,-1
 418 1121 l 1,68,69
 485 1154 485 1154 518.5 1193.5 c 128,-1,70
 552 1233 552 1233 552 1306 c 0,71,72
 552 1360 552 1360 511.5 1397.5 c 128,-1,73
 471 1435 471 1435 415 1435 c 0,74,75
 336 1435 336 1435 295 1395 c 1,76,77
 314 1386 314 1386 329 1361 c 128,-1,78
 344 1336 344 1336 344 1316 c 0,79,80
 344 1264 344 1264 315.5 1233 c 128,-1,81
 287 1202 287 1202 241 1202 c 128,-1,82
 195 1202 195 1202 166 1233 c 128,-1,83
 137 1264 137 1264 137 1316 c 0,84,85
 137 1380 137 1380 185.5 1429 c 128,-1,86
 234 1478 234 1478 305 1501.5 c 128,-1,87
 376 1525 376 1525 454 1525 c 0,88,89
 589 1525 589 1525 664 1466 c 128,-1,90
 739 1407 739 1407 739 1315 c 0,91,92
 739 1241 739 1241 689 1188.5 c 128,-1,93
 639 1136 639 1136 565 1108 c 1,94,95
 604 1092 604 1092 622.5 1084 c 128,-1,96
 641 1076 641 1076 674 1055 c 128,-1,97
 707 1034 707 1034 723.5 1013 c 128,-1,98
 740 992 740 992 753.5 957.5 c 128,-1,99
 767 923 767 923 767 880 c 0,100,101
 767 760 767 760 682 697.5 c 128,-1,102
 597 635 597 635 444 635 c 0,103,104
 371 635 371 635 302 658.5 c 128,-1,105
 233 682 233 682 185 731 c 128,-1,106
 137 780 137 780 137 843 c 0,51,52
EndSplineSet
EndChar

StartChar: questiondown
Encoding: 191 191 109
Width: 935
Flags: MW
HStem: -438 154<435.5 530 435.5 534> 998 20G<481.5 560>
VStem: 58 217<-128.5 34> 380 280<839 919> 420 195<395 550 372 571> 605 280<-199.5 -146>
LayerCount: 2
Fore
SplineSet
885 -187 m 0,0,1
 885 -251 885 -251 838.5 -302.5 c 128,-1,2
 792 -354 792 -354 723.5 -382 c 128,-1,3
 655 -410 655 -410 589.5 -424 c 128,-1,4
 524 -438 524 -438 474 -438 c 0,5,6
 279 -438 279 -438 168.5 -335 c 128,-1,7
 58 -232 58 -232 58 -80 c 0,8,9
 58 -25 58 -25 74.5 26 c 128,-1,10
 91 77 91 77 112.5 112.5 c 128,-1,11
 134 148 134 148 177 191.5 c 128,-1,12
 220 235 220 235 249 259 c 128,-1,13
 278 283 278 283 336 328 c 128,-1,14
 394 373 394 373 420 395 c 1,15,-1
 420 550 l 2,16,17
 420 580 420 580 449.5 596.5 c 128,-1,18
 479 613 479 613 521 613 c 128,-1,19
 563 613 563 613 589 596.5 c 128,-1,20
 615 580 615 580 615 550 c 2,21,-1
 615 372 l 1,22,23
 585 346 585 346 539.5 311 c 128,-1,24
 494 276 494 276 461 251.5 c 128,-1,25
 428 227 428 227 391 192 c 128,-1,26
 354 157 354 157 330 123 c 128,-1,27
 306 89 306 89 290.5 41.5 c 128,-1,28
 275 -6 275 -6 275 -60 c 0,29,30
 275 -162 275 -162 338 -223 c 128,-1,31
 401 -284 401 -284 504 -284 c 0,32,33
 586 -284 586 -284 628 -273 c 1,34,35
 605 -233 605 -233 605 -187 c 0,36,37
 605 -126 605 -126 645.5 -86.5 c 128,-1,38
 686 -47 686 -47 746 -47 c 0,39,40
 805 -47 805 -47 845 -86.5 c 128,-1,41
 885 -126 885 -126 885 -187 c 0,0,1
660 878 m 0,42,43
 660 820 660 820 620 779.5 c 128,-1,44
 580 739 580 739 521 739 c 128,-1,45
 462 739 462 739 421 779.5 c 128,-1,46
 380 820 380 820 380 878 c 0,47,48
 380 939 380 939 420.5 978.5 c 128,-1,49
 461 1018 461 1018 521 1018 c 0,50,51
 580 1018 580 1018 620 978.5 c 128,-1,52
 660 939 660 939 660 878 c 0,42,43
EndSplineSet
EndChar

StartChar: Agrave
Encoding: 192 192 110
Width: 1493
Flags: MW
HStem: 0 141<28 87 42.5 87 313 475 948 1002 1327 1431> 499 154<511 900 511 959 452 900> 1485 20G<680 680 794 794> 1971 20G<454 496>
VStem: 14 1456<64 75> 347 422<1677.5 1880.5>
LayerCount: 2
Fore
SplineSet
794 1505 m 2,0,-1
 1327 141 l 1,1,-1
 1444 141 l 2,2,3
 1470 141 1470 141 1470 81 c 0,4,5
 1470 51 1470 51 1460 25.5 c 128,-1,6
 1450 0 1450 0 1431 0 c 2,7,-1
 946 0 l 2,8,9
 921 0 921 0 921 55 c 0,10,11
 921 86 921 86 932 113.5 c 128,-1,12
 943 141 943 141 962 141 c 0,13,14
 1086 141 1086 141 1086 165 c 0,15,16
 1086 166 1086 166 1078 190 c 1,17,-1
 959 499 l 1,18,-1
 452 499 l 1,19,-1
 313 141 l 1,20,-1
 485 141 l 2,21,22
 511 141 511 141 511 83 c 0,23,24
 511 53 511 53 501.5 26.5 c 128,-1,25
 492 0 492 0 475 0 c 2,26,-1
 39 0 l 2,27,28
 14 0 14 0 14 57 c 0,29,30
 14 87 14 87 25.5 114 c 128,-1,31
 37 141 37 141 55 141 c 0,32,33
 148 141 148 141 171 198 c 2,34,-1
 680 1505 l 2,35,36
 688 1525 688 1525 735 1525 c 0,37,38
 787 1525 787 1525 794 1505 c 2,0,-1
707 1157 m 1,39,-1
 511 653 l 1,40,-1
 900 653 l 1,41,-1
 707 1157 l 1,39,-1
671 1598 m 1,42,-1
 347 1833 l 1,43,44
 347 1903 347 1903 389.5 1947 c 128,-1,45
 432 1991 432 1991 496 1991 c 1,46,-1
 769 1706 l 1,47,48
 769 1662 769 1662 741 1630 c 128,-1,49
 713 1598 713 1598 671 1598 c 1,42,-1
EndSplineSet
EndChar

StartChar: Aacute
Encoding: 193 193 111
Width: 1493
Flags: MW
HStem: 0 141<28 87 42.5 87 313 475 948 1002 1327 1431> 499 154<511 900 511 959 452 900> 1485 20G<680 680 794 794> 1971 20G<982 1024>
VStem: 14 1456<64 75> 709 422<1677.5 1880.5>
LayerCount: 2
Fore
SplineSet
794 1505 m 2,0,-1
 1327 141 l 1,1,-1
 1444 141 l 2,2,3
 1470 141 1470 141 1470 81 c 0,4,5
 1470 51 1470 51 1460 25.5 c 128,-1,6
 1450 0 1450 0 1431 0 c 2,7,-1
 946 0 l 2,8,9
 921 0 921 0 921 55 c 0,10,11
 921 86 921 86 932 113.5 c 128,-1,12
 943 141 943 141 962 141 c 0,13,14
 1086 141 1086 141 1086 165 c 0,15,16
 1086 166 1086 166 1078 190 c 1,17,-1
 959 499 l 1,18,-1
 452 499 l 1,19,-1
 313 141 l 1,20,-1
 485 141 l 2,21,22
 511 141 511 141 511 83 c 0,23,24
 511 53 511 53 501.5 26.5 c 128,-1,25
 492 0 492 0 475 0 c 2,26,-1
 39 0 l 2,27,28
 14 0 14 0 14 57 c 0,29,30
 14 87 14 87 25.5 114 c 128,-1,31
 37 141 37 141 55 141 c 0,32,33
 148 141 148 141 171 198 c 2,34,-1
 680 1505 l 2,35,36
 688 1525 688 1525 735 1525 c 0,37,38
 787 1525 787 1525 794 1505 c 2,0,-1
707 1157 m 1,39,-1
 511 653 l 1,40,-1
 900 653 l 1,41,-1
 707 1157 l 1,39,-1
1131 1833 m 1,42,-1
 808 1598 l 1,43,44
 765 1598 765 1598 737 1630 c 128,-1,45
 709 1662 709 1662 709 1706 c 1,46,-1
 982 1991 l 1,47,48
 1046 1991 1046 1991 1088.5 1947 c 128,-1,49
 1131 1903 1131 1903 1131 1833 c 1,42,-1
EndSplineSet
EndChar

StartChar: Acircumflex
Encoding: 194 194 112
Width: 1493
Flags: MW
HStem: 0 141<28 87 42.5 87 313 475 948 1002 1327 1431> 499 154<511 900 511 959 452 900> 1485 20G<680 680 794 794> 1610 305<467.5 754.5 722.5 1008.5>
VStem: 14 1456<64 75> 407 662<1684.5 1710>
LayerCount: 2
Fore
SplineSet
739 1726 m 1,0,-1
 491 1610 l 1,1,2
 456 1610 456 1610 431.5 1640.5 c 128,-1,3
 407 1671 407 1671 407 1710 c 1,4,-1
 663 1886 l 2,5,6
 705 1915 705 1915 739 1915 c 0,7,8
 770 1915 770 1915 813 1886 c 2,9,-1
 1069 1710 l 1,10,11
 1069 1671 1069 1671 1044.5 1640.5 c 128,-1,12
 1020 1610 1020 1610 985 1610 c 1,13,-1
 739 1726 l 1,0,-1
794 1505 m 2,14,-1
 1327 141 l 1,15,-1
 1444 141 l 2,16,17
 1470 141 1470 141 1470 81 c 0,18,19
 1470 51 1470 51 1460 25.5 c 128,-1,20
 1450 0 1450 0 1431 0 c 2,21,-1
 946 0 l 2,22,23
 921 0 921 0 921 55 c 0,24,25
 921 86 921 86 932 113.5 c 128,-1,26
 943 141 943 141 962 141 c 0,27,28
 1086 141 1086 141 1086 165 c 0,29,30
 1086 166 1086 166 1078 190 c 1,31,-1
 959 499 l 1,32,-1
 452 499 l 1,33,-1
 313 141 l 1,34,-1
 485 141 l 2,35,36
 511 141 511 141 511 83 c 0,37,38
 511 53 511 53 501.5 26.5 c 128,-1,39
 492 0 492 0 475 0 c 2,40,-1
 39 0 l 2,41,42
 14 0 14 0 14 57 c 0,43,44
 14 87 14 87 25.5 114 c 128,-1,45
 37 141 37 141 55 141 c 0,46,47
 148 141 148 141 171 198 c 2,48,-1
 680 1505 l 2,49,50
 688 1525 688 1525 735 1525 c 0,51,52
 787 1525 787 1525 794 1505 c 2,14,-1
707 1157 m 1,53,-1
 511 653 l 1,54,-1
 900 653 l 1,55,-1
 707 1157 l 1,53,-1
EndSplineSet
EndChar

StartChar: Atilde
Encoding: 195 195 113
Width: 1493
Flags: MW
HStem: 0 141<28 87 42.5 87 313 475 948 1002 1327 1431> 499 154<511 900 511 959 452 900> 1485 20G<680 680 794 794> 1604 168<844 934 844 967> 1737 180<532 625>
VStem: 14 1456<64 75> 313 849<1695.5 1831.5>
LayerCount: 2
Fore
SplineSet
407 1627 m 1,0,1
 368 1627 368 1627 340.5 1655 c 128,-1,2
 313 1683 313 1683 313 1719 c 1,3,4
 328 1745 328 1745 349 1772 c 128,-1,5
 370 1799 370 1799 406.5 1835 c 128,-1,6
 443 1871 443 1871 494.5 1894 c 128,-1,7
 546 1917 546 1917 601 1917 c 0,8,9
 638 1917 638 1917 679 1894.5 c 128,-1,10
 720 1872 720 1872 751 1844.5 c 128,-1,11
 782 1817 782 1817 821.5 1794.5 c 128,-1,12
 861 1772 861 1772 896 1772 c 0,13,14
 922 1772 922 1772 949.5 1788 c 128,-1,15
 977 1804 977 1804 994.5 1823.5 c 128,-1,16
 1012 1843 1012 1843 1033.5 1868 c 128,-1,17
 1055 1893 1055 1893 1064 1901 c 1,18,19
 1102 1901 1102 1901 1132 1872 c 128,-1,20
 1162 1843 1162 1843 1162 1809 c 1,21,22
 1152 1785 1152 1785 1132.5 1755.5 c 128,-1,23
 1113 1726 1113 1726 1079 1689 c 128,-1,24
 1045 1652 1045 1652 993.5 1628 c 128,-1,25
 942 1604 942 1604 884 1604 c 0,26,27
 837 1604 837 1604 791 1625 c 128,-1,28
 745 1646 745 1646 714.5 1670.5 c 128,-1,29
 684 1695 684 1695 646.5 1716 c 128,-1,30
 609 1737 609 1737 577 1737 c 0,31,32
 537 1737 537 1737 504 1717.5 c 128,-1,33
 471 1698 471 1698 439 1662.5 c 2,34,-1
 407 1627 l 1,0,1
794 1505 m 2,35,-1
 1327 141 l 1,36,-1
 1444 141 l 2,37,38
 1470 141 1470 141 1470 81 c 0,39,40
 1470 51 1470 51 1460 25.5 c 128,-1,41
 1450 0 1450 0 1431 0 c 2,42,-1
 946 0 l 2,43,44
 921 0 921 0 921 55 c 0,45,46
 921 86 921 86 932 113.5 c 128,-1,47
 943 141 943 141 962 141 c 0,48,49
 1086 141 1086 141 1086 165 c 0,50,51
 1086 166 1086 166 1078 190 c 1,52,-1
 959 499 l 1,53,-1
 452 499 l 1,54,-1
 313 141 l 1,55,-1
 485 141 l 2,56,57
 511 141 511 141 511 83 c 0,58,59
 511 53 511 53 501.5 26.5 c 128,-1,60
 492 0 492 0 475 0 c 2,61,-1
 39 0 l 2,62,63
 14 0 14 0 14 57 c 0,64,65
 14 87 14 87 25.5 114 c 128,-1,66
 37 141 37 141 55 141 c 0,67,68
 148 141 148 141 171 198 c 2,69,-1
 680 1505 l 2,70,71
 688 1525 688 1525 735 1525 c 0,72,73
 787 1525 787 1525 794 1505 c 2,35,-1
707 1157 m 1,74,-1
 511 653 l 1,75,-1
 900 653 l 1,76,-1
 707 1157 l 1,74,-1
EndSplineSet
EndChar

StartChar: Adieresis
Encoding: 196 196 114
Width: 1493
Flags: MW
HStem: 0 141<28 87 42.5 87 313 475 948 1002 1327 1431> 499 154<511 900 511 959 452 900> 1485 20G<680 680 794 794> 1620 276<475 555 929 1009>
VStem: 14 1456<64 75> 381 273<1717 1797> 834 272<1717 1797>
LayerCount: 2
Fore
SplineSet
794 1505 m 2,0,-1
 1327 141 l 1,1,-1
 1444 141 l 2,2,3
 1470 141 1470 141 1470 81 c 0,4,5
 1470 51 1470 51 1460 25.5 c 128,-1,6
 1450 0 1450 0 1431 0 c 2,7,-1
 946 0 l 2,8,9
 921 0 921 0 921 55 c 0,10,11
 921 86 921 86 932 113.5 c 128,-1,12
 943 141 943 141 962 141 c 0,13,14
 1086 141 1086 141 1086 165 c 0,15,16
 1086 166 1086 166 1078 190 c 1,17,-1
 959 499 l 1,18,-1
 452 499 l 1,19,-1
 313 141 l 1,20,-1
 485 141 l 2,21,22
 511 141 511 141 511 83 c 0,23,24
 511 53 511 53 501.5 26.5 c 128,-1,25
 492 0 492 0 475 0 c 2,26,-1
 39 0 l 2,27,28
 14 0 14 0 14 57 c 0,29,30
 14 87 14 87 25.5 114 c 128,-1,31
 37 141 37 141 55 141 c 0,32,33
 148 141 148 141 171 198 c 2,34,-1
 680 1505 l 2,35,36
 688 1525 688 1525 735 1525 c 0,37,38
 787 1525 787 1525 794 1505 c 2,0,-1
707 1157 m 1,39,-1
 511 653 l 1,40,-1
 900 653 l 1,41,-1
 707 1157 l 1,39,-1
514 1620 m 0,42,43
 456 1620 456 1620 418.5 1658.5 c 128,-1,44
 381 1697 381 1697 381 1757 c 128,-1,45
 381 1817 381 1817 418.5 1856.5 c 128,-1,46
 456 1896 456 1896 514 1896 c 0,47,48
 575 1896 575 1896 614.5 1856.5 c 128,-1,49
 654 1817 654 1817 654 1757 c 128,-1,50
 654 1697 654 1697 614.5 1658.5 c 128,-1,51
 575 1620 575 1620 514 1620 c 0,42,43
969 1620 m 128,-1,53
 909 1620 909 1620 871.5 1658.5 c 128,-1,54
 834 1697 834 1697 834 1757 c 128,-1,55
 834 1817 834 1817 871.5 1856.5 c 128,-1,56
 909 1896 909 1896 969 1896 c 128,-1,57
 1029 1896 1029 1896 1067.5 1856.5 c 128,-1,58
 1106 1817 1106 1817 1106 1757 c 128,-1,59
 1106 1697 1106 1697 1067.5 1658.5 c 128,-1,52
 1029 1620 1029 1620 969 1620 c 128,-1,53
EndSplineSet
EndChar

StartChar: Aring
Encoding: 197 197 115
Width: 1493
Flags: MW
HStem: 0 141<28 87 42.5 87 313 475 948 1002 1327 1431> 499 154<511 900 511 959 452 900> 1397 131 1485 20G 1696 125<713.5 760.5>
VStem: 14 1456<64 75> 516 139<1588.5 1635.5 1588.5 1666.5> 819 131<1588.5 1635.5>
LayerCount: 2
Fore
SplineSet
516 1608 m 0,0,1
 516 1698 516 1698 576.5 1759.5 c 128,-1,2
 637 1821 637 1821 733 1821 c 128,-1,3
 829 1821 829 1821 889.5 1759.5 c 128,-1,4
 950 1698 950 1698 950 1608 c 0,5,6
 950 1545 950 1545 917.5 1493 c 128,-1,7
 885 1441 885 1441 828 1416 c 1,8,-1
 1327 141 l 1,9,-1
 1444 141 l 2,10,11
 1470 141 1470 141 1470 81 c 0,12,13
 1470 51 1470 51 1460 25.5 c 128,-1,14
 1450 0 1450 0 1431 0 c 2,15,-1
 946 0 l 2,16,17
 921 0 921 0 921 55 c 0,18,19
 921 86 921 86 932 113.5 c 128,-1,20
 943 141 943 141 962 141 c 0,21,22
 1086 141 1086 141 1086 165 c 0,23,24
 1086 166 1086 166 1078 190 c 1,25,-1
 959 499 l 1,26,-1
 452 499 l 1,27,-1
 313 141 l 1,28,-1
 485 141 l 2,29,30
 511 141 511 141 511 83 c 0,31,32
 511 53 511 53 501.5 26.5 c 128,-1,33
 492 0 492 0 475 0 c 2,34,-1
 39 0 l 2,35,36
 14 0 14 0 14 57 c 0,37,38
 14 87 14 87 25.5 114 c 128,-1,39
 37 141 37 141 55 141 c 0,40,41
 148 141 148 141 171 198 c 2,42,-1
 644 1413 l 1,43,44
 584 1438 584 1438 550 1490 c 128,-1,45
 516 1542 516 1542 516 1608 c 0,0,1
707 1157 m 1,46,-1
 511 653 l 1,47,-1
 900 653 l 1,48,-1
 707 1157 l 1,46,-1
655 1612 m 128,-1,50
 655 1577 655 1577 678.5 1552.5 c 128,-1,51
 702 1528 702 1528 737 1528 c 128,-1,52
 772 1528 772 1528 795.5 1552.5 c 128,-1,53
 819 1577 819 1577 819 1612 c 128,-1,54
 819 1647 819 1647 795.5 1671.5 c 128,-1,55
 772 1696 772 1696 737 1696 c 128,-1,56
 702 1696 702 1696 678.5 1671.5 c 128,-1,49
 655 1647 655 1647 655 1612 c 128,-1,50
EndSplineSet
EndChar

StartChar: AE
Encoding: 198 198 116
Width: 1917
Flags: MW
HStem: 0 141<315 417 757.5 829.5> 0 154<1128 1412 1412 1486 1128 1775> 631 154<568 894 568 900 509 894 1110 1382 1382 1412.5 1110 1110> 1351 154<1082 1521 1082 1082> 1364 141<844 865>
VStem: 871 222 908 210 1447 144<480 494 494 631 631 631> 1685 141<1202.5 1214 1214 1253.5>
LayerCount: 2
Fore
SplineSet
1447 631 m 1,0,-1
 1110 631 l 1,1,-1
 1128 154 l 1,2,-1
 1412 154 l 2,3,4
 1459 154 1459 154 1485 155 c 128,-1,5
 1511 156 1511 156 1549.5 160 c 128,-1,6
 1588 164 1588 164 1611 173.5 c 128,-1,7
 1634 183 1634 183 1659 199 c 128,-1,8
 1684 215 1684 215 1699.5 241 c 128,-1,9
 1715 267 1715 267 1724 303 c 0,10,11
 1728 322 1728 322 1772 322 c 0,12,13
 1808 322 1808 322 1837.5 311.5 c 128,-1,14
 1867 301 1867 301 1867 282 c 2,15,-1
 1867 274 l 1,16,17
 1859 211 1859 211 1831 126 c 128,-1,18
 1803 41 1803 41 1775 0 c 1,19,-1
 755 0 l 2,20,21
 728 0 728 0 728 59 c 0,22,23
 728 88 728 88 740 114.5 c 128,-1,24
 752 141 752 141 769 141 c 0,25,26
 859 141 859 141 887.5 149.5 c 128,-1,27
 916 158 916 158 917 184 c 1,28,-1
 900 631 l 1,29,-1
 509 631 l 1,30,-1
 315 141 l 1,31,-1
 427 141 l 2,32,33
 453 141 453 141 453 83 c 0,34,35
 453 53 453 53 443.5 26.5 c 128,-1,36
 434 0 434 0 417 0 c 2,37,-1
 30 0 l 2,38,39
 5 0 5 0 5 57 c 0,40,41
 5 87 5 87 16.5 114.5 c 128,-1,42
 28 142 28 142 46 143 c 0,43,44
 98 147 98 147 124.5 158.5 c 128,-1,45
 151 170 151 170 162 198 c 2,46,-1
 657 1469 l 2,47,48
 671 1505 671 1505 713 1505 c 2,49,-1
 1826 1505 l 1,50,-1
 1826 1214 l 2,51,52
 1826 1198 1826 1198 1801 1189 c 128,-1,53
 1776 1180 1776 1180 1748 1180 c 0,54,55
 1685 1180 1685 1180 1685 1202 c 0,56,57
 1685 1245 1685 1245 1680 1269.5 c 128,-1,58
 1675 1294 1675 1294 1658.5 1314.5 c 128,-1,59
 1642 1335 1642 1335 1609 1343 c 128,-1,60
 1576 1351 1576 1351 1521 1351 c 2,61,-1
 1082 1351 l 1,62,-1
 1104 785 l 1,63,-1
 1382 785 l 2,64,65
 1427 785 1427 785 1438 811.5 c 128,-1,66
 1449 838 1449 838 1449 936 c 0,67,68
 1449 959 1449 959 1509 959 c 0,69,70
 1540 959 1540 959 1565.5 949 c 128,-1,71
 1591 939 1591 939 1591 922 c 2,72,-1
 1591 494 l 2,73,74
 1591 473 1591 473 1569.5 463 c 128,-1,75
 1548 453 1548 453 1519 453 c 0,76,77
 1447 453 1447 453 1447 480 c 2,78,-1
 1447 631 l 1,0,-1
859 1364 m 0,79,80
 797 1364 797 1364 777 1313 c 2,81,-1
 568 785 l 1,82,-1
 894 785 l 1,83,-1
 871 1350 l 2,84,85
 871 1364 871 1364 859 1364 c 0,79,80
EndSplineSet
EndChar

StartChar: Egrave
Encoding: 200 200 117
Width: 1303
Flags: MW
HStem: 0 141<117 204.5 131.5 204.5 131.5 1149> 0 154<502 1032 502 1149> 694 154<502 756 756 786.5 502 821 502 756> 1002 20G<870.5 901.5> 1351 154<502 895 502 502> 1364 141<100.5 115 115 279> 1971 20G<519 561>
VStem: 291 211<184 694 848 1350 1350 1351> 412 422<1677.5 1880.5> 821 144<543 557 557 694 694 694> 1059 141<1202.5 1214 1214 1253.5>
LayerCount: 2
Fore
SplineSet
1149 0 m 1,0,-1
 129 0 l 2,1,2
 102 0 102 0 102 59 c 0,3,4
 102 88 102 88 114 114.5 c 128,-1,5
 126 141 126 141 143 141 c 0,6,7
 231 141 231 141 261 150.5 c 128,-1,8
 291 160 291 160 291 184 c 2,9,-1
 291 1350 l 2,10,11
 291 1364 291 1364 279 1364 c 2,12,-1
 115 1364 l 2,13,14
 95 1364 95 1364 84.5 1388.5 c 128,-1,15
 74 1413 74 1413 74 1442 c 0,16,17
 74 1505 74 1505 100 1505 c 2,18,-1
 1200 1505 l 1,19,-1
 1200 1214 l 2,20,21
 1200 1198 1200 1198 1175 1189 c 128,-1,22
 1150 1180 1150 1180 1122 1180 c 0,23,24
 1059 1180 1059 1180 1059 1202 c 0,25,26
 1059 1245 1059 1245 1054 1269.5 c 128,-1,27
 1049 1294 1049 1294 1032.5 1314.5 c 128,-1,28
 1016 1335 1016 1335 983 1343 c 128,-1,29
 950 1351 950 1351 895 1351 c 2,30,-1
 502 1351 l 1,31,-1
 502 848 l 1,32,-1
 756 848 l 2,33,34
 801 848 801 848 812 874.5 c 128,-1,35
 823 901 823 901 823 999 c 0,36,37
 823 1022 823 1022 883 1022 c 0,38,39
 914 1022 914 1022 939.5 1012 c 128,-1,40
 965 1002 965 1002 965 985 c 2,41,-1
 965 557 l 2,42,43
 965 536 965 536 943.5 526 c 128,-1,44
 922 516 922 516 893 516 c 0,45,46
 821 516 821 516 821 543 c 2,47,-1
 821 694 l 1,48,-1
 502 694 l 1,49,-1
 502 154 l 1,50,-1
 1032 154 l 1,51,-1
 1108 303 l 2,52,53
 1117 322 1117 322 1159 322 c 0,54,55
 1190 322 1190 322 1216 310.5 c 128,-1,56
 1242 299 1242 299 1242 281 c 0,57,58
 1242 276 1242 276 1241 274 c 2,59,-1
 1149 0 l 1,0,-1
736 1598 m 1,60,-1
 412 1833 l 1,61,62
 412 1903 412 1903 454.5 1947 c 128,-1,63
 497 1991 497 1991 561 1991 c 1,64,-1
 834 1706 l 1,65,66
 834 1662 834 1662 806 1630 c 128,-1,67
 778 1598 778 1598 736 1598 c 1,60,-1
EndSplineSet
EndChar

StartChar: Eacute
Encoding: 201 201 118
Width: 1303
Flags: MW
HStem: 0 141<117 204.5 131.5 204.5 131.5 1149> 0 154<502 1032 502 1149> 694 154<502 756 756 786.5 502 821 502 756> 1002 20G<870.5 901.5> 1351 154<502 895 502 502> 1364 141<100.5 115 115 279> 1971 20G<858 900>
VStem: 291 211<184 694 848 1350 1350 1351> 585 422<1677.5 1880.5> 821 144<543 557 557 694 694 694> 1059 141<1202.5 1214 1214 1253.5>
LayerCount: 2
Fore
SplineSet
1149 0 m 1,0,-1
 129 0 l 2,1,2
 102 0 102 0 102 59 c 0,3,4
 102 88 102 88 114 114.5 c 128,-1,5
 126 141 126 141 143 141 c 0,6,7
 231 141 231 141 261 150.5 c 128,-1,8
 291 160 291 160 291 184 c 2,9,-1
 291 1350 l 2,10,11
 291 1364 291 1364 279 1364 c 2,12,-1
 115 1364 l 2,13,14
 95 1364 95 1364 84.5 1388.5 c 128,-1,15
 74 1413 74 1413 74 1442 c 0,16,17
 74 1505 74 1505 100 1505 c 2,18,-1
 1200 1505 l 1,19,-1
 1200 1214 l 2,20,21
 1200 1198 1200 1198 1175 1189 c 128,-1,22
 1150 1180 1150 1180 1122 1180 c 0,23,24
 1059 1180 1059 1180 1059 1202 c 0,25,26
 1059 1245 1059 1245 1054 1269.5 c 128,-1,27
 1049 1294 1049 1294 1032.5 1314.5 c 128,-1,28
 1016 1335 1016 1335 983 1343 c 128,-1,29
 950 1351 950 1351 895 1351 c 2,30,-1
 502 1351 l 1,31,-1
 502 848 l 1,32,-1
 756 848 l 2,33,34
 801 848 801 848 812 874.5 c 128,-1,35
 823 901 823 901 823 999 c 0,36,37
 823 1022 823 1022 883 1022 c 0,38,39
 914 1022 914 1022 939.5 1012 c 128,-1,40
 965 1002 965 1002 965 985 c 2,41,-1
 965 557 l 2,42,43
 965 536 965 536 943.5 526 c 128,-1,44
 922 516 922 516 893 516 c 0,45,46
 821 516 821 516 821 543 c 2,47,-1
 821 694 l 1,48,-1
 502 694 l 1,49,-1
 502 154 l 1,50,-1
 1032 154 l 1,51,-1
 1108 303 l 2,52,53
 1117 322 1117 322 1159 322 c 0,54,55
 1190 322 1190 322 1216 310.5 c 128,-1,56
 1242 299 1242 299 1242 281 c 0,57,58
 1242 276 1242 276 1241 274 c 2,59,-1
 1149 0 l 1,0,-1
1007 1833 m 1,60,-1
 684 1598 l 1,61,62
 641 1598 641 1598 613 1630 c 128,-1,63
 585 1662 585 1662 585 1706 c 1,64,-1
 858 1991 l 1,65,66
 922 1991 922 1991 964.5 1947 c 128,-1,67
 1007 1903 1007 1903 1007 1833 c 1,60,-1
EndSplineSet
EndChar

StartChar: Ecircumflex
Encoding: 202 202 119
Width: 1303
Flags: MW
HStem: 0 141<117 204.5 131.5 204.5 131.5 1149> 0 154<502 1032 502 1149> 694 154<502 756 756 786.5 502 821 502 756> 1002 20G<870.5 901.5> 1351 154<502 895 502 502> 1364 141<100.5 115 115 279> 1610 305<427 713.5 682 967.5>
VStem: 291 211<184 694 848 1350 1350 1351> 367 661<1684.5 1710> 821 144<543 557 557 694 694 694> 1059 141<1202.5 1214 1214 1253.5>
LayerCount: 2
Fore
SplineSet
698 1726 m 1,0,-1
 451 1610 l 1,1,2
 416 1610 416 1610 391.5 1640.5 c 128,-1,3
 367 1671 367 1671 367 1710 c 1,4,-1
 623 1886 l 2,5,6
 666 1915 666 1915 698 1915 c 0,7,8
 728 1915 728 1915 772 1886 c 1,9,-1
 1028 1710 l 1,10,11
 1028 1671 1028 1671 1003.5 1640.5 c 128,-1,12
 979 1610 979 1610 944 1610 c 1,13,-1
 698 1726 l 1,0,-1
1149 0 m 1,14,-1
 129 0 l 2,15,16
 102 0 102 0 102 59 c 0,17,18
 102 88 102 88 114 114.5 c 128,-1,19
 126 141 126 141 143 141 c 0,20,21
 231 141 231 141 261 150.5 c 128,-1,22
 291 160 291 160 291 184 c 2,23,-1
 291 1350 l 2,24,25
 291 1364 291 1364 279 1364 c 2,26,-1
 115 1364 l 2,27,28
 95 1364 95 1364 84.5 1388.5 c 128,-1,29
 74 1413 74 1413 74 1442 c 0,30,31
 74 1505 74 1505 100 1505 c 2,32,-1
 1200 1505 l 1,33,-1
 1200 1214 l 2,34,35
 1200 1198 1200 1198 1175 1189 c 128,-1,36
 1150 1180 1150 1180 1122 1180 c 0,37,38
 1059 1180 1059 1180 1059 1202 c 0,39,40
 1059 1245 1059 1245 1054 1269.5 c 128,-1,41
 1049 1294 1049 1294 1032.5 1314.5 c 128,-1,42
 1016 1335 1016 1335 983 1343 c 128,-1,43
 950 1351 950 1351 895 1351 c 2,44,-1
 502 1351 l 1,45,-1
 502 848 l 1,46,-1
 756 848 l 2,47,48
 801 848 801 848 812 874.5 c 128,-1,49
 823 901 823 901 823 999 c 0,50,51
 823 1022 823 1022 883 1022 c 0,52,53
 914 1022 914 1022 939.5 1012 c 128,-1,54
 965 1002 965 1002 965 985 c 2,55,-1
 965 557 l 2,56,57
 965 536 965 536 943.5 526 c 128,-1,58
 922 516 922 516 893 516 c 0,59,60
 821 516 821 516 821 543 c 2,61,-1
 821 694 l 1,62,-1
 502 694 l 1,63,-1
 502 154 l 1,64,-1
 1032 154 l 1,65,-1
 1108 303 l 2,66,67
 1117 322 1117 322 1159 322 c 0,68,69
 1190 322 1190 322 1216 310.5 c 128,-1,70
 1242 299 1242 299 1242 281 c 0,71,72
 1242 276 1242 276 1241 274 c 2,73,-1
 1149 0 l 1,14,-1
EndSplineSet
EndChar

StartChar: Edieresis
Encoding: 203 203 120
Width: 1303
Flags: MW
HStem: 0 141<117 204.5 131.5 204.5 131.5 1149> 0 154<502 1032 502 1149> 694 154<502 756 756 786.5 502 821 502 756> 1002 20G<870.5 901.5> 1351 154<502 895 502 502> 1364 141<100.5 115 115 279> 1620 276<419 499 873 953>
VStem: 291 211<184 694 848 1350 1350 1351> 325 273<1717 1797> 778 272<1717 1797> 821 144<543 557 557 694 694 694> 1059 141<1202.5 1214 1214 1253.5>
LayerCount: 2
Fore
SplineSet
1149 0 m 1,0,-1
 129 0 l 2,1,2
 102 0 102 0 102 59 c 0,3,4
 102 88 102 88 114 114.5 c 128,-1,5
 126 141 126 141 143 141 c 0,6,7
 231 141 231 141 261 150.5 c 128,-1,8
 291 160 291 160 291 184 c 2,9,-1
 291 1350 l 2,10,11
 291 1364 291 1364 279 1364 c 2,12,-1
 115 1364 l 2,13,14
 95 1364 95 1364 84.5 1388.5 c 128,-1,15
 74 1413 74 1413 74 1442 c 0,16,17
 74 1505 74 1505 100 1505 c 2,18,-1
 1200 1505 l 1,19,-1
 1200 1214 l 2,20,21
 1200 1198 1200 1198 1175 1189 c 128,-1,22
 1150 1180 1150 1180 1122 1180 c 0,23,24
 1059 1180 1059 1180 1059 1202 c 0,25,26
 1059 1245 1059 1245 1054 1269.5 c 128,-1,27
 1049 1294 1049 1294 1032.5 1314.5 c 128,-1,28
 1016 1335 1016 1335 983 1343 c 128,-1,29
 950 1351 950 1351 895 1351 c 2,30,-1
 502 1351 l 1,31,-1
 502 848 l 1,32,-1
 756 848 l 2,33,34
 801 848 801 848 812 874.5 c 128,-1,35
 823 901 823 901 823 999 c 0,36,37
 823 1022 823 1022 883 1022 c 0,38,39
 914 1022 914 1022 939.5 1012 c 128,-1,40
 965 1002 965 1002 965 985 c 2,41,-1
 965 557 l 2,42,43
 965 536 965 536 943.5 526 c 128,-1,44
 922 516 922 516 893 516 c 0,45,46
 821 516 821 516 821 543 c 2,47,-1
 821 694 l 1,48,-1
 502 694 l 1,49,-1
 502 154 l 1,50,-1
 1032 154 l 1,51,-1
 1108 303 l 2,52,53
 1117 322 1117 322 1159 322 c 0,54,55
 1190 322 1190 322 1216 310.5 c 128,-1,56
 1242 299 1242 299 1242 281 c 0,57,58
 1242 276 1242 276 1241 274 c 2,59,-1
 1149 0 l 1,0,-1
458 1620 m 0,60,61
 400 1620 400 1620 362.5 1658.5 c 128,-1,62
 325 1697 325 1697 325 1757 c 128,-1,63
 325 1817 325 1817 362.5 1856.5 c 128,-1,64
 400 1896 400 1896 458 1896 c 0,65,66
 519 1896 519 1896 558.5 1856.5 c 128,-1,67
 598 1817 598 1817 598 1757 c 128,-1,68
 598 1697 598 1697 558.5 1658.5 c 128,-1,69
 519 1620 519 1620 458 1620 c 0,60,61
913 1620 m 128,-1,71
 853 1620 853 1620 815.5 1658.5 c 128,-1,72
 778 1697 778 1697 778 1757 c 128,-1,73
 778 1817 778 1817 815.5 1856.5 c 128,-1,74
 853 1896 853 1896 913 1896 c 128,-1,75
 973 1896 973 1896 1011.5 1856.5 c 128,-1,76
 1050 1817 1050 1817 1050 1757 c 128,-1,77
 1050 1697 1050 1697 1011.5 1658.5 c 128,-1,70
 973 1620 973 1620 913 1620 c 128,-1,71
EndSplineSet
EndChar

StartChar: Igrave
Encoding: 204 204 121
Width: 782
Flags: MW
HStem: 0 141<109.5 202.5 130.5 202.5 500 653> 1364 141<99.5 113 113 276 500 500 500 680> 1971 20G<162 204>
VStem: 55 422<1677.5 1880.5> 289 211<184 1348 1348 1351>
LayerCount: 2
Fore
SplineSet
121 0 m 2,0,1
 98 0 98 0 98 57 c 0,2,3
 98 88 98 88 111.5 114.5 c 128,-1,4
 125 141 125 141 141 141 c 0,5,6
 229 141 229 141 259 150.5 c 128,-1,7
 289 160 289 160 289 184 c 2,8,-1
 289 1348 l 2,9,10
 289 1364 289 1364 276 1364 c 2,11,-1
 113 1364 l 2,12,13
 94 1364 94 1364 83 1390 c 128,-1,14
 72 1416 72 1416 72 1446 c 0,15,16
 72 1505 72 1505 98 1505 c 2,17,-1
 690 1505 l 2,18,19
 715 1505 715 1505 715 1440 c 0,20,21
 715 1409 715 1409 706 1386.5 c 128,-1,22
 697 1364 697 1364 680 1364 c 2,23,-1
 500 1364 l 1,24,-1
 500 141 l 1,25,-1
 668 141 l 2,26,27
 694 141 694 141 694 80 c 0,28,29
 694 52 694 52 683.5 26 c 128,-1,30
 673 0 673 0 653 0 c 2,31,-1
 121 0 l 2,0,1
379 1598 m 1,32,-1
 55 1833 l 1,33,34
 55 1903 55 1903 97.5 1947 c 128,-1,35
 140 1991 140 1991 204 1991 c 1,36,-1
 477 1706 l 1,37,38
 477 1662 477 1662 449 1630 c 128,-1,39
 421 1598 421 1598 379 1598 c 1,32,-1
EndSplineSet
EndChar

StartChar: Iacute
Encoding: 205 205 122
Width: 782
Flags: MW
HStem: 0 141<109.5 202.5 130.5 202.5 500 653> 1364 141<99.5 113 113 276 500 500 500 680> 1971 20G<584 626>
VStem: 289 211<184 1348 1348 1351> 311 422<1677.5 1880.5>
LayerCount: 2
Fore
SplineSet
121 0 m 2,0,1
 98 0 98 0 98 57 c 0,2,3
 98 88 98 88 111.5 114.5 c 128,-1,4
 125 141 125 141 141 141 c 0,5,6
 229 141 229 141 259 150.5 c 128,-1,7
 289 160 289 160 289 184 c 2,8,-1
 289 1348 l 2,9,10
 289 1364 289 1364 276 1364 c 2,11,-1
 113 1364 l 2,12,13
 94 1364 94 1364 83 1390 c 128,-1,14
 72 1416 72 1416 72 1446 c 0,15,16
 72 1505 72 1505 98 1505 c 2,17,-1
 690 1505 l 2,18,19
 715 1505 715 1505 715 1440 c 0,20,21
 715 1409 715 1409 706 1386.5 c 128,-1,22
 697 1364 697 1364 680 1364 c 2,23,-1
 500 1364 l 1,24,-1
 500 141 l 1,25,-1
 668 141 l 2,26,27
 694 141 694 141 694 80 c 0,28,29
 694 52 694 52 683.5 26 c 128,-1,30
 673 0 673 0 653 0 c 2,31,-1
 121 0 l 2,0,1
733 1833 m 1,32,-1
 410 1598 l 1,33,34
 367 1598 367 1598 339 1630 c 128,-1,35
 311 1662 311 1662 311 1706 c 1,36,-1
 584 1991 l 1,37,38
 648 1991 648 1991 690.5 1947 c 128,-1,39
 733 1903 733 1903 733 1833 c 1,32,-1
EndSplineSet
EndChar

StartChar: Icircumflex
Encoding: 206 206 123
Width: 782
Flags: MW
HStem: 0 141<109.5 202.5 130.5 202.5 500 653> 1364 141<99.5 113 113 276 500 500 500 680> 1610 305<119.5 406.5 374.5 660.5>
VStem: 59 662<1684.5 1710> 289 211<184 1348 1348 1351>
LayerCount: 2
Fore
SplineSet
391 1726 m 1,0,-1
 143 1610 l 1,1,2
 108 1610 108 1610 83.5 1640.5 c 128,-1,3
 59 1671 59 1671 59 1710 c 1,4,-1
 315 1886 l 2,5,6
 357 1915 357 1915 391 1915 c 0,7,8
 422 1915 422 1915 465 1886 c 2,9,-1
 721 1710 l 1,10,11
 721 1671 721 1671 696.5 1640.5 c 128,-1,12
 672 1610 672 1610 637 1610 c 1,13,-1
 391 1726 l 1,0,-1
121 0 m 2,14,15
 98 0 98 0 98 57 c 0,16,17
 98 88 98 88 111.5 114.5 c 128,-1,18
 125 141 125 141 141 141 c 0,19,20
 229 141 229 141 259 150.5 c 128,-1,21
 289 160 289 160 289 184 c 2,22,-1
 289 1348 l 2,23,24
 289 1364 289 1364 276 1364 c 2,25,-1
 113 1364 l 2,26,27
 94 1364 94 1364 83 1390 c 128,-1,28
 72 1416 72 1416 72 1446 c 0,29,30
 72 1505 72 1505 98 1505 c 2,31,-1
 690 1505 l 2,32,33
 715 1505 715 1505 715 1440 c 0,34,35
 715 1409 715 1409 706 1386.5 c 128,-1,36
 697 1364 697 1364 680 1364 c 2,37,-1
 500 1364 l 1,38,-1
 500 141 l 1,39,-1
 668 141 l 2,40,41
 694 141 694 141 694 80 c 0,42,43
 694 52 694 52 683.5 26 c 128,-1,44
 673 0 673 0 653 0 c 2,45,-1
 121 0 l 2,14,15
EndSplineSet
EndChar

StartChar: Idieresis
Encoding: 207 207 124
Width: 782
Flags: MW
HStem: 0 141<109.5 202.5 130.5 202.5 500 653> 1364 141<99.5 113 113 276 500 500 500 680> 1620 276<127 207 581 661>
VStem: 33 273<1717 1797> 289 211<184 1348 1348 1351> 486 272<1717 1797>
LayerCount: 2
Fore
SplineSet
121 0 m 2,0,1
 98 0 98 0 98 57 c 0,2,3
 98 88 98 88 111.5 114.5 c 128,-1,4
 125 141 125 141 141 141 c 0,5,6
 229 141 229 141 259 150.5 c 128,-1,7
 289 160 289 160 289 184 c 2,8,-1
 289 1348 l 2,9,10
 289 1364 289 1364 276 1364 c 2,11,-1
 113 1364 l 2,12,13
 94 1364 94 1364 83 1390 c 128,-1,14
 72 1416 72 1416 72 1446 c 0,15,16
 72 1505 72 1505 98 1505 c 2,17,-1
 690 1505 l 2,18,19
 715 1505 715 1505 715 1440 c 0,20,21
 715 1409 715 1409 706 1386.5 c 128,-1,22
 697 1364 697 1364 680 1364 c 2,23,-1
 500 1364 l 1,24,-1
 500 141 l 1,25,-1
 668 141 l 2,26,27
 694 141 694 141 694 80 c 0,28,29
 694 52 694 52 683.5 26 c 128,-1,30
 673 0 673 0 653 0 c 2,31,-1
 121 0 l 2,0,1
166 1620 m 0,32,33
 108 1620 108 1620 70.5 1658.5 c 128,-1,34
 33 1697 33 1697 33 1757 c 128,-1,35
 33 1817 33 1817 70.5 1856.5 c 128,-1,36
 108 1896 108 1896 166 1896 c 0,37,38
 227 1896 227 1896 266.5 1856.5 c 128,-1,39
 306 1817 306 1817 306 1757 c 128,-1,40
 306 1697 306 1697 266.5 1658.5 c 128,-1,41
 227 1620 227 1620 166 1620 c 0,32,33
621 1620 m 128,-1,43
 561 1620 561 1620 523.5 1658.5 c 128,-1,44
 486 1697 486 1697 486 1757 c 128,-1,45
 486 1817 486 1817 523.5 1856.5 c 128,-1,46
 561 1896 561 1896 621 1896 c 128,-1,47
 681 1896 681 1896 719.5 1856.5 c 128,-1,48
 758 1817 758 1817 758 1757 c 128,-1,49
 758 1697 758 1697 719.5 1658.5 c 128,-1,42
 681 1620 681 1620 621 1620 c 128,-1,43
EndSplineSet
EndChar

StartChar: Eth
Encoding: 208 208 125
Width: 1513
Flags: MW
HStem: 0 141<118 203.5 133 203.5 133 682> 0 154<502 649 649 682> 694 154<121 291 121 291 502 756> 1351 154<502 502 502 674> 1364 141<100.5 115 115 279>
VStem: 121 635<694 848 694 848> 291 211<184 694 154 694 848 1350 1350 1351> 1181 233<529.5 933>
LayerCount: 2
Fore
SplineSet
121 694 m 1,0,-1
 121 848 l 1,1,-1
 291 848 l 1,2,-1
 291 1350 l 2,3,4
 291 1364 291 1364 279 1364 c 2,5,-1
 115 1364 l 2,6,7
 95 1364 95 1364 84.5 1388.5 c 128,-1,8
 74 1413 74 1413 74 1442 c 0,9,10
 74 1505 74 1505 100 1505 c 2,11,-1
 682 1505 l 2,12,13
 884 1505 884 1505 1025.5 1458 c 128,-1,14
 1167 1411 1167 1411 1252 1314 c 128,-1,15
 1337 1217 1337 1217 1375.5 1081.5 c 128,-1,16
 1414 946 1414 946 1414 758 c 0,17,18
 1414 600 1414 600 1372.5 471 c 128,-1,19
 1331 342 1331 342 1261.5 256 c 128,-1,20
 1192 170 1192 170 1097 111 c 128,-1,21
 1002 52 1002 52 898.5 26 c 128,-1,22
 795 0 795 0 682 0 c 2,23,-1
 129 0 l 2,24,25
 102 0 102 0 102 57 c 0,26,27
 102 85 102 85 115 113 c 128,-1,28
 128 141 128 141 143 141 c 0,29,30
 230 141 230 141 260.5 150.5 c 128,-1,31
 291 160 291 160 291 184 c 2,32,-1
 291 694 l 1,33,-1
 121 694 l 1,0,-1
502 1351 m 1,34,-1
 502 848 l 1,35,-1
 756 848 l 1,36,-1
 756 694 l 1,37,-1
 502 694 l 1,38,-1
 502 154 l 1,39,-1
 649 154 l 2,40,41
 728 154 728 154 804 175.5 c 128,-1,42
 880 197 880 197 948.5 243 c 128,-1,43
 1017 289 1017 289 1068.5 355 c 128,-1,44
 1120 421 1120 421 1150.5 516 c 128,-1,45
 1181 611 1181 611 1181 723 c 0,46,47
 1181 1034 1181 1034 1049.5 1192.5 c 128,-1,48
 918 1351 918 1351 674 1351 c 2,49,-1
 502 1351 l 1,34,-1
EndSplineSet
EndChar

StartChar: Ntilde
Encoding: 209 209 126
Width: 1614
Flags: MW
HStem: 0 141<110.5 202.5 130.5 202.5 443 596> 1364 141<99.5 113 113 276 1049.5 1063 1063 1226 1393 1393 1393 1572> 1604 168<950 1040 950 1073> 1737 180<638 731>
VStem: 289 154<184 1127 141 1348> 419 849<1695.5 1831.5> 1239 154<400 1348 1348 1351>
LayerCount: 2
Fore
SplineSet
513 1627 m 1,0,1
 474 1627 474 1627 446.5 1655 c 128,-1,2
 419 1683 419 1683 419 1719 c 1,3,4
 434 1745 434 1745 455 1772 c 128,-1,5
 476 1799 476 1799 512.5 1835 c 128,-1,6
 549 1871 549 1871 600.5 1894 c 128,-1,7
 652 1917 652 1917 707 1917 c 0,8,9
 744 1917 744 1917 785 1894.5 c 128,-1,10
 826 1872 826 1872 857 1844.5 c 128,-1,11
 888 1817 888 1817 927.5 1794.5 c 128,-1,12
 967 1772 967 1772 1002 1772 c 0,13,14
 1028 1772 1028 1772 1055.5 1788 c 128,-1,15
 1083 1804 1083 1804 1100.5 1823.5 c 128,-1,16
 1118 1843 1118 1843 1139.5 1868 c 128,-1,17
 1161 1893 1161 1893 1170 1901 c 1,18,19
 1208 1901 1208 1901 1238 1872 c 128,-1,20
 1268 1843 1268 1843 1268 1809 c 1,21,22
 1258 1785 1258 1785 1238.5 1755.5 c 128,-1,23
 1219 1726 1219 1726 1185 1689 c 128,-1,24
 1151 1652 1151 1652 1099.5 1628 c 128,-1,25
 1048 1604 1048 1604 990 1604 c 0,26,27
 943 1604 943 1604 897 1625 c 128,-1,28
 851 1646 851 1646 820.5 1670.5 c 128,-1,29
 790 1695 790 1695 752.5 1716 c 128,-1,30
 715 1737 715 1737 683 1737 c 0,31,32
 643 1737 643 1737 610 1717.5 c 128,-1,33
 577 1698 577 1698 545 1662.5 c 2,34,-1
 513 1627 l 1,0,1
1239 400 m 1,35,-1
 1239 1348 l 2,36,37
 1239 1364 1239 1364 1226 1364 c 2,38,-1
 1063 1364 l 2,39,40
 1044 1364 1044 1364 1033 1390 c 128,-1,41
 1022 1416 1022 1416 1022 1446 c 0,42,43
 1022 1505 1022 1505 1048 1505 c 2,44,-1
 1582 1505 l 2,45,46
 1607 1505 1607 1505 1607 1440 c 0,47,48
 1607 1409 1607 1409 1598 1386.5 c 128,-1,49
 1589 1364 1589 1364 1572 1364 c 2,50,-1
 1393 1364 l 1,51,-1
 1393 -2 l 2,52,53
 1393 -20 1393 -20 1319 -20 c 0,54,55
 1249 -20 1249 -20 1237 -2 c 2,56,-1
 443 1127 l 1,57,-1
 443 141 l 1,58,-1
 611 141 l 2,59,60
 624 141 624 141 631 122 c 128,-1,61
 638 103 638 103 638 80 c 0,62,63
 638 51 638 51 627.5 25.5 c 128,-1,64
 617 0 617 0 596 0 c 2,65,-1
 123 0 l 2,66,67
 98 0 98 0 98 57 c 0,68,69
 98 87 98 87 111.5 114 c 128,-1,70
 125 141 125 141 141 141 c 0,71,72
 229 141 229 141 259 150.5 c 128,-1,73
 289 160 289 160 289 184 c 2,74,-1
 289 1348 l 2,75,76
 289 1364 289 1364 276 1364 c 2,77,-1
 113 1364 l 2,78,79
 94 1364 94 1364 83 1390.5 c 128,-1,80
 72 1417 72 1417 72 1446 c 0,81,82
 72 1505 72 1505 98 1505 c 2,83,-1
 446 1505 l 1,84,-1
 1239 400 l 1,35,-1
EndSplineSet
EndChar

StartChar: Ograve
Encoding: 210 210 127
Width: 1522
Flags: MW
HStem: -20 165<638.5 881.5 638.5 920.5> 1360 165<639 873.5> 1971 20G<497 539>
VStem: 113 230<595.5 988 595.5 998> 390 422<1677.5 1880.5> 1179 230<510.5 904>
LayerCount: 2
Fore
SplineSet
742 -20 m 0,0,1
 637 -20 637 -20 544 8 c 128,-1,2
 451 36 451 36 371.5 95.5 c 128,-1,3
 292 155 292 155 235 242.5 c 128,-1,4
 178 330 178 330 145.5 454.5 c 128,-1,5
 113 579 113 579 113 731 c 0,6,7
 113 927 113 927 164 1080 c 128,-1,8
 215 1233 215 1233 306 1329 c 128,-1,9
 397 1425 397 1425 518.5 1475 c 128,-1,10
 640 1525 640 1525 785 1525 c 0,11,12
 1088 1525 1088 1525 1248.5 1312.5 c 128,-1,13
 1409 1100 1409 1100 1409 716 c 0,14,15
 1409 565 1409 565 1374 441 c 128,-1,16
 1339 317 1339 317 1277.5 232.5 c 128,-1,17
 1216 148 1216 148 1131 90.5 c 128,-1,18
 1046 33 1046 33 948.5 6.5 c 128,-1,19
 851 -20 851 -20 742 -20 c 0,0,1
774 145 m 0,20,21
 859 145 859 145 929 175.5 c 128,-1,22
 999 206 999 206 1056.5 272 c 128,-1,23
 1114 338 1114 338 1146.5 454.5 c 128,-1,24
 1179 571 1179 571 1179 729 c 0,25,26
 1179 902 1179 902 1123.5 1046.5 c 128,-1,27
 1068 1191 1068 1191 969.5 1275.5 c 128,-1,28
 871 1360 871 1360 752 1360 c 0,29,30
 578 1360 578 1360 460.5 1212.5 c 128,-1,31
 343 1065 343 1065 343 823 c 0,32,33
 343 487 343 487 455 316 c 128,-1,34
 567 145 567 145 774 145 c 0,20,21
714 1598 m 1,35,-1
 390 1833 l 1,36,37
 390 1903 390 1903 432.5 1947 c 128,-1,38
 475 1991 475 1991 539 1991 c 1,39,-1
 812 1706 l 1,40,41
 812 1662 812 1662 784 1630 c 128,-1,42
 756 1598 756 1598 714 1598 c 1,35,-1
EndSplineSet
EndChar

StartChar: Oacute
Encoding: 211 211 128
Width: 1522
Flags: MW
HStem: -20 165<638.5 881.5 638.5 920.5> 1360 165<639 873.5> 1971 20G<960 1002>
VStem: 113 230<595.5 988 595.5 998> 687 422<1677.5 1880.5> 1179 230<510.5 904>
LayerCount: 2
Fore
SplineSet
742 -20 m 0,0,1
 637 -20 637 -20 544 8 c 128,-1,2
 451 36 451 36 371.5 95.5 c 128,-1,3
 292 155 292 155 235 242.5 c 128,-1,4
 178 330 178 330 145.5 454.5 c 128,-1,5
 113 579 113 579 113 731 c 0,6,7
 113 927 113 927 164 1080 c 128,-1,8
 215 1233 215 1233 306 1329 c 128,-1,9
 397 1425 397 1425 518.5 1475 c 128,-1,10
 640 1525 640 1525 785 1525 c 0,11,12
 1088 1525 1088 1525 1248.5 1312.5 c 128,-1,13
 1409 1100 1409 1100 1409 716 c 0,14,15
 1409 565 1409 565 1374 441 c 128,-1,16
 1339 317 1339 317 1277.5 232.5 c 128,-1,17
 1216 148 1216 148 1131 90.5 c 128,-1,18
 1046 33 1046 33 948.5 6.5 c 128,-1,19
 851 -20 851 -20 742 -20 c 0,0,1
774 145 m 0,20,21
 859 145 859 145 929 175.5 c 128,-1,22
 999 206 999 206 1056.5 272 c 128,-1,23
 1114 338 1114 338 1146.5 454.5 c 128,-1,24
 1179 571 1179 571 1179 729 c 0,25,26
 1179 902 1179 902 1123.5 1046.5 c 128,-1,27
 1068 1191 1068 1191 969.5 1275.5 c 128,-1,28
 871 1360 871 1360 752 1360 c 0,29,30
 578 1360 578 1360 460.5 1212.5 c 128,-1,31
 343 1065 343 1065 343 823 c 0,32,33
 343 487 343 487 455 316 c 128,-1,34
 567 145 567 145 774 145 c 0,20,21
1109 1833 m 1,35,-1
 786 1598 l 1,36,37
 743 1598 743 1598 715 1630 c 128,-1,38
 687 1662 687 1662 687 1706 c 1,39,-1
 960 1991 l 1,40,41
 1024 1991 1024 1991 1066.5 1947 c 128,-1,42
 1109 1903 1109 1903 1109 1833 c 1,35,-1
EndSplineSet
EndChar

StartChar: Ocircumflex
Encoding: 212 212 129
Width: 1522
Flags: MW
HStem: -20 165<638.5 881.5 638.5 920.5> 1360 165<639 873.5> 1610 305<496.5 783.5 751.5 1037.5>
VStem: 113 230<595.5 988 595.5 998> 436 662<1684.5 1710> 1179 230<510.5 904>
LayerCount: 2
Fore
SplineSet
768 1726 m 1,0,-1
 520 1610 l 1,1,2
 485 1610 485 1610 460.5 1640.5 c 128,-1,3
 436 1671 436 1671 436 1710 c 1,4,-1
 692 1886 l 2,5,6
 734 1915 734 1915 768 1915 c 0,7,8
 800 1915 800 1915 842 1886 c 2,9,-1
 1098 1710 l 1,10,11
 1098 1671 1098 1671 1073.5 1640.5 c 128,-1,12
 1049 1610 1049 1610 1014 1610 c 1,13,-1
 768 1726 l 1,0,-1
742 -20 m 0,14,15
 637 -20 637 -20 544 8 c 128,-1,16
 451 36 451 36 371.5 95.5 c 128,-1,17
 292 155 292 155 235 242.5 c 128,-1,18
 178 330 178 330 145.5 454.5 c 128,-1,19
 113 579 113 579 113 731 c 0,20,21
 113 927 113 927 164 1080 c 128,-1,22
 215 1233 215 1233 306 1329 c 128,-1,23
 397 1425 397 1425 518.5 1475 c 128,-1,24
 640 1525 640 1525 785 1525 c 0,25,26
 1088 1525 1088 1525 1248.5 1312.5 c 128,-1,27
 1409 1100 1409 1100 1409 716 c 0,28,29
 1409 565 1409 565 1374 441 c 128,-1,30
 1339 317 1339 317 1277.5 232.5 c 128,-1,31
 1216 148 1216 148 1131 90.5 c 128,-1,32
 1046 33 1046 33 948.5 6.5 c 128,-1,33
 851 -20 851 -20 742 -20 c 0,14,15
774 145 m 0,34,35
 859 145 859 145 929 175.5 c 128,-1,36
 999 206 999 206 1056.5 272 c 128,-1,37
 1114 338 1114 338 1146.5 454.5 c 128,-1,38
 1179 571 1179 571 1179 729 c 0,39,40
 1179 902 1179 902 1123.5 1046.5 c 128,-1,41
 1068 1191 1068 1191 969.5 1275.5 c 128,-1,42
 871 1360 871 1360 752 1360 c 0,43,44
 578 1360 578 1360 460.5 1212.5 c 128,-1,45
 343 1065 343 1065 343 823 c 0,46,47
 343 487 343 487 455 316 c 128,-1,48
 567 145 567 145 774 145 c 0,34,35
EndSplineSet
EndChar

StartChar: Otilde
Encoding: 213 213 130
Width: 1522
Flags: MW
HStem: -20 165<638.5 881.5 638.5 920.5> 1360 165<639 873.5> 1604 168<869 959 869 992> 1737 180<557 650>
VStem: 113 230<595.5 988 595.5 998> 338 849<1695.5 1831.5> 1179 230<510.5 904>
LayerCount: 2
Fore
SplineSet
432 1627 m 1,0,1
 393 1627 393 1627 365.5 1655 c 128,-1,2
 338 1683 338 1683 338 1719 c 1,3,4
 353 1745 353 1745 374 1772 c 128,-1,5
 395 1799 395 1799 431.5 1835 c 128,-1,6
 468 1871 468 1871 519.5 1894 c 128,-1,7
 571 1917 571 1917 626 1917 c 0,8,9
 663 1917 663 1917 704 1894.5 c 128,-1,10
 745 1872 745 1872 776 1844.5 c 128,-1,11
 807 1817 807 1817 846.5 1794.5 c 128,-1,12
 886 1772 886 1772 921 1772 c 0,13,14
 947 1772 947 1772 974.5 1788 c 128,-1,15
 1002 1804 1002 1804 1019.5 1823.5 c 128,-1,16
 1037 1843 1037 1843 1058.5 1868 c 128,-1,17
 1080 1893 1080 1893 1089 1901 c 1,18,19
 1127 1901 1127 1901 1157 1872 c 128,-1,20
 1187 1843 1187 1843 1187 1809 c 1,21,22
 1177 1785 1177 1785 1157.5 1755.5 c 128,-1,23
 1138 1726 1138 1726 1104 1689 c 128,-1,24
 1070 1652 1070 1652 1018.5 1628 c 128,-1,25
 967 1604 967 1604 909 1604 c 0,26,27
 862 1604 862 1604 816 1625 c 128,-1,28
 770 1646 770 1646 739.5 1670.5 c 128,-1,29
 709 1695 709 1695 671.5 1716 c 128,-1,30
 634 1737 634 1737 602 1737 c 0,31,32
 562 1737 562 1737 529 1717.5 c 128,-1,33
 496 1698 496 1698 464 1662.5 c 2,34,-1
 432 1627 l 1,0,1
742 -20 m 0,35,36
 637 -20 637 -20 544 8 c 128,-1,37
 451 36 451 36 371.5 95.5 c 128,-1,38
 292 155 292 155 235 242.5 c 128,-1,39
 178 330 178 330 145.5 454.5 c 128,-1,40
 113 579 113 579 113 731 c 0,41,42
 113 927 113 927 164 1080 c 128,-1,43
 215 1233 215 1233 306 1329 c 128,-1,44
 397 1425 397 1425 518.5 1475 c 128,-1,45
 640 1525 640 1525 785 1525 c 0,46,47
 1088 1525 1088 1525 1248.5 1312.5 c 128,-1,48
 1409 1100 1409 1100 1409 716 c 0,49,50
 1409 565 1409 565 1374 441 c 128,-1,51
 1339 317 1339 317 1277.5 232.5 c 128,-1,52
 1216 148 1216 148 1131 90.5 c 128,-1,53
 1046 33 1046 33 948.5 6.5 c 128,-1,54
 851 -20 851 -20 742 -20 c 0,35,36
774 145 m 0,55,56
 859 145 859 145 929 175.5 c 128,-1,57
 999 206 999 206 1056.5 272 c 128,-1,58
 1114 338 1114 338 1146.5 454.5 c 128,-1,59
 1179 571 1179 571 1179 729 c 0,60,61
 1179 902 1179 902 1123.5 1046.5 c 128,-1,62
 1068 1191 1068 1191 969.5 1275.5 c 128,-1,63
 871 1360 871 1360 752 1360 c 0,64,65
 578 1360 578 1360 460.5 1212.5 c 128,-1,66
 343 1065 343 1065 343 823 c 0,67,68
 343 487 343 487 455 316 c 128,-1,69
 567 145 567 145 774 145 c 0,55,56
EndSplineSet
EndChar

StartChar: Odieresis
Encoding: 214 214 131
Width: 1522
Flags: MW
HStem: -20 165<638.5 881.5 638.5 920.5> 1360 165<639 873.5> 1620 276<491 571 945 1025>
VStem: 113 230<595.5 988 595.5 998> 397 273<1717 1797> 850 272<1717 1797> 1179 230<510.5 904>
LayerCount: 2
Fore
SplineSet
742 -20 m 0,0,1
 637 -20 637 -20 544 8 c 128,-1,2
 451 36 451 36 371.5 95.5 c 128,-1,3
 292 155 292 155 235 242.5 c 128,-1,4
 178 330 178 330 145.5 454.5 c 128,-1,5
 113 579 113 579 113 731 c 0,6,7
 113 927 113 927 164 1080 c 128,-1,8
 215 1233 215 1233 306 1329 c 128,-1,9
 397 1425 397 1425 518.5 1475 c 128,-1,10
 640 1525 640 1525 785 1525 c 0,11,12
 1088 1525 1088 1525 1248.5 1312.5 c 128,-1,13
 1409 1100 1409 1100 1409 716 c 0,14,15
 1409 565 1409 565 1374 441 c 128,-1,16
 1339 317 1339 317 1277.5 232.5 c 128,-1,17
 1216 148 1216 148 1131 90.5 c 128,-1,18
 1046 33 1046 33 948.5 6.5 c 128,-1,19
 851 -20 851 -20 742 -20 c 0,0,1
774 145 m 0,20,21
 859 145 859 145 929 175.5 c 128,-1,22
 999 206 999 206 1056.5 272 c 128,-1,23
 1114 338 1114 338 1146.5 454.5 c 128,-1,24
 1179 571 1179 571 1179 729 c 0,25,26
 1179 902 1179 902 1123.5 1046.5 c 128,-1,27
 1068 1191 1068 1191 969.5 1275.5 c 128,-1,28
 871 1360 871 1360 752 1360 c 0,29,30
 578 1360 578 1360 460.5 1212.5 c 128,-1,31
 343 1065 343 1065 343 823 c 0,32,33
 343 487 343 487 455 316 c 128,-1,34
 567 145 567 145 774 145 c 0,20,21
530 1620 m 0,35,36
 472 1620 472 1620 434.5 1658.5 c 128,-1,37
 397 1697 397 1697 397 1757 c 128,-1,38
 397 1817 397 1817 434.5 1856.5 c 128,-1,39
 472 1896 472 1896 530 1896 c 0,40,41
 591 1896 591 1896 630.5 1856.5 c 128,-1,42
 670 1817 670 1817 670 1757 c 128,-1,43
 670 1697 670 1697 630.5 1658.5 c 128,-1,44
 591 1620 591 1620 530 1620 c 0,35,36
985 1620 m 128,-1,46
 925 1620 925 1620 887.5 1658.5 c 128,-1,47
 850 1697 850 1697 850 1757 c 128,-1,48
 850 1817 850 1817 887.5 1856.5 c 128,-1,49
 925 1896 925 1896 985 1896 c 128,-1,50
 1045 1896 1045 1896 1083.5 1856.5 c 128,-1,51
 1122 1817 1122 1817 1122 1757 c 128,-1,52
 1122 1697 1122 1697 1083.5 1658.5 c 128,-1,45
 1045 1620 1045 1620 985 1620 c 128,-1,46
EndSplineSet
EndChar

StartChar: multiply
Encoding: 215 215 132
Width: 1208
Flags: MW
HStem: 178 950<200.5 977>
VStem: 119 973<261 285>
LayerCount: 2
Fore
SplineSet
127 1004 m 1,0,1
 127 1060 127 1060 158 1087 c 128,-1,2
 189 1114 189 1114 233 1114 c 1,3,-1
 602 762 l 1,4,-1
 977 1128 l 1,5,6
 1028 1125 1028 1125 1055.5 1097.5 c 128,-1,7
 1083 1070 1083 1070 1083 1022 c 1,8,-1
 713 657 l 1,9,-1
 1092 295 l 1,10,11
 1092 243 1092 243 1064.5 213.5 c 128,-1,12
 1037 184 1037 184 985 184 c 1,13,-1
 602 549 l 1,14,-1
 225 178 l 1,15,16
 187 178 187 178 153 210.5 c 128,-1,17
 119 243 119 243 119 285 c 1,18,-1
 494 653 l 1,19,-1
 127 1004 l 1,0,1
EndSplineSet
EndChar

StartChar: Oslash
Encoding: 216 216 133
Width: 1522
Flags: MW
HStem: -66 1598<121.5 1395.5> -20 165<715.5 881.5 715.5 920.5> 1360 165<639 809>
VStem: 63 1391 113 230<735.5 988 735.5 998> 1179 230<510.5 791.5>
LayerCount: 2
Fore
SplineSet
742 -20 m 0,0,1
 516 -20 516 -20 360 104 c 1,2,-1
 248 -39 l 1,3,4
 175 -66 175 -66 137 -66 c 0,5,6
 63 -66 63 -66 63 -39 c 1,7,-1
 259 208 l 1,8,9
 113 404 113 404 113 731 c 0,10,11
 113 927 113 927 164 1080 c 128,-1,12
 215 1233 215 1233 306 1329 c 128,-1,13
 397 1425 397 1425 518.5 1475 c 128,-1,14
 640 1525 640 1525 785 1525 c 0,15,16
 1033 1525 1033 1525 1188 1379 c 1,17,-1
 1288 1506 l 1,18,19
 1342 1532 1342 1532 1382 1532 c 0,20,21
 1454 1532 1454 1532 1454 1506 c 1,22,-1
 1274 1275 l 1,23,24
 1409 1067 1409 1067 1409 716 c 0,25,26
 1409 565 1409 565 1374 441 c 128,-1,27
 1339 317 1339 317 1277.5 232.5 c 128,-1,28
 1216 148 1216 148 1131 90.5 c 128,-1,29
 1046 33 1046 33 948.5 6.5 c 128,-1,30
 851 -20 851 -20 742 -20 c 0,0,1
343 823 m 0,31,32
 343 565 343 565 411 400 c 1,33,-1
 1042 1196 l 1,34,35
 921 1360 921 1360 752 1360 c 0,36,37
 578 1360 578 1360 460.5 1212.5 c 128,-1,38
 343 1065 343 1065 343 823 c 0,31,32
774 145 m 0,39,40
 859 145 859 145 929 175.5 c 128,-1,41
 999 206 999 206 1056.5 272 c 128,-1,42
 1114 338 1114 338 1146.5 454.5 c 128,-1,43
 1179 571 1179 571 1179 729 c 0,44,45
 1179 915 1179 915 1113 1069 c 1,46,-1
 489 270 l 1,47,48
 596 145 596 145 774 145 c 0,39,40
EndSplineSet
EndChar

StartChar: Ugrave
Encoding: 217 217 134
Width: 1477
Flags: MW
HStem: -20 165<681 895 681 938> 1364 141<49.5 64 64 227 451 451 451 611 937.5 951 951 1095 1273 1273 1273 1442> 1971 20G<536 578>
VStem: 240 211<569 578 578 1348 1348 1351> 429 422<1677.5 1880.5> 1108 165<575 1348 1348 1352>
LayerCount: 2
Fore
SplineSet
240 569 m 2,0,-1
 240 1348 l 2,1,2
 240 1364 240 1364 227 1364 c 2,3,-1
 64 1364 l 2,4,5
 44 1364 44 1364 33.5 1389.5 c 128,-1,6
 23 1415 23 1415 23 1444 c 0,7,8
 23 1505 23 1505 49 1505 c 2,9,-1
 621 1505 l 2,10,11
 646 1505 646 1505 646 1439 c 0,12,13
 646 1409 646 1409 637 1386.5 c 128,-1,14
 628 1364 628 1364 611 1364 c 2,15,-1
 451 1364 l 1,16,-1
 451 578 l 2,17,18
 451 346 451 346 536.5 245.5 c 128,-1,19
 622 145 622 145 780 145 c 0,20,21
 952 145 952 145 1030 248.5 c 128,-1,22
 1108 352 1108 352 1108 575 c 2,23,-1
 1108 1348 l 2,24,25
 1108 1364 1108 1364 1095 1364 c 2,26,-1
 951 1364 l 2,27,28
 932 1364 932 1364 921 1390 c 128,-1,29
 910 1416 910 1416 910 1446 c 0,30,31
 910 1469 910 1469 916.5 1487 c 128,-1,32
 923 1505 923 1505 936 1505 c 2,33,-1
 1452 1505 l 2,34,35
 1478 1505 1478 1505 1478 1441 c 0,36,37
 1478 1412 1478 1412 1468.5 1388 c 128,-1,38
 1459 1364 1459 1364 1442 1364 c 2,39,-1
 1273 1364 l 1,40,-1
 1273 555 l 2,41,42
 1273 -20 1273 -20 754 -20 c 0,43,44
 611 -20 611 -20 511 17.5 c 128,-1,45
 411 55 411 55 351.5 132 c 128,-1,46
 292 209 292 209 266 315.5 c 128,-1,47
 240 422 240 422 240 569 c 2,0,-1
753 1598 m 1,48,-1
 429 1833 l 1,49,50
 429 1903 429 1903 471.5 1947 c 128,-1,51
 514 1991 514 1991 578 1991 c 1,52,-1
 851 1706 l 1,53,54
 851 1662 851 1662 823 1630 c 128,-1,55
 795 1598 795 1598 753 1598 c 1,48,-1
EndSplineSet
EndChar

StartChar: Uacute
Encoding: 218 218 135
Width: 1477
Flags: MW
HStem: -20 165<681 895 681 938> 1364 141<49.5 64 64 227 451 451 451 611 937.5 951 951 1095 1273 1273 1273 1442> 1971 20G<1013 1055>
VStem: 240 211<569 578 578 1348 1348 1351> 740 422<1677.5 1880.5> 1108 165<575 1348 1348 1352>
LayerCount: 2
Fore
SplineSet
240 569 m 2,0,-1
 240 1348 l 2,1,2
 240 1364 240 1364 227 1364 c 2,3,-1
 64 1364 l 2,4,5
 44 1364 44 1364 33.5 1389.5 c 128,-1,6
 23 1415 23 1415 23 1444 c 0,7,8
 23 1505 23 1505 49 1505 c 2,9,-1
 621 1505 l 2,10,11
 646 1505 646 1505 646 1439 c 0,12,13
 646 1409 646 1409 637 1386.5 c 128,-1,14
 628 1364 628 1364 611 1364 c 2,15,-1
 451 1364 l 1,16,-1
 451 578 l 2,17,18
 451 346 451 346 536.5 245.5 c 128,-1,19
 622 145 622 145 780 145 c 0,20,21
 952 145 952 145 1030 248.5 c 128,-1,22
 1108 352 1108 352 1108 575 c 2,23,-1
 1108 1348 l 2,24,25
 1108 1364 1108 1364 1095 1364 c 2,26,-1
 951 1364 l 2,27,28
 932 1364 932 1364 921 1390 c 128,-1,29
 910 1416 910 1416 910 1446 c 0,30,31
 910 1469 910 1469 916.5 1487 c 128,-1,32
 923 1505 923 1505 936 1505 c 2,33,-1
 1452 1505 l 2,34,35
 1478 1505 1478 1505 1478 1441 c 0,36,37
 1478 1412 1478 1412 1468.5 1388 c 128,-1,38
 1459 1364 1459 1364 1442 1364 c 2,39,-1
 1273 1364 l 1,40,-1
 1273 555 l 2,41,42
 1273 -20 1273 -20 754 -20 c 0,43,44
 611 -20 611 -20 511 17.5 c 128,-1,45
 411 55 411 55 351.5 132 c 128,-1,46
 292 209 292 209 266 315.5 c 128,-1,47
 240 422 240 422 240 569 c 2,0,-1
1162 1833 m 1,48,-1
 839 1598 l 1,49,50
 796 1598 796 1598 768 1630 c 128,-1,51
 740 1662 740 1662 740 1706 c 1,52,-1
 1013 1991 l 1,53,54
 1077 1991 1077 1991 1119.5 1947 c 128,-1,55
 1162 1903 1162 1903 1162 1833 c 1,48,-1
EndSplineSet
EndChar

StartChar: Ucircumflex
Encoding: 219 219 136
Width: 1477
Flags: MW
HStem: -20 165<681 895 681 938> 1364 141<49.5 64 64 227 451 451 451 611 937.5 951 951 1095 1273 1273 1273 1442> 1610 305<514.5 801.5 769.5 1055.5>
VStem: 240 211<569 578 578 1348 1348 1351> 454 662<1684.5 1710> 1108 165<575 1348 1348 1352>
LayerCount: 2
Fore
SplineSet
786 1726 m 1,0,-1
 538 1610 l 1,1,2
 503 1610 503 1610 478.5 1640.5 c 128,-1,3
 454 1671 454 1671 454 1710 c 1,4,-1
 710 1886 l 2,5,6
 752 1915 752 1915 786 1915 c 0,7,8
 816 1915 816 1915 860 1886 c 1,9,-1
 1116 1710 l 1,10,11
 1116 1671 1116 1671 1091.5 1640.5 c 128,-1,12
 1067 1610 1067 1610 1032 1610 c 1,13,-1
 786 1726 l 1,0,-1
240 569 m 2,14,-1
 240 1348 l 2,15,16
 240 1364 240 1364 227 1364 c 2,17,-1
 64 1364 l 2,18,19
 44 1364 44 1364 33.5 1389.5 c 128,-1,20
 23 1415 23 1415 23 1444 c 0,21,22
 23 1505 23 1505 49 1505 c 2,23,-1
 621 1505 l 2,24,25
 646 1505 646 1505 646 1439 c 0,26,27
 646 1409 646 1409 637 1386.5 c 128,-1,28
 628 1364 628 1364 611 1364 c 2,29,-1
 451 1364 l 1,30,-1
 451 578 l 2,31,32
 451 346 451 346 536.5 245.5 c 128,-1,33
 622 145 622 145 780 145 c 0,34,35
 952 145 952 145 1030 248.5 c 128,-1,36
 1108 352 1108 352 1108 575 c 2,37,-1
 1108 1348 l 2,38,39
 1108 1364 1108 1364 1095 1364 c 2,40,-1
 951 1364 l 2,41,42
 932 1364 932 1364 921 1390 c 128,-1,43
 910 1416 910 1416 910 1446 c 0,44,45
 910 1469 910 1469 916.5 1487 c 128,-1,46
 923 1505 923 1505 936 1505 c 2,47,-1
 1452 1505 l 2,48,49
 1478 1505 1478 1505 1478 1441 c 0,50,51
 1478 1412 1478 1412 1468.5 1388 c 128,-1,52
 1459 1364 1459 1364 1442 1364 c 2,53,-1
 1273 1364 l 1,54,-1
 1273 555 l 2,55,56
 1273 -20 1273 -20 754 -20 c 0,57,58
 611 -20 611 -20 511 17.5 c 128,-1,59
 411 55 411 55 351.5 132 c 128,-1,60
 292 209 292 209 266 315.5 c 128,-1,61
 240 422 240 422 240 569 c 2,14,-1
EndSplineSet
EndChar

StartChar: Udieresis
Encoding: 220 220 137
Width: 1477
Flags: MW
HStem: -20 165<681 895 681 938> 1364 141<49.5 64 64 227 451 451 451 611 937.5 951 951 1095 1273 1273 1273 1442> 1620 276<521 601 975 1055>
VStem: 240 211<569 578 578 1348 1348 1351> 427 273<1717 1797> 880 272<1717 1797> 1108 165<575 1348 1348 1352>
LayerCount: 2
Fore
SplineSet
240 569 m 2,0,-1
 240 1348 l 2,1,2
 240 1364 240 1364 227 1364 c 2,3,-1
 64 1364 l 2,4,5
 44 1364 44 1364 33.5 1389.5 c 128,-1,6
 23 1415 23 1415 23 1444 c 0,7,8
 23 1505 23 1505 49 1505 c 2,9,-1
 621 1505 l 2,10,11
 646 1505 646 1505 646 1439 c 0,12,13
 646 1409 646 1409 637 1386.5 c 128,-1,14
 628 1364 628 1364 611 1364 c 2,15,-1
 451 1364 l 1,16,-1
 451 578 l 2,17,18
 451 346 451 346 536.5 245.5 c 128,-1,19
 622 145 622 145 780 145 c 0,20,21
 952 145 952 145 1030 248.5 c 128,-1,22
 1108 352 1108 352 1108 575 c 2,23,-1
 1108 1348 l 2,24,25
 1108 1364 1108 1364 1095 1364 c 2,26,-1
 951 1364 l 2,27,28
 932 1364 932 1364 921 1390 c 128,-1,29
 910 1416 910 1416 910 1446 c 0,30,31
 910 1469 910 1469 916.5 1487 c 128,-1,32
 923 1505 923 1505 936 1505 c 2,33,-1
 1452 1505 l 2,34,35
 1478 1505 1478 1505 1478 1441 c 0,36,37
 1478 1412 1478 1412 1468.5 1388 c 128,-1,38
 1459 1364 1459 1364 1442 1364 c 2,39,-1
 1273 1364 l 1,40,-1
 1273 555 l 2,41,42
 1273 -20 1273 -20 754 -20 c 0,43,44
 611 -20 611 -20 511 17.5 c 128,-1,45
 411 55 411 55 351.5 132 c 128,-1,46
 292 209 292 209 266 315.5 c 128,-1,47
 240 422 240 422 240 569 c 2,0,-1
560 1620 m 0,48,49
 502 1620 502 1620 464.5 1658.5 c 128,-1,50
 427 1697 427 1697 427 1757 c 128,-1,51
 427 1817 427 1817 464.5 1856.5 c 128,-1,52
 502 1896 502 1896 560 1896 c 0,53,54
 621 1896 621 1896 660.5 1856.5 c 128,-1,55
 700 1817 700 1817 700 1757 c 128,-1,56
 700 1697 700 1697 660.5 1658.5 c 128,-1,57
 621 1620 621 1620 560 1620 c 0,48,49
1015 1620 m 128,-1,59
 955 1620 955 1620 917.5 1658.5 c 128,-1,60
 880 1697 880 1697 880 1757 c 128,-1,61
 880 1817 880 1817 917.5 1856.5 c 128,-1,62
 955 1896 955 1896 1015 1896 c 128,-1,63
 1075 1896 1075 1896 1113.5 1856.5 c 128,-1,64
 1152 1817 1152 1817 1152 1757 c 128,-1,65
 1152 1697 1152 1697 1113.5 1658.5 c 128,-1,58
 1075 1620 1075 1620 1015 1620 c 128,-1,59
EndSplineSet
EndChar

StartChar: Yacute
Encoding: 221 221 138
Width: 1393
Flags: MW
HStem: 0 141<313.5 493 344 493 493 538 813 1043> 1364 141<42.5 559 66 165 516.5 558 898 1044 1286 1330.5> 1971 20G<953 995>
VStem: 602 211<184 559 141 559> 680 422<1677.5 1880.5>
LayerCount: 2
Fore
SplineSet
493 141 m 2,0,1
 557 141 557 141 579.5 151.5 c 128,-1,2
 602 162 602 162 602 184 c 2,3,-1
 602 559 l 1,4,-1
 165 1364 l 1,5,-1
 53 1364 l 2,6,7
 27 1364 27 1364 27 1424 c 0,8,9
 27 1453 27 1453 37 1479 c 128,-1,10
 47 1505 47 1505 66 1505 c 2,11,-1
 559 1505 l 2,12,13
 584 1505 584 1505 584 1448 c 0,14,15
 584 1418 584 1418 573.5 1391 c 128,-1,16
 563 1364 563 1364 543 1364 c 0,17,18
 492 1364 492 1364 464.5 1357.5 c 128,-1,19
 437 1351 437 1351 437 1329 c 0,20,21
 437 1319 437 1319 443 1307 c 2,22,-1
 728 735 l 1,23,-1
 1044 1364 l 1,24,-1
 888 1364 l 2,25,26
 862 1364 862 1364 862 1422 c 0,27,28
 862 1452 862 1452 871.5 1478.5 c 128,-1,29
 881 1505 881 1505 898 1505 c 2,30,-1
 1334 1505 l 2,31,32
 1359 1505 1359 1505 1359 1448 c 0,33,34
 1359 1418 1359 1418 1347.5 1391 c 128,-1,35
 1336 1364 1336 1364 1318 1364 c 0,36,37
 1233 1364 1233 1364 1210 1321 c 2,38,-1
 813 559 l 1,39,-1
 813 141 l 1,40,-1
 1058 141 l 2,41,42
 1084 141 1084 141 1084 80 c 0,43,44
 1084 52 1084 52 1073.5 26 c 128,-1,45
 1063 0 1063 0 1043 0 c 2,46,-1
 326 0 l 2,47,48
 301 0 301 0 301 57 c 0,49,50
 301 88 301 88 314.5 114.5 c 128,-1,51
 328 141 328 141 344 141 c 2,52,-1
 493 141 l 2,0,1
1102 1833 m 1,53,-1
 779 1598 l 1,54,55
 736 1598 736 1598 708 1630 c 128,-1,56
 680 1662 680 1662 680 1706 c 1,57,-1
 953 1991 l 1,58,59
 1017 1991 1017 1991 1059.5 1947 c 128,-1,60
 1102 1903 1102 1903 1102 1833 c 1,53,-1
EndSplineSet
EndChar

StartChar: Thorn
Encoding: 222 222 139
Width: 1221
Flags: MW
HStem: 0 141<110.5 202.5 130.5 202.5 500 653> 334 154<500 621 500 712> 1028 154<500 653> 1364 141<99.5 113 113 276 500 500 500 680>
VStem: 289 211<184 334 141 488 488 1028 1182 1348 1348 1351> 922 233<639.5 865>
LayerCount: 2
Fore
SplineSet
141 141 m 0,0,1
 229 141 229 141 259 150.5 c 128,-1,2
 289 160 289 160 289 184 c 2,3,-1
 289 1348 l 2,4,5
 289 1364 289 1364 276 1364 c 2,6,-1
 113 1364 l 2,7,8
 94 1364 94 1364 83 1390 c 128,-1,9
 72 1416 72 1416 72 1446 c 0,10,11
 72 1505 72 1505 98 1505 c 2,12,-1
 690 1505 l 2,13,14
 715 1505 715 1505 715 1440 c 0,15,16
 715 1409 715 1409 706 1386.5 c 128,-1,17
 697 1364 697 1364 680 1364 c 2,18,-1
 500 1364 l 1,19,-1
 500 1182 l 1,20,-1
 653 1182 l 2,21,22
 887 1182 887 1182 1021 1082.5 c 128,-1,23
 1155 983 1155 983 1155 795 c 0,24,25
 1155 564 1155 564 988.5 449 c 128,-1,26
 822 334 822 334 500 334 c 1,27,-1
 500 141 l 1,28,-1
 668 141 l 2,29,30
 694 141 694 141 694 80 c 0,31,32
 694 52 694 52 683.5 26 c 128,-1,33
 673 0 673 0 653 0 c 2,34,-1
 123 0 l 2,35,36
 98 0 98 0 98 57 c 0,37,38
 98 88 98 88 111.5 114.5 c 128,-1,39
 125 141 125 141 141 141 c 0,0,1
922 750 m 0,40,41
 922 817 922 817 899.5 867 c 128,-1,42
 877 917 877 917 840 947 c 128,-1,43
 803 977 803 977 746.5 995.5 c 128,-1,44
 690 1014 690 1014 632 1021 c 128,-1,45
 574 1028 574 1028 500 1028 c 1,46,-1
 500 488 l 1,47,48
 578 488 578 488 637.5 494 c 128,-1,49
 697 500 697 500 752.5 517 c 128,-1,50
 808 534 808 534 843.5 562.5 c 128,-1,51
 879 591 879 591 900.5 638 c 128,-1,52
 922 685 922 685 922 750 c 0,40,41
EndSplineSet
EndChar

StartChar: germandbls
Encoding: 223 223 140
Width: 1212
Flags: MW
HStem: -20 154<843.5 862 843.5 945.5> 1429 154<558.5 694.5>
VStem: 184 195<225 1077 86 1082 86 1211> 491 275<180 224 180 225> 588 195<654.5 844.5 654.5 860> 848 211<1136 1324.5> 987 195<224.5 382>
LayerCount: 2
Fore
SplineSet
1059 1239 m 0,0,1
 1059 1171 1059 1171 1030.5 1112 c 128,-1,2
 1002 1053 1002 1053 961.5 1011 c 128,-1,3
 921 969 921 969 880.5 931 c 128,-1,4
 840 893 840 893 811.5 851 c 128,-1,5
 783 809 783 809 783 766 c 0,6,7
 783 721 783 721 805 687.5 c 128,-1,8
 827 654 827 654 862 632.5 c 128,-1,9
 897 611 897 611 940 591 c 128,-1,10
 983 571 983 571 1025.5 546 c 128,-1,11
 1068 521 1068 521 1103 489 c 128,-1,12
 1138 457 1138 457 1160 403.5 c 128,-1,13
 1182 350 1182 350 1182 279 c 0,14,15
 1182 143 1182 143 1089.5 61.5 c 128,-1,16
 997 -20 997 -20 842 -20 c 0,17,18
 793 -20 793 -20 737 -9 c 128,-1,19
 681 2 681 2 623.5 24 c 128,-1,20
 566 46 566 46 528.5 88 c 128,-1,21
 491 130 491 130 491 184 c 0,22,23
 491 245 491 245 530.5 283.5 c 128,-1,24
 570 322 570 322 629 322 c 0,25,26
 687 322 687 322 726.5 283 c 128,-1,27
 766 244 766 244 766 184 c 0,28,29
 766 161 766 161 762 143 c 1,30,31
 794 134 794 134 862 134 c 1,32,33
 918 135 918 135 952.5 171 c 128,-1,34
 987 207 987 207 987 256 c 0,35,36
 987 307 987 307 965 344 c 128,-1,37
 943 381 943 381 908 403 c 128,-1,38
 873 425 873 425 830.5 444 c 128,-1,39
 788 463 788 463 745 485 c 128,-1,40
 702 507 702 507 667 536 c 128,-1,41
 632 565 632 565 610 615 c 128,-1,42
 588 665 588 665 588 732 c 0,43,44
 588 803 588 803 615 861.5 c 128,-1,45
 642 920 642 920 680 961.5 c 128,-1,46
 718 1003 718 1003 756 1042.5 c 128,-1,47
 794 1082 794 1082 821 1134 c 128,-1,48
 848 1186 848 1186 848 1246 c 0,49,50
 848 1291 848 1291 835 1325 c 128,-1,51
 822 1359 822 1359 802.5 1378.5 c 128,-1,52
 783 1398 783 1398 756 1410 c 128,-1,53
 729 1422 729 1422 706 1425.5 c 128,-1,54
 683 1429 683 1429 658 1429 c 0,55,56
 587 1429 587 1429 531 1394.5 c 128,-1,57
 475 1360 475 1360 443.5 1305.5 c 128,-1,58
 412 1251 412 1251 395.5 1192 c 128,-1,59
 379 1133 379 1133 379 1077 c 2,60,-1
 379 86 l 1,61,-1
 288 -14 l 1,62,63
 277.5 -20 277.5 -20 261 -20 c 0,64,65
 227 -20 227 -20 187.5 -0.5 c 128,-1,66
 148 19 148 19 139 44 c 1,67,-1
 184 225 l 1,68,-1
 184 1082 l 2,69,70
 184 1161 184 1161 201 1233 c 128,-1,71
 218 1305 218 1305 255 1369.5 c 128,-1,72
 292 1434 292 1434 345.5 1481 c 128,-1,73
 399 1528 399 1528 477.5 1555.5 c 128,-1,74
 556 1583 556 1583 651 1583 c 0,75,76
 714 1583 714 1583 771 1572.5 c 128,-1,77
 828 1562 828 1562 881.5 1536.5 c 128,-1,78
 935 1511 935 1511 973.5 1472.5 c 128,-1,79
 1012 1434 1012 1434 1035.5 1374 c 128,-1,80
 1059 1314 1059 1314 1059 1239 c 0,0,1
EndSplineSet
EndChar

StartChar: acircumflex
Encoding: 226 226 141
Width: 1145
Flags: MW
HStem: -20 154<431 496.5> -16 157<798.5 1083> 429 150<473 508 508 720> 880 141<500.5 524 422 704.5> 1485 20G<518.5 550>
VStem: 113 202<236.5 334 236.5 372.5> 160 274<778 829.5 778 905> 203 661<1274.5 1300> 720 195<234 429 429 429 579 653 141 681>
LayerCount: 2
Fore
SplineSet
535 1317 m 1,0,-1
 287 1200 l 1,1,2
 252 1200 252 1200 227.5 1230.5 c 128,-1,3
 203 1261 203 1261 203 1300 c 1,4,-1
 459 1477 l 2,5,6
 501 1505 501 1505 535 1505 c 0,7,8
 566 1505 566 1505 608 1477 c 2,9,-1
 864 1300 l 1,10,11
 864 1261 864 1261 839.5 1230.5 c 128,-1,12
 815 1200 815 1200 780 1200 c 1,13,-1
 535 1317 l 1,0,-1
297 681 m 128,-1,15
 238 681 238 681 199 719.5 c 128,-1,16
 160 758 160 758 160 818 c 0,17,18
 160 868 160 868 190.5 906 c 128,-1,19
 221 944 221 944 265 965 c 128,-1,20
 309 986 309 986 367.5 999.5 c 128,-1,21
 426 1013 426 1013 472.5 1017 c 128,-1,22
 519 1021 519 1021 563 1021 c 0,23,24
 645 1021 645 1021 708 1001 c 128,-1,25
 771 981 771 981 809.5 948 c 128,-1,26
 848 915 848 915 872.5 866.5 c 128,-1,27
 897 818 897 818 906 766.5 c 128,-1,28
 915 715 915 715 915 653 c 2,29,-1
 915 141 l 1,30,-1
 1083 141 l 2,31,32
 1110 141 1110 141 1110 82 c 0,33,34
 1110 53 1110 53 1099.5 29 c 128,-1,35
 1089 5 1089 5 1069 0 c 0,36,37
 997 -16 997 -16 821 -16 c 0,38,39
 787 -16 787 -16 769.5 0 c 128,-1,40
 752 16 752 16 732 69 c 1,41,42
 610 -20 610 -20 438 -20 c 0,43,44
 285 -20 285 -20 199 60.5 c 128,-1,45
 113 141 113 141 113 264 c 0,46,47
 113 342 113 342 144 404 c 128,-1,48
 175 466 175 466 226.5 503.5 c 128,-1,49
 278 541 278 541 341 560 c 128,-1,50
 404 579 404 579 473 579 c 2,51,-1
 720 579 l 1,52,53
 720 645 720 645 716 689 c 128,-1,54
 712 733 712 733 700 772.5 c 128,-1,55
 688 812 688 812 666.5 833.5 c 128,-1,56
 645 855 645 855 610 867.5 c 128,-1,57
 575 880 575 880 524 880 c 2,58,-1
 422 880 l 1,59,60
 434 852 434 852 434 818 c 0,61,62
 434 758 434 758 395 719.5 c 128,-1,14
 356 681 356 681 297 681 c 128,-1,15
315 291 m 0,63,64
 315 213 315 213 360 173.5 c 128,-1,65
 405 134 405 134 474 134 c 0,66,67
 549 134 549 134 606 160.5 c 128,-1,68
 663 187 663 187 720 234 c 1,69,-1
 720 429 l 1,70,-1
 508 429 l 2,71,72
 423 429 423 429 369 391.5 c 128,-1,73
 315 354 315 354 315 291 c 0,63,64
EndSplineSet
EndChar

